<svg xmlns="http://www.w3.org/2000/svg" viewBox="0 0 3840 2706.48"><defs><style>.cls-1{fill:#ec2429;stroke:#fff;stroke-miterlimit:10;}.cls-2{fill:#fff;}</style></defs><g id="Layer_1" data-name="Layer 1"><rect class="cls-1" width="3840" height="2706.48"/><path class="cls-2" d="M582.91,2481.73q1,.15,2.7,3.45l1.95,6.6q6.15,20.85,25.8,79.5.9,2.85,6.75,4.8a5,5,0,0,1,1.35,3.9c0,1.5-.06,3-.15,4.5q-.15,2.7-1.8,3.3l-3,.45-36.45-.15a2.24,2.24,0,0,1-2.25-2.4q0-.6-.3-3.3a9,9,0,0,1,0-3.3,3.38,3.38,0,0,1,1.5-2.4q1.8-.6,3.75-1.35a2.49,2.49,0,0,0,1.8-2.7q-1.21-5.4-4.35-14.7a3.39,3.39,0,0,0-2.7-1.5l-3.45-.3h-21.6a3.48,3.48,0,0,0-3.15,2.09l-3.9,13.29c-.1,1.59.87,2.79,2.92,3.58s3.28,1.7,3.68,2.69a17.44,17.44,0,0,1-.6,9.11q-.6.74-5.55,1.34l-19.35-.15c-1.5-.59-2.25-2-2.25-4.17,0-1.79,0-3.57.15-5.36.2-1.19,1.22-2.16,3.07-2.9s3-1.71,3.38-2.91l1.8-5.06q9.3-28.2,28.8-84.3.45-1.35,3.9-1.8Zm-18.31,28.65q-6.71,20-10.13,32c.1.49.89.94,2.39,1.33q16.42,0,17.33-.15c1-.6,1.39-1.19,1.19-1.79q-3-10.65-9.62-32.09C565.18,2509.45,564.79,2509.69,564.6,2510.38Z"/><path class="cls-2" d="M742.21,2523.73a1.2,1.2,0,0,0,1.8.15,29.6,29.6,0,0,1,27.9-7.5,16.9,16.9,0,0,1,7.8,4.87,15.73,15.73,0,0,1,4.2,8.18,89.38,89.38,0,0,1,.9,15.3q-.4,7.8-.6,15.6v14.55a2.41,2.41,0,0,0,1.35,1.95,5.43,5.43,0,0,0,2.77-1.2,5.42,5.42,0,0,1,2.63-1.2,2,2,0,0,1,1.2.45q3.6,2.55,3.15,4.65-1.78,7.5-11.75,9.9a28.69,28.69,0,0,1-6.4.75q-9.66,0-14.13-6.75c-1.48-2.4-2.33-5.7-2.52-9.9v-10.65q.13-8.7,0-26c-.11-2.3-1.38-3.95-3.83-4.95a6.54,6.54,0,0,0-5.81.6q-6,3.75-6,14.25v27.6a5.27,5.27,0,0,0,3.45,1.35c1.69.2,2.82.65,3.37,1.35a5.09,5.09,0,0,1,1,2.7,19.83,19.83,0,0,1,0,3.3c-.11,1.7-.15,2.75-.15,3.15a2.66,2.66,0,0,1-2.48,1.65l-3.67.3H726.76a18.43,18.43,0,0,1-3.15-.15,3.9,3.9,0,0,1-2.55-1.5l-.3-3.6q-.62-8.85-.15-23.1.45-17.85.3-23-.9-3.9-3.6-5.1a5.85,5.85,0,0,0-6.9,1.36q-4.5,4.36-4.5,14v26.85a2.39,2.39,0,0,0,2.4,1.65,10.67,10.67,0,0,1,3.15.61,4.89,4.89,0,0,1,2.1,4.22c0,1.81-.06,3.57-.15,5.28a3.06,3.06,0,0,1-1.95,2.26l-35.4.15a3.21,3.21,0,0,1-2.4-2.11c-.41-4.73-.15-7.75.75-9.06a7,7,0,0,1,3-1.06,17.13,17.13,0,0,0,3.37-.82c.55-.26.83-1.79.83-4.61q.45-22.93.3-41.36c-.21-1-1.16-1.7-2.85-2.11s-2.66-1.2-2.85-2.41v-5.29q.13-3.32,2.7-3.92,9-.15,23.7.15a3.59,3.59,0,0,1,3.3,2.48,4.54,4.54,0,0,0,.9,2.17,9.66,9.66,0,0,0,3.15-1.05q2.38-1,3-1.35a46.86,46.86,0,0,1,13.5-2.4q7,0,11.4,3.45A47.56,47.56,0,0,1,742.21,2523.73Z"/><path class="cls-2" d="M863,2533q4,9.6,4,13.8c0,1.7-2,3.35-6,5q-7.2,2.85-21.9,7.5l-12.9,3.45a1.76,1.76,0,0,0-1.2,1.35,13.83,13.83,0,0,0,4.42,9.53,13.33,13.33,0,0,0,9.53,4q6.59,0,15-6.3c1.09-.9,2.22-1.87,3.37-2.92a3.94,3.94,0,0,1,3.68-1.13q4.18,2.25,4.5,5.7-1.07,5.1-9.9,11.25t-21.15,6.15a37,37,0,0,1-16.5-3.6,33.32,33.32,0,0,1-14.85-13.95,40.71,40.71,0,0,1-5.25-19.35,41.65,41.65,0,0,1,4.57-20.48A35.77,35.77,0,0,1,816.61,2518a30.2,30.2,0,0,1,16-4.2,32.86,32.86,0,0,1,19.5,5.85A30.17,30.17,0,0,1,863,2533Zm-32.7-6.75q-5.26,1.95-7.2,9.6-2.12,8.55-.15,13.95,1.19,1.8,2.7,1.5a84.2,84.2,0,0,0,17.1-5.55,3.88,3.88,0,0,0,1-3.15,28.48,28.48,0,0,0-3-12.75c-1.5-2.8-4-4.2-7.5-4.2A8,8,0,0,0,830.26,2526.28Z"/><path class="cls-2" d="M914.1,2517.73a4.93,4.93,0,0,0,1.2.15,3.67,3.67,0,0,0,2.4-1.05q1.2-1,2.25-2.1,4.95-.9,6.3,1.35a59.09,59.09,0,0,1,1.65,9.75l.9,9.9q-.45,4.35-7.95,3.45a14,14,0,0,1-2.55-3.3q-1.8-3-2.4-3.75-5.25-6.45-10.8-6.45-5,0-6.6,3.15a6.35,6.35,0,0,0,.6,7.2q3.45,3.15,10.5,5.4,8.25,2.55,11.1,4.35,11.1,5.4,11.55,17.55a24.88,24.88,0,0,1-3.15,12.75,22.17,22.17,0,0,1-9.3,9.15,30.68,30.68,0,0,1-14.7,3.45,31.38,31.38,0,0,1-10.8-1.8q-5.7-2.1-6.9-2.1a6.13,6.13,0,0,0-1.95.3c-1,.7-2.05,1.42-3.15,2.17a4.35,4.35,0,0,1-3.3.83,7.59,7.59,0,0,1-3.9-1q-1.5-2.25-2.25-11L871.5,2562q.3-2.1.3-2.4a2.27,2.27,0,0,1,1.65-1.5q5.25-1.5,7.5.45,4.5,11.5,10.65,15a21.27,21.27,0,0,0,10.35,3,10.57,10.57,0,0,0,7-2.4,5.75,5.75,0,0,0,2-4.37c0-2.5-1.8-4.61-5.4-6.31q-17.1-8-18.3-8.72-10.05-6.32-11.85-15.49a26.1,26.1,0,0,1-.45-4.81,19.26,19.26,0,0,1,7.5-15.79q6.15-4.8,15.6-4.81a29.77,29.77,0,0,1,12.9,2.7Z"/><path class="cls-2" d="M979.65,2517.73a4.93,4.93,0,0,0,1.2.15,3.67,3.67,0,0,0,2.4-1.05q1.2-1,2.25-2.1,4.95-.9,6.3,1.35a59.09,59.09,0,0,1,1.65,9.75l.9,9.9q-.45,4.35-8,3.45a14,14,0,0,1-2.55-3.3q-1.8-3-2.4-3.75-5.25-6.45-10.8-6.45-4.95,0-6.6,3.15a6.35,6.35,0,0,0,.6,7.2q3.45,3.15,10.5,5.4,8.25,2.55,11.1,4.35,11.1,5.4,11.55,17.55a24.88,24.88,0,0,1-3.15,12.75,22.17,22.17,0,0,1-9.3,9.15,30.68,30.68,0,0,1-14.7,3.45,31.38,31.38,0,0,1-10.8-1.8q-5.7-2.1-6.9-2.1a6.13,6.13,0,0,0-2,.3c-1,.7-2,1.42-3.15,2.17a4.35,4.35,0,0,1-3.3.83,7.59,7.59,0,0,1-3.9-1q-1.5-2.25-2.25-11l-1.35-14.1q.3-2.1.3-2.4a2.27,2.27,0,0,1,1.65-1.5q5.25-1.5,7.5.45,4.5,11.5,10.65,15a21.27,21.27,0,0,0,10.35,3,10.57,10.57,0,0,0,7-2.4,5.75,5.75,0,0,0,2-4.37c0-2.5-1.8-4.61-5.4-6.31q-17.1-8-18.3-8.72-10-6.32-11.85-15.49a26.1,26.1,0,0,1-.45-4.81,19.26,19.26,0,0,1,7.5-15.79q6.15-4.8,15.6-4.81a29.77,29.77,0,0,1,12.9,2.7Z"/><path class="cls-2" d="M1063.5,2529q3.6,8.55,3.9,21.75v22.35a3.4,3.4,0,0,0,1,2,4.12,4.12,0,0,0,2.63-.83,5.34,5.34,0,0,1,2.47-1,2.42,2.42,0,0,1,1,.3q3.3,2.7,3.45,5.1-3,6.75-12,9.3a35.43,35.43,0,0,1-7.35,1.05,28.07,28.07,0,0,1-3.45-.75,13.07,13.07,0,0,1-5.85-3l-4.8-4.5a7.82,7.82,0,0,0-3,1.95,14.21,14.21,0,0,1-2.7,2.1,27.47,27.47,0,0,1-26.85,2.1q-9.45-4.8-9.45-16.65a22.79,22.79,0,0,1,.3-3.75q1.8-11.1,13.5-17.1,5.25-2.7,21.9-7.05c2-.6,3.28-1.47,3.83-2.63a8.7,8.7,0,0,0,.82-3.82,11.31,11.31,0,0,0-2.1-6.9q-2.7-3.15-6-3a7.49,7.49,0,0,0-6.9,4.8,51.41,51.41,0,0,1-3.45,8.4,3.81,3.81,0,0,1-2,.75q-.75,0-2.25-.15t-1.95-.15q-3.3-.9-6.45-1.65a6.75,6.75,0,0,1-4.5-4.5q-1-9.9,10.5-16.2a37.06,37.06,0,0,1,17.85-4.2q10.65,0,18.15,4.8A23.42,23.42,0,0,1,1063.5,2529Zm-26.85,24.75q-6.45,1.65-9.6,6.15a10.83,10.83,0,0,0-2.1,6.6,9.92,9.92,0,0,0,1,4.5q2.55,4.2,8,3.6,6.15-.6,8.25-4.5,2.55-6,1-16.2a2.22,2.22,0,0,0-2.4-1.8A6.79,6.79,0,0,0,1036.65,2553.73Z"/><path class="cls-2" d="M1148,2504.38q2.1,5.25-.36,8.48t-10.91,4.57a2.66,2.66,0,0,0-1.63,1.8,2.53,2.53,0,0,0,1.13,1.95c.75.6,1.47,1.15,2.17,1.65q9.6,8.7,9.6,20.25a25.45,25.45,0,0,1-1,7.05,26.11,26.11,0,0,1-7.7,12.3,34,34,0,0,1-12.93,7.8,35.48,35.48,0,0,1-18.69.75,2.75,2.75,0,0,0-1.94,1.95,3.39,3.39,0,0,0,1.35,3.38c1.09.85,3.34,1.47,6.73,1.87q11.8,0,14.79.15a35.49,35.49,0,0,1,13.76,3.75q8.37,5.7,8.37,15.15a21.86,21.86,0,0,1-.3,3.6q-2.85,15-24.9,19.5a52.39,52.39,0,0,1-11.1,1.2q-16.5,0-28.65-9.45-5-4.95-5-9a7.2,7.2,0,0,1,.45-2.55,6.33,6.33,0,0,1,3.15-4.2,10.26,10.26,0,0,1,4.35-1q4.2,0,9.9,4.7,7.35,6.21,9.15,7.13a22.32,22.32,0,0,0,9.9,2.27,16.49,16.49,0,0,0,8.55-2.13q2.7-2.28,2.7-3.8a5.89,5.89,0,0,0-.6-2.89q-1-1.36-6.15-2.28-11.85,0-17.1-1.2a22.49,22.49,0,0,1-13.8-8.85,13,13,0,0,1-2.55-7.95,12.13,12.13,0,0,1,1.65-6.45,20.69,20.69,0,0,1,5.55-5.55q.6-.9-.45-1.5-12.75-8.85-12.75-23.85a31.92,31.92,0,0,1,.45-5.25,26.32,26.32,0,0,1,8-14.48,30.36,30.36,0,0,1,14.89-8.32q8.22-2,18.56.45c.19,0,.64-.5,1.34-1.5q1.8-10.8,8.53-13.35a15.6,15.6,0,0,1,5.24-.9Q1146.16,2499.58,1148,2504.38Zm-33.75,21.9a6.9,6.9,0,0,0-5.1,2.4q-3.45,4.05-3.45,10.8a28.71,28.71,0,0,0,3.6,13.95q2.85,5.4,7.8,5.1a7.1,7.1,0,0,0,4.35-2.1q3.3-4,3.3-10.8a35.39,35.39,0,0,0-1.65-10.35Q1119.15,2526.58,1114.2,2526.28Z"/><path class="cls-2" d="M1220.7,2533q4,9.6,4,13.8,0,2.55-6,5-7.2,2.85-21.9,7.5l-12.9,3.45a1.79,1.79,0,0,0-1.2,1.35,13.84,13.84,0,0,0,4.43,9.53,13.29,13.29,0,0,0,9.52,4q6.6,0,15-6.3c1.1-.9,2.22-1.87,3.38-2.92a3.92,3.92,0,0,1,3.67-1.13q4.2,2.25,4.5,5.7-1.05,5.1-9.9,11.25t-21.15,6.15a37,37,0,0,1-16.5-3.6,33.32,33.32,0,0,1-14.85-13.95,40.83,40.83,0,0,1-5.25-19.35,41.66,41.66,0,0,1,4.58-20.48,35.75,35.75,0,0,1,14.17-14.92,30.25,30.25,0,0,1,16.05-4.2,32.84,32.84,0,0,1,19.5,5.85A30,30,0,0,1,1220.7,2533Zm-32.7-6.75q-5.25,1.95-7.2,9.6-2.1,8.55-.15,13.95,1.2,1.8,2.7,1.5a83.79,83.79,0,0,0,17.1-5.55,3.82,3.82,0,0,0,1-3.15,28.22,28.22,0,0,0-3-12.75q-2.25-4.2-7.5-4.2A8,8,0,0,0,1188,2526.28Z"/><path class="cls-2" d="M1340.85,2490.88a15.77,15.77,0,0,1,2.4,8.1,10.59,10.59,0,0,1-1,4.8q-3.15,6.75-11.25,7.2a7.75,7.75,0,0,1-7.5-4.05q-.15-.3-1.5-6.9-.9-4.2-4.65-4.35-2.55-.3-4.5,3.9a19.81,19.81,0,0,0-.9,6q0,5.55,2.4,8.85,1.5,2,5.85,1.88t5.55,2.17q.15,6.45,0,7.65-1.5,1.5-5.1,1.65-4.2,0-5.55.75t-1.35,4.95q0,13.5.45,40.95.75,1.2,5.1,2.25,3.45.9,3.15,4.2,0-.75.15,3.75a3.68,3.68,0,0,1-1.35,3.3q-4,.6-18.15.6l-17.1-.15q-2.25-.3-2.55-1.8-.75-5.25.3-8.25.75-1.35,5-2.1,3.15-.75,2.7-3.75v-40.8q0-2.7-1.83-3.45a36.33,36.33,0,0,0-4.58-.45,3.14,3.14,0,0,1-2.59-1.35,21.25,21.25,0,0,1,0-7.95q.6-2.25,4.65-2.32t4.5-2.48q3.6-18.75,14-25.95,3.15-3.45,11.1-5.25a29.05,29.05,0,0,1,6.45-.75Q1335.3,2481.73,1340.85,2490.88Z"/><path class="cls-2" d="M1397.55,2521.48a21.05,21.05,0,0,1,3,10.2,4.37,4.37,0,0,1-3,3.38q-2.55,1-4.8,1.72a29.65,29.65,0,0,0-4.2,1.35,15.54,15.54,0,0,1-4.2.75,7.2,7.2,0,0,1-2.55-.45q-1-2.1-2.1-4.35a4.86,4.86,0,0,0-3.9-2.55,7.05,7.05,0,0,0-5.25,2.25q-3.6,4.8-3.45,16.65l.3,24.15c.5.6,1.57,1,3.22,1.2a5.1,5.1,0,0,1,3.3,1.28,4.59,4.59,0,0,1,1,2.62,22.68,22.68,0,0,1,.15,3q-.15,2.25-.15,3-.3,2-1.8,2.25l-5.7.3h-29.25q-1.8,0-2.25-2.1-.15-4.8,0-7.35c.4-1.2,1.65-2,3.75-2.33s3.45-1,4-1.87v-43.35c0-1.8-.44-2.8-1.31-3s-1.72-.37-2.54-.53a2.13,2.13,0,0,1-1.7-1.27,34.41,34.41,0,0,1-.3-7.8,3.58,3.58,0,0,1,2.1-2.25q8.25-.15,24.3-.15,1.2-.15,3,1.35.3,1.2,1,3.6,7.35-7.5,15.6-7.5A14.75,14.75,0,0,1,1397.55,2521.48Z"/><path class="cls-2" d="M1472.1,2532.73a38.31,38.31,0,0,1,4.35,18.15q0,15.3-9,25.95-10.67,12.6-28.8,12.6a41.42,41.42,0,0,1-13.2-2.1,34.26,34.26,0,0,1-16.73-12.52,35,35,0,0,1-7.12-19.58l-.6-.6h.45a42.33,42.33,0,0,1,4.35-21,35.46,35.46,0,0,1,14.85-15.6,37.49,37.49,0,0,1,18.75-4.65q13.63,0,23.1,7.35A34.64,34.64,0,0,1,1472.1,2532.73Zm-36.45-6.45c-3.6,1.2-6.11,3.85-7.5,7.95-.71,2.2-1.3,6.1-1.8,11.7a100.17,100.17,0,0,0,1.5,15,27.85,27.85,0,0,0,6.15,13.2,10.13,10.13,0,0,0,9.3,2.25c3.6-1.3,5.89-3.5,6.9-6.6a38.14,38.14,0,0,0,2-12.6,69.31,69.31,0,0,0-3.9-22.2,14.82,14.82,0,0,0-3.9-6.23,8.91,8.91,0,0,0-6.3-2.77A9.74,9.74,0,0,0,1435.65,2526.28Z"/><path class="cls-2" d="M1550.55,2523.73a1.2,1.2,0,0,0,1.8.15,29.6,29.6,0,0,1,27.9-7.5,16.85,16.85,0,0,1,7.8,4.87,15.66,15.66,0,0,1,4.2,8.18,89.38,89.38,0,0,1,.9,15.3q-.4,7.8-.6,15.6v14.55a2.45,2.45,0,0,0,1.35,1.95,5.43,5.43,0,0,0,2.77-1.2,5.42,5.42,0,0,1,2.63-1.2,2,2,0,0,1,1.2.45q3.6,2.55,3.15,4.65-1.79,7.5-11.75,9.9a28.69,28.69,0,0,1-6.4.75q-9.66,0-14.12-6.75-2.24-3.6-2.53-9.9v-10.65q.14-8.7,0-26c-.11-2.3-1.38-3.95-3.83-4.95a6.54,6.54,0,0,0-5.81.6q-6,3.75-6,14.25v27.6a5.27,5.27,0,0,0,3.45,1.35c1.7.2,2.82.65,3.37,1.35a5,5,0,0,1,1,2.7,19.83,19.83,0,0,1,0,3.3q-.15,2.55-.15,3.15a2.65,2.65,0,0,1-2.48,1.65l-3.67.3H1535.1a18.43,18.43,0,0,1-3.15-.15,3.9,3.9,0,0,1-2.55-1.5l-.3-3.6q-.6-8.85-.15-23.1.45-17.85.3-23-.9-3.9-3.6-5.1a5.85,5.85,0,0,0-6.9,1.36q-4.5,4.36-4.5,14v26.85a2.4,2.4,0,0,0,2.4,1.65,10.67,10.67,0,0,1,3.15.61,4.89,4.89,0,0,1,2.1,4.22c0,1.81-.06,3.57-.15,5.28a3,3,0,0,1-2,2.26l-35.4.15a3.21,3.21,0,0,1-2.4-2.11q-.6-7.1.75-9.06a7.08,7.08,0,0,1,3-1.06,16.93,16.93,0,0,0,3.37-.82c.55-.26.83-1.79.83-4.61q.45-22.93.3-41.36c-.21-1-1.15-1.7-2.85-2.11s-2.65-1.2-2.85-2.41v-5.29q.14-3.32,2.7-3.92,9-.15,23.7.15a3.59,3.59,0,0,1,3.3,2.48,4.54,4.54,0,0,0,.9,2.17,9.66,9.66,0,0,0,3.15-1.05c1.59-.7,2.6-1.15,3-1.35a46.86,46.86,0,0,1,13.5-2.4c4.7,0,8.49,1.15,11.4,3.45A47.56,47.56,0,0,1,1550.55,2523.73Z"/><path class="cls-2" d="M1728.75,2487.29q12.74,10.23,12.75,28.42a42.44,42.44,0,0,1-2,12.78,31.59,31.59,0,0,1-7.8,12.32,26,26,0,0,1-12.3,7.22,49.49,49.49,0,0,1-11.4,1.35H1696.5a2.36,2.36,0,0,0-1.5,1.95v21.3c.19,1.5,1.42,2.43,3.67,2.78s3.62,1,4.13,1.87q.59,2.25,0,8.85-.16,1.5-2.25,1.95l-37.2.15a2.75,2.75,0,0,1-2.85-2.4c0-.6-.11-1.76-.3-3.46a17.66,17.66,0,0,1,0-3.45,4.45,4.45,0,0,1,1.5-2.71,13,13,0,0,1,3.6-.9,4,4,0,0,0,3-1.95q.14-14,0-35.75-.16-30.34-.15-35.6c-.11-1.7-.15-3.4-.15-5.11q-.16-3.15-2.7-3.6a18.75,18.75,0,0,1-3.3-.6,2.77,2.77,0,0,1-2.1-2c-.11-1.8-.15-3.6-.15-5.4,0-2.21.69-3.61,2.1-4.21l10.05-.15,30-.3Q1720.19,2480.53,1728.75,2487.29Zm-33.75,9.3v34.77c0,2.21.49,3.57,1.47,4.07a12.5,12.5,0,0,0,4.29.75c3.64,0,6.45-1.15,8.41-3.46q5.17-6.18,5.18-16.41a31.44,31.44,0,0,0-3.26-14.6q-3.69-7.53-11.66-7.53C1696.47,2494.18,1695,2495,1695,2496.59Z"/><path class="cls-2" d="M1803.59,2529q3.6,8.55,3.9,21.75v22.35a3.4,3.4,0,0,0,1,2,4.12,4.12,0,0,0,2.63-.83,5.34,5.34,0,0,1,2.47-1,2.42,2.42,0,0,1,1,.3q3.3,2.7,3.45,5.1-3,6.75-12,9.3a35.43,35.43,0,0,1-7.35,1.05,28.07,28.07,0,0,1-3.45-.75,13.07,13.07,0,0,1-5.85-3l-4.8-4.5a7.82,7.82,0,0,0-3,1.95,14.21,14.21,0,0,1-2.7,2.1,27.47,27.47,0,0,1-26.85,2.1q-9.45-4.8-9.45-16.65a22.79,22.79,0,0,1,.3-3.75q1.8-11.1,13.5-17.1,5.25-2.7,21.9-7.05c2-.6,3.28-1.47,3.83-2.63a8.7,8.7,0,0,0,.82-3.82,11.31,11.31,0,0,0-2.1-6.9q-2.7-3.15-6-3a7.49,7.49,0,0,0-6.9,4.8,51.41,51.41,0,0,1-3.45,8.4,3.81,3.81,0,0,1-1.95.75q-.75,0-2.25-.15t-2-.15q-3.3-.9-6.45-1.65a6.75,6.75,0,0,1-4.5-4.5q-1-9.9,10.5-16.2a37.06,37.06,0,0,1,17.85-4.2q10.65,0,18.15,4.8A23.42,23.42,0,0,1,1803.59,2529Zm-26.85,24.75q-6.45,1.65-9.6,6.15a10.83,10.83,0,0,0-2.1,6.6,9.92,9.92,0,0,0,1,4.5q2.55,4.2,8,3.6,6.15-.6,8.25-4.5,2.55-6,1-16.2a2.22,2.22,0,0,0-2.4-1.8A6.79,6.79,0,0,0,1776.74,2553.73Z"/><path class="cls-2" d="M1890,2523.73a1.2,1.2,0,0,0,1.8.15,29.6,29.6,0,0,1,27.9-7.5,16.8,16.8,0,0,1,7.8,4.87,15.59,15.59,0,0,1,4.2,8.18,87.39,87.39,0,0,1,.9,15.3c-.26,5.2-.47,10.4-.6,15.6v14.55a2.45,2.45,0,0,0,1.35,1.95,5.43,5.43,0,0,0,2.78-1.2,5.4,5.4,0,0,1,2.62-1.2,2,2,0,0,1,1.2.45q3.6,2.55,3.15,4.65-1.78,7.5-11.75,9.9a28.54,28.54,0,0,1-6.39.75q-9.67,0-14.13-6.75-2.23-3.6-2.53-9.9v-10.65q.15-8.7,0-26-.15-3.45-3.82-4.95a6.54,6.54,0,0,0-5.81.6q-6,3.75-6,14.25v27.6a5.3,5.3,0,0,0,3.45,1.35c1.7.2,2.83.65,3.38,1.35a5,5,0,0,1,1,2.7,17.85,17.85,0,0,1,0,3.3q-.15,2.55-.15,3.15a2.63,2.63,0,0,1-2.47,1.65l-3.68.3h-19.65a18.59,18.59,0,0,1-3.15-.15,3.93,3.93,0,0,1-2.55-1.5l-.3-3.6q-.6-8.85-.15-23.1.45-17.85.3-23-.9-3.9-3.6-5.1a5.85,5.85,0,0,0-6.9,1.36q-4.5,4.36-4.5,14v26.85a2.4,2.4,0,0,0,2.4,1.65,10.67,10.67,0,0,1,3.15.61,4.86,4.86,0,0,1,2.1,4.22q0,2.72-.15,5.28a3,3,0,0,1-2,2.26l-35.4.15a3.23,3.23,0,0,1-2.4-2.11q-.6-7.1.75-9.06a7.13,7.13,0,0,1,3-1.06,17.09,17.09,0,0,0,3.38-.82c.55-.26.82-1.79.82-4.61q.45-22.93.3-41.36c-.2-1-1.15-1.7-2.85-2.11s-2.65-1.2-2.85-2.41v-5.29q.15-3.32,2.7-3.92,9-.15,23.7.15a3.58,3.58,0,0,1,3.3,2.48,4.54,4.54,0,0,0,.9,2.17,9.66,9.66,0,0,0,3.15-1.05q2.4-1,3-1.35a47,47,0,0,1,13.5-2.4q7,0,11.4,3.45A47.56,47.56,0,0,1,1890,2523.73Z"/><path class="cls-2" d="M2018.92,2535.58a46.25,46.25,0,0,1,3.37,17.4q0,16.65-10.76,26.55t-24.3,9.9a28.63,28.63,0,0,1-11-2.1,1.48,1.48,0,0,0-1.51,1.34v15.23q0,2.68,3.68,3.44c2.45.49,3.67,1.64,3.67,3.43l.15,3.88a6.88,6.88,0,0,1-.75,3.59q-1.8,1.19-10.2,1h-23.85q-2.55-.6-3-2c0-.3-.1-1.4-.3-3.29a11,11,0,0,1,.15-3.3,3.79,3.79,0,0,1,1.65-2.69,9.18,9.18,0,0,1,3.3-1.05,2.73,2.73,0,0,0,2.55-1.95q.15-25.17.6-75.49c-.3-.9-1.37-1.67-3.22-2.32s-2.78-1.67-2.78-3.07V2520q.15-2.55,1.8-3.3,6.3,0,19.65-.3h3.6a4.51,4.51,0,0,1,3.3,1,6.4,6.4,0,0,0,1.65,3.15q9.15-5.25,16.2-5.25,8.4,0,15.9,6.15A34.3,34.3,0,0,1,2018.92,2535.58Zm-34.58-5.4a9,9,0,0,0-5.32,2.7,11.34,11.34,0,0,0-3.23,5.25,60.13,60.13,0,0,0-2,15.75,70,70,0,0,0,.75,10.2q2.1,13.8,11.85,13.8a9.51,9.51,0,0,0,7.2-3q4.65-5.7,4.65-16.05a83.3,83.3,0,0,0-.6-8.85q-1.2-11.1-5-16.2A8.85,8.85,0,0,0,1984.34,2530.18Z"/><path class="cls-2" d="M2090.84,2533q4,9.6,4,13.8,0,2.55-6,5-7.2,2.85-21.9,7.5l-12.9,3.45a1.79,1.79,0,0,0-1.2,1.35,13.88,13.88,0,0,0,4.43,9.53,13.31,13.31,0,0,0,9.52,4q6.6,0,15-6.3,1.65-1.35,3.38-2.92a3.93,3.93,0,0,1,3.67-1.13q4.2,2.25,4.5,5.7-1,5.1-9.9,11.25t-21.15,6.15a37,37,0,0,1-16.5-3.6,33.32,33.32,0,0,1-14.85-13.95,40.83,40.83,0,0,1-5.25-19.35,41.77,41.77,0,0,1,4.58-20.48,35.81,35.81,0,0,1,14.17-14.92,30.25,30.25,0,0,1,16-4.2,32.84,32.84,0,0,1,19.5,5.85A30,30,0,0,1,2090.84,2533Zm-32.7-6.75q-5.25,1.95-7.2,9.6-2.1,8.55-.15,13.95,1.2,1.8,2.7,1.5a83.79,83.79,0,0,0,17.1-5.55,3.82,3.82,0,0,0,1-3.15,28.22,28.22,0,0,0-3-12.75q-2.25-4.2-7.5-4.2A8,8,0,0,0,2058.14,2526.28Z"/><path class="cls-2" d="M2161.94,2521.48a21.05,21.05,0,0,1,3,10.2,4.37,4.37,0,0,1-3,3.38q-2.55,1-4.8,1.72a29.65,29.65,0,0,0-4.2,1.35,15.54,15.54,0,0,1-4.2.75,7.2,7.2,0,0,1-2.55-.45q-1.05-2.1-2.1-4.35a4.86,4.86,0,0,0-3.9-2.55,7.05,7.05,0,0,0-5.25,2.25q-3.6,4.8-3.45,16.65l.3,24.15c.5.6,1.58,1,3.22,1.2a5.13,5.13,0,0,1,3.31,1.28,4.66,4.66,0,0,1,1,2.62,22.68,22.68,0,0,1,.15,3q-.15,2.25-.15,3-.3,2-1.8,2.25l-5.7.3h-29.25q-1.8,0-2.25-2.1-.15-4.8,0-7.35c.4-1.2,1.65-2,3.75-2.33s3.45-1,4.05-1.87v-43.35c0-1.8-.44-2.8-1.31-3s-1.72-.37-2.54-.53a2.1,2.1,0,0,1-1.69-1.27,33.86,33.86,0,0,1-.31-7.8,3.58,3.58,0,0,1,2.1-2.25q8.25-.15,24.3-.15,1.2-.15,3,1.35.3,1.2,1.05,3.6,7.35-7.5,15.6-7.5A14.75,14.75,0,0,1,2161.94,2521.48Z"/><path class="cls-2" d="M2208.74,2517.73a4.93,4.93,0,0,0,1.2.15,3.67,3.67,0,0,0,2.4-1.05q1.2-1,2.25-2.1,4.95-.9,6.3,1.35a59.09,59.09,0,0,1,1.65,9.75l.9,9.9q-.45,4.35-8,3.45a14,14,0,0,1-2.55-3.3q-1.8-3-2.4-3.75-5.25-6.45-10.8-6.45-4.95,0-6.6,3.15a6.35,6.35,0,0,0,.6,7.2q3.45,3.15,10.5,5.4,8.25,2.55,11.1,4.35,11.1,5.4,11.55,17.55a24.88,24.88,0,0,1-3.15,12.75,22.17,22.17,0,0,1-9.3,9.15,30.68,30.68,0,0,1-14.7,3.45,31.38,31.38,0,0,1-10.8-1.8q-5.7-2.1-6.9-2.1a6.13,6.13,0,0,0-1.95.3c-1,.7-2.05,1.42-3.15,2.17a4.35,4.35,0,0,1-3.3.83,7.59,7.59,0,0,1-3.9-1q-1.5-2.25-2.25-11l-1.35-14.1q.3-2.1.3-2.4a2.27,2.27,0,0,1,1.65-1.5q5.25-1.5,7.5.45,4.5,11.5,10.65,15a21.27,21.27,0,0,0,10.35,3,10.57,10.57,0,0,0,7-2.4,5.75,5.75,0,0,0,2-4.37c0-2.5-1.8-4.61-5.4-6.31q-17.1-8-18.3-8.72-10-6.32-11.85-15.49a26.1,26.1,0,0,1-.45-4.81,19.26,19.26,0,0,1,7.5-15.79q6.15-4.8,15.6-4.81a29.77,29.77,0,0,1,12.9,2.7Z"/><path class="cls-2" d="M2350.64,2485.63l4.8,2.85q9.15,7.65,9.15,20.1a29.29,29.29,0,0,1-.45,5.1,22.79,22.79,0,0,1-12,15.3,14.91,14.91,0,0,0-2.4,1.65q2.25,1.2,6.75,3.75,12,7.2,12,22.95a32.79,32.79,0,0,1-.45,5.4,27.92,27.92,0,0,1-6.53,13.95,28.38,28.38,0,0,1-12.6,9.07,39.63,39.63,0,0,1-13,2.48l-47.4.15q-2.55-.15-3.15-2.1l-.15-7.8q.75-2.1,4.27-2.92t4-2.93q.15-25.2.6-75.6-.3-2-4.05-2.62c-2.5-.46-3.7-1.63-3.6-3.53q-.15-2.25-.15-4.35a4.25,4.25,0,0,1,1.8-3.6l1.8-.3,24.15-.3q14.55-.15,24.15.3Q2346.14,2483.08,2350.64,2485.63Zm-24.75,51.45H2323a3.16,3.16,0,0,0-2.55.9l-.45,30.15V2571a1.86,1.86,0,0,0,1.57,2.1,17.25,17.25,0,0,0,3.23.3q10.2,0,14.1-6.3a23.68,23.68,0,0,0,3.3-12.6,22.1,22.1,0,0,0-2.55-10.8Q2335.94,2537.08,2325.89,2537.08Zm-1.8-41.25-2,.3a1.24,1.24,0,0,0-1.2,1q-.3,23.73-.3,25.82l.75.74q9.15,1.2,13.8-2.69,4-4.32,4-11.34a19.73,19.73,0,0,0-1.35-7.3Q2334.89,2495.23,2324.09,2495.83Z"/><path class="cls-2" d="M2437.49,2533q4.05,9.6,4.05,13.8c0,1.7-2,3.35-6,5q-7.2,2.85-21.9,7.5l-12.9,3.45a1.76,1.76,0,0,0-1.2,1.35,13.83,13.83,0,0,0,4.42,9.53,13.33,13.33,0,0,0,9.53,4q6.59,0,15-6.3c1.09-.9,2.22-1.87,3.37-2.92a3.94,3.94,0,0,1,3.68-1.13q4.18,2.25,4.5,5.7-1.07,5.1-9.9,11.25t-21.15,6.15a37,37,0,0,1-16.5-3.6,33.32,33.32,0,0,1-14.85-13.95,40.6,40.6,0,0,1-5.25-19.35A41.65,41.65,0,0,1,2377,2533a35.77,35.77,0,0,1,14.18-14.92,30.2,30.2,0,0,1,16.05-4.2,32.86,32.86,0,0,1,19.5,5.85A30.17,30.17,0,0,1,2437.49,2533Zm-32.7-6.75q-5.26,1.95-7.21,9.6-2.1,8.55-.14,13.95,1.18,1.8,2.7,1.5a84.2,84.2,0,0,0,17.1-5.55,3.88,3.88,0,0,0,1.05-3.15,28.48,28.48,0,0,0-3-12.75c-1.5-2.8-4-4.2-7.5-4.2A8,8,0,0,0,2404.79,2526.28Z"/><path class="cls-2" d="M2511,2533q4,9.6,4.05,13.8,0,2.55-6,5-7.2,2.85-21.9,7.5l-12.9,3.45a1.79,1.79,0,0,0-1.2,1.35,13.88,13.88,0,0,0,4.43,9.53,13.31,13.31,0,0,0,9.52,4q6.6,0,15-6.3,1.65-1.35,3.38-2.92a3.93,3.93,0,0,1,3.67-1.13q4.2,2.25,4.5,5.7-1.05,5.1-9.9,11.25t-21.15,6.15a37,37,0,0,1-16.5-3.6,33.32,33.32,0,0,1-14.85-13.95,40.83,40.83,0,0,1-5.25-19.35,41.77,41.77,0,0,1,4.58-20.48,35.81,35.81,0,0,1,14.17-14.92,30.25,30.25,0,0,1,16-4.2,32.84,32.84,0,0,1,19.5,5.85A30,30,0,0,1,2511,2533Zm-32.7-6.75q-5.25,1.95-7.2,9.6-2.1,8.55-.15,13.95,1.2,1.8,2.7,1.5a83.79,83.79,0,0,0,17.1-5.55,3.82,3.82,0,0,0,1.05-3.15,28.22,28.22,0,0,0-3-12.75q-2.25-4.2-7.5-4.2A8,8,0,0,0,2478.28,2526.28Z"/><path class="cls-2" d="M2582.08,2521.48a21.05,21.05,0,0,1,3,10.2,4.37,4.37,0,0,1-3,3.38q-2.55,1-4.8,1.72a29.65,29.65,0,0,0-4.2,1.35,15.54,15.54,0,0,1-4.2.75,7.2,7.2,0,0,1-2.55-.45q-1-2.1-2.1-4.35a4.86,4.86,0,0,0-3.9-2.55,7.05,7.05,0,0,0-5.25,2.25q-3.6,4.8-3.45,16.65l.3,24.15c.5.6,1.58,1,3.23,1.2a5.1,5.1,0,0,1,3.3,1.28,4.66,4.66,0,0,1,1,2.62,22.68,22.68,0,0,1,.15,3q-.15,2.25-.15,3-.3,2-1.8,2.25l-5.7.3h-29.25q-1.8,0-2.25-2.1-.15-4.8,0-7.35c.4-1.2,1.65-2,3.75-2.33s3.45-1,4.05-1.87v-43.35c0-1.8-.44-2.8-1.31-3s-1.72-.37-2.54-.53a2.12,2.12,0,0,1-1.69-1.27,33.86,33.86,0,0,1-.31-7.8,3.58,3.58,0,0,1,2.1-2.25q8.25-.15,24.3-.15,1.2-.15,3,1.35.3,1.2,1,3.6,7.35-7.5,15.6-7.5A14.75,14.75,0,0,1,2582.08,2521.48Z"/><path class="cls-2" d="M2693.38,2482.33a4.4,4.4,0,0,0,1.65.3q.3,0,5.4-2.25,5.7,0,6.9.9a15.14,15.14,0,0,1,2.1,5.17c.5,2.16,1,4.18,1.5,6.08l3.3,18.45a3.44,3.44,0,0,1-1.5,3.75,22,22,0,0,1-6.45,1.65,6.07,6.07,0,0,1-3-.75,24.52,24.52,0,0,1-2.55-5q-1.65-4-2.25-5.25a55.15,55.15,0,0,0-4.35-7,12.26,12.26,0,0,0-6.75-4.5,12.41,12.41,0,0,0-2.7-.3q-7.2,0-11.85,6.75-6.15,8.85-6.9,30-.9,22.65,4.65,35.4a15.27,15.27,0,0,0,5.55,6.75,11.84,11.84,0,0,0,8.1,2.1q10.8-.9,18.45-19.5a5,5,0,0,1,2.4-2.85,8.43,8.43,0,0,1,1.65-.15q3,0,7.2,2.7a5.2,5.2,0,0,1,1.35,3.6q0,.3-2,7.35a48.72,48.72,0,0,1-10,15q-7.2,7.35-15.45,8.55a37,37,0,0,1-8.7,1q-19.35,0-31.2-16.95-10.5-15.3-10.5-37.5,0-23.1,11.1-39.75,10.65-16.2,31.2-16.2A39.64,39.64,0,0,1,2693.38,2482.33Z"/><path class="cls-2" d="M2790.43,2532.73a38.31,38.31,0,0,1,4.35,18.15q0,15.3-9,25.95-10.65,12.6-28.8,12.6a41.47,41.47,0,0,1-13.2-2.1,34.26,34.26,0,0,1-16.73-12.52,35,35,0,0,1-7.12-19.58l-.6-.6h.45a42.44,42.44,0,0,1,4.35-21A35.57,35.57,0,0,1,2739,2518a37.52,37.52,0,0,1,18.75-4.65q13.65,0,23.1,7.35A34.42,34.42,0,0,1,2790.43,2532.73Zm-36.45-6.45q-5.4,1.8-7.5,7.95a62.6,62.6,0,0,0-1.8,11.7,100.17,100.17,0,0,0,1.5,15,28,28,0,0,0,6.15,13.2,10.13,10.13,0,0,0,9.3,2.25q5.4-2,6.9-6.6a37.88,37.88,0,0,0,1.95-12.6,69.31,69.31,0,0,0-3.9-22.2,14.62,14.62,0,0,0-3.9-6.23,8.89,8.89,0,0,0-6.3-2.77A9.86,9.86,0,0,0,2754,2526.28Z"/><path class="cls-2" d="M2868.88,2523.73a1.2,1.2,0,0,0,1.8.15,29.6,29.6,0,0,1,27.9-7.5,16.8,16.8,0,0,1,7.8,4.87,15.59,15.59,0,0,1,4.2,8.18,87.39,87.39,0,0,1,.9,15.3q-.41,7.8-.6,15.6v14.55a2.45,2.45,0,0,0,1.35,1.95,5.4,5.4,0,0,0,2.77-1.2,5.42,5.42,0,0,1,2.63-1.2,2,2,0,0,1,1.2.45q3.6,2.55,3.15,4.65-1.79,7.5-11.75,9.9a28.55,28.55,0,0,1-6.4.75q-9.66,0-14.12-6.75-2.24-3.6-2.53-9.9v-10.65q.15-8.7,0-26c-.11-2.3-1.38-3.95-3.83-4.95a6.54,6.54,0,0,0-5.81.6q-6,3.75-6,14.25v27.6a5.3,5.3,0,0,0,3.45,1.35c1.7.2,2.82.65,3.37,1.35a5,5,0,0,1,1,2.7,17.85,17.85,0,0,1,0,3.3q-.15,2.55-.15,3.15a2.65,2.65,0,0,1-2.48,1.65l-3.67.3h-19.65a18.59,18.59,0,0,1-3.15-.15,3.93,3.93,0,0,1-2.55-1.5l-.3-3.6q-.6-8.85-.15-23.1.45-17.85.3-23-.9-3.9-3.6-5.1a5.85,5.85,0,0,0-6.9,1.36q-4.5,4.36-4.5,14v26.85a2.4,2.4,0,0,0,2.4,1.65,10.67,10.67,0,0,1,3.15.61,4.86,4.86,0,0,1,2.1,4.22q0,2.72-.15,5.28a3,3,0,0,1-1.95,2.26l-35.4.15a3.23,3.23,0,0,1-2.4-2.11q-.6-7.1.75-9.06a7.13,7.13,0,0,1,3-1.06,16.93,16.93,0,0,0,3.37-.82c.55-.26.83-1.79.83-4.61q.45-22.93.3-41.36c-.2-1-1.15-1.7-2.85-2.11s-2.65-1.2-2.85-2.41v-5.29q.15-3.32,2.7-3.92,9-.15,23.7.15a3.58,3.58,0,0,1,3.3,2.48,4.54,4.54,0,0,0,.9,2.17,9.66,9.66,0,0,0,3.15-1.05q2.4-1,3-1.35a47,47,0,0,1,13.5-2.4q7,0,11.4,3.45A47.56,47.56,0,0,1,2868.88,2523.73Z"/><path class="cls-2" d="M2997.8,2535.58a46.26,46.26,0,0,1,3.38,17.4q0,16.65-10.76,26.55t-24.3,9.9a28.64,28.64,0,0,1-11-2.1,1.48,1.48,0,0,0-1.5,1.34v15.23q0,2.68,3.67,3.44c2.45.49,3.68,1.64,3.68,3.43l.15,3.88a6.88,6.88,0,0,1-.75,3.59q-1.8,1.19-10.2,1h-23.85c-1.71-.4-2.7-1.05-3-2,0-.3-.1-1.4-.3-3.29a11,11,0,0,1,.15-3.3,3.79,3.79,0,0,1,1.65-2.69,9.18,9.18,0,0,1,3.3-1.05,2.73,2.73,0,0,0,2.55-1.95q.15-25.17.6-75.49c-.3-.9-1.38-1.67-3.23-2.32s-2.77-1.67-2.77-3.07V2520q.15-2.55,1.8-3.3,6.3,0,19.65-.3h3.6a4.51,4.51,0,0,1,3.3,1,6.4,6.4,0,0,0,1.65,3.15q9.15-5.25,16.2-5.25,8.4,0,15.9,6.15A34.27,34.27,0,0,1,2997.8,2535.58Zm-34.57-5.4a9,9,0,0,0-5.33,2.7,11.31,11.31,0,0,0-3.22,5.25,60.13,60.13,0,0,0-1.95,15.75,70,70,0,0,0,.75,10.2q2.1,13.8,11.85,13.8a9.51,9.51,0,0,0,7.2-3q4.63-5.7,4.65-16.05a83.3,83.3,0,0,0-.6-8.85q-1.2-11.1-4.95-16.2A8.86,8.86,0,0,0,2963.23,2530.18Z"/><path class="cls-2" d="M3065.68,2529q3.6,8.55,3.9,21.75v22.35a3.4,3.4,0,0,0,1.05,2,4.09,4.09,0,0,0,2.62-.83,5.37,5.37,0,0,1,2.48-1,2.42,2.42,0,0,1,1.05.3c2.19,1.8,3.35,3.5,3.45,5.1q-3,6.75-12,9.3a35.43,35.43,0,0,1-7.35,1.05,28.07,28.07,0,0,1-3.45-.75,13.07,13.07,0,0,1-5.85-3l-4.8-4.5a7.75,7.75,0,0,0-3,1.95,14.21,14.21,0,0,1-2.7,2.1,27.47,27.47,0,0,1-26.85,2.1q-9.45-4.8-9.45-16.65a22.79,22.79,0,0,1,.3-3.75q1.8-11.1,13.5-17.1,5.25-2.7,21.9-7.05c2-.6,3.27-1.47,3.82-2.63a8.7,8.7,0,0,0,.83-3.82,11.31,11.31,0,0,0-2.1-6.9c-1.8-2.1-3.81-3.1-6-3a7.48,7.48,0,0,0-6.9,4.8,52.35,52.35,0,0,1-3.45,8.4,3.85,3.85,0,0,1-1.95.75q-.77,0-2.25-.15t-1.95-.15q-3.3-.9-6.45-1.65a6.75,6.75,0,0,1-4.5-4.5q-1-9.9,10.5-16.2a37.06,37.06,0,0,1,17.85-4.2q10.65,0,18.15,4.8A23.42,23.42,0,0,1,3065.68,2529Zm-26.85,24.75q-6.45,1.65-9.6,6.15a10.83,10.83,0,0,0-2.1,6.6,9.92,9.92,0,0,0,1,4.5q2.55,4.2,8,3.6c4.1-.4,6.84-1.9,8.25-4.5q2.55-6,1-16.2a2.22,2.22,0,0,0-2.4-1.8A6.77,6.77,0,0,0,3038.83,2553.73Z"/><path class="cls-2" d="M3151.47,2520.58a18.57,18.57,0,0,1,4.65,12.3q0,13.8.15,41.25a1.61,1.61,0,0,0,1.2,1.8,9.22,9.22,0,0,0,2.78-1.27,6.41,6.41,0,0,1,2.77-1.13,2.59,2.59,0,0,1,2.1,1.2c1.6,1.5,2.26,2.85,2,4.05q-1.51,6-10.06,9.3a19.12,19.12,0,0,1-13.5.45,13,13,0,0,1-6.6-3.53,13.24,13.24,0,0,1-4-6.37l-.61-4.05v-30l.15-6.6q0-4-2.25-5.85a6.74,6.74,0,0,0-5.4-1.35q-7,1.35-8.55,8.74-.3,3.93-.6,34.68c.1,1,.8,1.62,2.1,1.81a19.41,19.41,0,0,1,3,.46c1.4.4,2.2,1.05,2.4,2,.2,5.13,0,8.19-.6,9.2l-1.19.75q-11.86,0-35.25.15c-1.61-.4-2.46-1.61-2.56-3.61v-5c.2-1.51.75-2.46,1.65-2.87a38.93,38.93,0,0,1,3.91-.75c1.59-.3,2.44-1.1,2.54-2.41v-44.59c-.4-.8-1.35-1.33-2.85-1.58s-2.39-.77-2.69-1.58c-.41-4.61-.26-7.58.44-8.89l1.81-1.2q6.14-.15,24.75,0,1.18.3,3.14,4.35.75.3,3-.9a37.7,37.7,0,0,1,17.86-4.8Q3146.22,2514.73,3151.47,2520.58Z"/><path class="cls-2" d="M3207.27,2515.48q1.65.45,1.95,2.7v3.6a6.06,6.06,0,0,1-1,3.45l-3.6,1.5a3.62,3.62,0,0,0-2.55,2.7,100.32,100.32,0,0,0,4.95,15.15q3.15,7.5,6.15,14.85.45.9,1.2.3l.75-1.2,9.45-27.75q.3-2.55-.9-3.45a1.34,1.34,0,0,0-1.2-.67,1.51,1.51,0,0,1-1.2-.53q-3.15-1.05-3.3-2.85v-4.35a4.58,4.58,0,0,1,1.65-3.45l2.85-.3q7.8.15,22.2.15a2.71,2.71,0,0,1,2.7,1.65,10.45,10.45,0,0,1-.3,7.8,28.07,28.07,0,0,0-6.6,3.6l-1.8,3.3L3223,2572l-6.6,17.4a109.75,109.75,0,0,1-8.25,16.8q-7.35,11.7-20.25,10.65-9.3-.75-13.2-8.25a12.35,12.35,0,0,1-1.65-6.3,9.47,9.47,0,0,1,1.8-5.85q3.45-5,9.75-3.9,2.1.3,5.33,3.75t5.47,3.45a4.39,4.39,0,0,0,2.7-1.05,11.26,11.26,0,0,0,3.3-8.55,17.82,17.82,0,0,0-1.8-7.8l-23.1-52.35q-.75-1.8-3.67-3t-3.53-3q0-.45-.15-3.15a9,9,0,0,1,0-3.3,3.67,3.67,0,0,1,1.65-2.4h1.95Z"/></g><g id="Layer_3" data-name="Layer 3"><path class="cls-2" d="M713.4,579.74V656.2H424.83Q429.51,612.85,453,574t92.58-103q55.66-51.85,68.26-70.31,17-25.49,17-50.39,0-27.54-14.79-42.33t-40.87-14.8q-25.79,0-41,15.53T516.53,360.3l-82-8.2q7.32-68,46-97.56T577.17,225q63.57,0,99.9,34.28t36.33,85.25A148.49,148.49,0,0,1,703,399.71q-10.41,26.22-33,54.93-14.94,19-53.91,54.78t-49.36,47.46a142.41,142.41,0,0,0-16.85,22.86Z"/><path class="cls-2" d="M770.24,545.75l82-8.49q3.51,27.82,20.8,44.09t39.84,16.26q25.79,0,43.65-21t17.88-63.14q0-39.54-17.73-59.32t-46.14-19.78q-35.46,0-63.58,31.35L780.2,456.1l42.18-223.53h217.68v77.05H884.79L871.9,382.57q27.52-13.77,56.25-13.77,54.78,0,92.87,39.84t38.08,103.42q0,53-30.76,94.63Q986.45,663.53,912,663.52q-59.47,0-97-31.93T770.24,545.75Z"/><path class="cls-2" d="M1103.34,332.76q0-57.7,25.34-85.54t68.7-27.84q44.83,0,70.17,27.69t25.34,85.69q0,57.72-25.34,85.55t-68.7,27.83q-44.82,0-70.17-27.68T1103.34,332.76Zm64.16-.58q0,41.9,9.67,56.25A23.28,23.28,0,0,0,1197.38,399q13.18,0,20.51-10.54,9.38-14.35,9.38-56.25t-9.38-56q-7.32-10.83-20.51-10.84a23.29,23.29,0,0,0-20.21,10.55Q1167.49,290.28,1167.5,332.18Zm92.58,340.43h-60.94L1428,219.38h59.18Zm133-112.8q0-57.7,25.34-85.54t69.29-27.84q44.23,0,69.58,27.84t25.34,85.54q0,58-25.34,85.84t-68.7,27.84q-44.83,0-70.17-27.84T1393.09,559.81Zm64.16-.29q0,41.9,9.67,56,7.32,10.85,20.21,10.84,13.18,0,20.22-10.55,9.66-14.35,9.66-56.25t-9.37-56.25q-7.34-10.54-20.51-10.55t-20.21,10.55Q1457.25,517.63,1457.25,559.52Z"/><path class="cls-2" d="M2107.56,436q17.4,33,17.4,72.6,0,61.2-36,103.8-42.61,50.4-115.2,50.4a165.86,165.86,0,0,1-52.8-8.4q-40.2-13.8-66.9-50.1t-28.5-78.3l-2.4-2.4h1.8q-1.8-45.59,17.4-84,20.39-40.8,59.4-62.4,33-18.58,75-18.6,54.59,0,92.4,29.4Q2092,405.42,2107.56,436Zm-145.8-25.8q-21.6,7.2-30,31.8-4.2,13.2-7.2,46.8,1.8,40.2,6,60,6.6,32.4,24.6,52.8,16.2,13.81,37.2,9,21.6-7.79,27.6-26.4,7.79-22.19,7.8-50.4,0-42.6-15.6-88.8a58.35,58.35,0,0,0-15.6-24.9q-11.4-11.1-25.2-11.1A39.39,39.39,0,0,0,1961.76,410.2Z"/><path class="cls-2" d="M2384.16,268.6q9.59,16.2,9.6,32.4a42.5,42.5,0,0,1-4.2,19.2q-12.6,27-45,28.8-20.4.6-30-16.2-.6-1.2-6-27.6-3.6-16.79-18.6-17.4-10.22-1.2-18,15.6a79.23,79.23,0,0,0-3.6,24q0,22.2,9.6,35.4,6,7.8,23.4,7.5t22.2,8.7q.58,25.8,0,30.6-6,6-20.4,6.6-16.8,0-22.2,3t-5.4,19.8q0,54,1.8,163.8,3,4.82,20.4,9,13.8,3.6,12.6,16.8,0-3,.6,15,0,9.6-5.4,13.2-16.2,2.38-72.6,2.4l-68.4-.6c-6-.81-9.4-3.2-10.2-7.2q-3-21,1.2-33,3-5.4,19.8-8.4,12.6-3,10.8-15V431.8q0-10.8-7.32-13.8-1.23-.58-18.31-1.8-7.34-.58-10.37-5.4a84.6,84.6,0,0,1,0-31.8q2.39-9,18.6-9.3t18-9.9q14.4-75,55.8-103.8,12.6-13.8,44.4-21a116.15,116.15,0,0,1,25.8-3Q2361.95,232,2384.16,268.6Z"/><path class="cls-2" d="M2602,268.6q9.59,16.2,9.6,32.4a42.5,42.5,0,0,1-4.2,19.2q-12.6,27-45,28.8-20.42.6-30-16.2-.62-1.2-6-27.6-3.6-16.79-18.6-17.4-10.22-1.2-18,15.6a79.23,79.23,0,0,0-3.6,24q0,22.2,9.6,35.4,6,7.8,23.4,7.5t22.2,8.7q.58,25.8,0,30.6-6,6-20.4,6.6-16.82,0-22.2,3t-5.4,19.8q0,54,1.8,163.8,3,4.82,20.4,9,13.79,3.6,12.6,16.8,0-3,.6,15,0,9.6-5.4,13.2-16.2,2.38-72.6,2.4l-68.4-.6c-6-.81-9.41-3.2-10.2-7.2q-3-21,1.2-33,3-5.4,19.8-8.4,12.6-3,10.8-15V431.8q0-10.8-7.33-13.8-1.22-.58-18.31-1.8-7.32-.58-10.36-5.4a84.6,84.6,0,0,1,0-31.8q2.39-9,18.6-9.3t18-9.9q14.4-75,55.8-103.8,12.6-13.8,44.4-21a116.15,116.15,0,0,1,25.8-3Q2579.75,232,2602,268.6Z"/><path class="cls-2" d="M286.28,1179.71c3.2,1.35,4.8,3,4.8,4.82q0,27.3.4,13.25-.41,7.62-6,10a61.21,61.21,0,0,0-6.8,3.21,9.08,9.08,0,0,0-4.6,5.42,24.77,24.77,0,0,0-1,7q0,4,7.2,26.5l15.2,45.75c.8,1.33,1.73,1.74,2.8,1.2l2.4-3.6,19.6-66.8q.8-3.19,1.6-6.8.8-4.39-1.4-6.8t-8.8-4.8q-6.6-2.4-7.4-6.8v-11.6q0-6.8,4.4-9.6l7.2-1.2q29.19,0,87.6.8,6.79,3.6,4,24-1.61,3.6-9,5.6t-9,6.8q-1.2,5.21,2.8,17.2l20,62q2.37,3.21,4,2.4l1.58-2.42q6.76-23.2,18.69-69.63a33.49,33.49,0,0,1,1-4.84,14.64,14.64,0,0,0,0-4.83,6.71,6.71,0,0,0-2-4.23q-1.61-1.41-7.4-3.63t-7.4-5.84q-.4-16.92-.8-12.9.39-7.65,6-10.48,40.8-.39,61.6.4,5.19,2,5.6,9.22a82.86,82.86,0,0,1-.8,11.63q-.81,5.61-8.8,8t-9.6,6l-4,6.81q-7.61,24.46-21.6,73.36t-21.2,73.35q-2.81,4.8-9.2,5.4t-12.38.6h-16q-9.6,0-12.39-7.61l-31.61-98c-1.34-1.6-2.67-1.86-4-.8l-3.2,7.21-29.2,92.4q-2,5.6-5.6,6.79-18.4.8-37.21,0-4.8-2-8.4-12-17.2-47.19-51.6-141.2a15,15,0,0,0-7.4-8q-5.4-2.79-10.6-5.6-4.8-9.6-.4-25.6,1.2-1.59,4.8-2.4h65.2Q274.27,1178.91,286.28,1179.71Z"/><path class="cls-2" d="M575,1093.31c2.7.27,4.74,2,6.09,5.2v92.8c.26,1.34.93,2,2,2q32.69-16.8,55-16.8a56.88,56.88,0,0,1,25.91,6q25.5,12.83,25.5,54.53v96.63c-.27,3.22.8,5.35,3.2,6.42q2.79.41,7.8-2.8t7.4-3.2c1.86,0,3.73.94,5.6,2.8q5.6,6,5.6,9.6,0,9.6-12.4,18.4-10.8,7.6-21.2,9.6a72.24,72.24,0,0,1-14.8,1.6q-24.4,0-37.2-16.4-8-10.8-8-34v-92.4a17.74,17.74,0,0,0-7.6-11.6,19.45,19.45,0,0,0-8.8-2,22.88,22.88,0,0,0-15.6,6q-12.4,10.41-12.4,38.8v73.2q2,2,10.21,3.2t9.79,6a62,62,0,0,1-.4,23.2q-2.4,3.6-14.4,3.6h-82.4q-6-.8-6.8-4.8-1.6-18.39,1.6-24,2-2.4,10.4-3.6,7.2-1.2,8.8-6v-208.8q-1.61-2-11.6-5.2-7.2-2.79-6.4-10v-10q.4-6,4.88-8,8.12,0,24.35-.8Z"/><path class="cls-2" d="M898.67,1226.51q10.8,25.6,10.8,36.8,0,6.81-16,13.2-19.2,7.6-58.4,20l-34.4,9.2a4.76,4.76,0,0,0-3.2,3.6,36.9,36.9,0,0,0,11.8,25.4q11,10.61,25.4,10.6,17.6,0,40-16.8,4.4-3.6,9-7.8t9.8-3q11.19,6,12,15.2-2.81,13.6-26.4,30t-56.4,16.4q-24.4,0-44-9.6-25.2-12-39.6-37.2-13.2-23.19-14-51.6a111.17,111.17,0,0,1,12.2-54.6,95.34,95.34,0,0,1,37.8-39.8q18.39-11.19,42.8-11.2,30,0,52,15.6A80.24,80.24,0,0,1,898.67,1226.51Zm-87.2-18q-14,5.21-19.2,25.6-5.61,22.8-.4,37.2,3.2,4.8,7.2,4,26.79-6,45.6-14.8a10.2,10.2,0,0,0,2.8-8.4q-.4-19.59-8-34-6-11.19-20-11.2A21.49,21.49,0,0,0,811.47,1208.51Z"/><path class="cls-2" d="M1105.47,1193.31q12,13.61,12.4,32.8,0,36.81.4,110c0,2.67,1.06,4.27,3.2,4.8,1.6-.26,4.06-1.4,7.4-3.4s5.8-3,7.4-3q3.2,0,5.6,3.2,6.39,6,5.2,10.8-4,16-26.8,24.8-18.81,7.2-36,1.2-9.21-1.6-17.6-9.4t-10.8-17l-1.6-10.8v-80q.2-8.79.4-17.6,0-10.8-6-15.6t-14.4-3.6q-18.81,3.63-22.8,23.32-.81,10.47-1.6,92.48.39,4,5.6,4.83c4.8.54,7.46.94,8,1.2q5.6,1.62,6.4,5.23.8,20.52-1.6,24.53l-3.2,2q-31.6,0-94,.4-6.41-1.6-6.8-9.64v-13.25q.79-6,4.4-7.63.8-.4,10.4-2,6.39-1.18,6.8-6.42V1216.66q-1.61-3.21-7.6-4.22t-7.2-4.22q-1.61-18.46,1.2-23.69l4.8-3.22q16.39-.39,66,0,3.2.81,8.4,11.6,2,.81,8-2.4,24-12.79,47.6-12.8Q1091.46,1177.71,1105.47,1193.31Z"/><path class="cls-2" d="M1391.06,1179.71q4.39,1.2,5.2,7.2v9.6q.39,3.6-2.8,9.2l-9.6,4q-6,2.4-6.8,7.2,3.6,16.41,13.2,40.4,8.4,20,16.4,39.6c.8,1.6,1.86,1.87,3.2.8l2-3.2,25.2-74q.8-6.79-2.4-9.2a3.62,3.62,0,0,0-3.2-1.8c-1.6-.13-2.67-.6-3.2-1.4q-8.4-2.79-8.8-7.6v-11.6q.39-6,4.4-9.2l7.6-.8q20.79.4,59.2.4,5.19,0,7.2,4.4,3.6,11.2-.8,20.8-6.4,2-17.6,9.6l-4.8,8.8-41.6,107.6q-8.8,23.21-17.6,46.4-10.8,26.8-22,44.8-19.61,31.2-54,28.4-24.81-2-35.2-22a32.88,32.88,0,0,1-4.4-16.8,25.25,25.25,0,0,1,4.8-15.6q9.19-13.2,26-10.4,5.6.8,14.2,10t14.6,9.2a11.75,11.75,0,0,0,7.2-2.8q8.79-8.4,8.8-22.8a47.53,47.53,0,0,0-4.8-20.8l-61.6-139.6q-2-4.8-9.8-8t-9.4-8c0-.8-.14-3.6-.4-8.4a23.67,23.67,0,0,1,0-8.8,9.79,9.79,0,0,1,4.4-6.4h5.2Z"/><path class="cls-2" d="M1687.06,1225.71a102.21,102.21,0,0,1,11.6,48.4q0,40.8-24,69.2-28.41,33.6-76.8,33.6a110.65,110.65,0,0,1-35.2-5.6q-26.81-9.19-44.6-33.4t-19-52.2l-1.6-1.6h1.2q-1.2-30.39,11.6-56a94.79,94.79,0,0,1,39.6-41.6q22-12.39,50-12.4,36.39,0,61.6,19.6Q1676.65,1205.32,1687.06,1225.71Zm-97.2-17.2q-14.4,4.8-20,21.2-2.8,8.8-4.8,31.2,1.2,26.8,4,40,4.39,21.6,16.4,35.2,10.8,9.21,24.8,6,14.4-5.19,18.4-17.6,5.19-14.79,5.2-33.6,0-28.4-10.4-59.2a39,39,0,0,0-10.4-16.6q-7.61-7.39-16.8-7.4A26.4,26.4,0,0,0,1589.86,1208.51Z"/><path class="cls-2" d="M1781.09,1179.71a8.22,8.22,0,0,1,6.77,6.82v131.94q0,10,10.49,14.44a18.44,18.44,0,0,0,6.46,1.2q12.5,0,21-11.6,4.44-6,6.46-17.6v-84c-.26-1.86-.52-3.8-.77-5.8a4.14,4.14,0,0,0-3-3.8q-2.65-.8-5.88-1.6a5.49,5.49,0,0,1-4.17-3.2q-1-2.4-1-20.8a7.51,7.51,0,0,1,6.8-6.4q31.2-.39,64,.4,5.6.4,7,5t1.8,24.6q-.81,42.4,0,124.8c.78,2.67,2.23,4.27,4.33,4.8q2.37.4,6.51-2.2t6.51-2.6a6.76,6.76,0,0,1,4.73,2.4,17.16,17.16,0,0,1,6.32,9.6q-1.2,15.21-24.4,26a47.81,47.81,0,0,1-20,4,50.73,50.73,0,0,1-25.6-6.4q-1.61-.39-10.4-8-6.4-4.8-12-3.6-33.21,18-57.2,18a55.29,55.29,0,0,1-26.4-6.4q-23.61-12-24.8-39.6-.4-14-.4-115.6-2-2.4-7.8-3.6t-7-4.8q-2-13.59,1.19-22.8,2-3.6,10.35-4Z"/><path class="cls-2" d="M2181.45,1185.71a13,13,0,0,0,3.2.4,9.76,9.76,0,0,0,6.4-2.8q3.19-2.79,6-5.6,13.2-2.4,16.8,3.6a158.84,158.84,0,0,1,4.4,26l2.4,26.4q-1.2,11.61-21.2,9.2a37.28,37.28,0,0,1-6.8-8.8q-4.8-8-6.4-10-14-17.19-28.8-17.2-13.2,0-17.6,8.4-5.2,10,1.6,19.2,9.2,8.4,28,14.4,22,6.81,29.6,11.6,29.6,14.4,30.8,46.8a66.26,66.26,0,0,1-8.4,34,59.11,59.11,0,0,1-24.8,24.4q-17.21,9.21-39.2,9.2a83.68,83.68,0,0,1-28.8-4.8q-15.2-5.59-18.4-5.6a16.43,16.43,0,0,0-5.2.8q-4,2.81-8.4,5.8a11.62,11.62,0,0,1-8.8,2.2q-4,.39-10.4-2.8-4-6-6-29.2l-3.6-37.6q.8-5.6.8-6.4a6.08,6.08,0,0,1,4.4-4q14-4,20,1.22,12,30.65,28.4,39.92,14.4,8.05,27.6,8.06,11.2,0,18.8-6.41a15.26,15.26,0,0,0,5.2-11.63q0-10-14.4-16.84-45.6-21.24-48.8-23.26-26.8-16.83-31.6-41.3a69.56,69.56,0,0,1-1.2-12.83q0-26.06,20-42.1,16.39-12.83,41.6-12.83,19.2,0,34.4,7.2Z"/><path class="cls-2" d="M2327.85,1183.71q2,3.6,2,16v136.8c.8,2.67,3.06,4.27,6.8,4.8,5.86.8,9.06,1.34,9.6,1.6q3.6,1.6,4,7.6t.4,12.4q-.41,7.2-5.6,9.6l-8.4,1.2q-9.6,0-44,.4h-43.6a7.49,7.49,0,0,1-5.6-4q-.81-5.61,0-21.65,1.59-5.2,10.2-6t10.6-5.61V1224.61q0-9.63-2.8-12-1.2-.81-8.4-2.8c-3.47-.81-5.74-2.41-6.8-4.82q-1.2-6,0-18.84,1.2-4.8,6.8-5.61h63.2Q2323.84,1178.92,2327.85,1183.71Zm-12.2-81.8a34.76,34.76,0,1,1-24.6-10.2A33.53,33.53,0,0,1,2315.65,1101.91Z"/><path class="cls-2" d="M2542.65,1150.11q5.59,14-1,22.6t-29.09,12.2a7.11,7.11,0,0,0-4.35,4.8q0,2.8,3,5.2t5.8,4.4q25.59,23.2,25.6,54a67.14,67.14,0,0,1-2.79,18.8q-4.79,18-20.53,32.8a90.4,90.4,0,0,1-34.47,20.8q-22.72,7.61-49.83,2a7.3,7.3,0,0,0-5.18,5.2,9,9,0,0,0,3.59,9q4.38,3.4,17.94,5,31.5,0,39.46.4,21.93,2,36.69,10,22.32,15.21,22.32,40.4a58.67,58.67,0,0,1-.8,9.6q-7.61,40-66.4,52a140,140,0,0,1-29.6,3.2q-44,0-76.4-25.2-13.2-13.2-13.2-24a19.19,19.19,0,0,1,1.2-6.8,16.82,16.82,0,0,1,8.4-11.2,27.3,27.3,0,0,1,11.6-2.8q11.19,0,26.4,12.53,19.59,16.57,24.4,19a59.3,59.3,0,0,0,26.4,6.06q13.2,0,22.8-5.67,7.2-6.09,7.2-10.14a15.8,15.8,0,0,0-1.6-7.71q-2.8-3.64-16.4-6.08-31.6,0-45.6-3.2-24-5.61-36.8-23.6a34.67,34.67,0,0,1-6.8-21.2,32.31,32.31,0,0,1,4.4-17.2q4.39-7.2,14.8-14.8,1.59-2.4-1.2-4-34-23.6-34-63.6a85.15,85.15,0,0,1,1.2-14q3.58-21.2,21.34-38.6t39.72-22.2q21.95-5.19,49.48,1.2.8,0,3.6-4,4.77-28.8,22.74-35.6a41.62,41.62,0,0,1,14-2.4Q2537.86,1137.31,2542.65,1150.11Zm-90,58.4q-9.21.81-13.6,6.4-9.21,10.8-9.2,28.8a76.55,76.55,0,0,0,9.6,37.2q7.59,14.4,20.8,13.6,6-.39,11.6-5.6,8.79-10.8,8.8-28.8a94.5,94.5,0,0,0-4.4-27.6Q2465.84,1209.32,2452.65,1208.51Z"/><path class="cls-2" d="M2747.45,1193.31q12,13.61,12.4,32.8,0,36.81.4,110c0,2.67,1.06,4.27,3.2,4.8,1.6-.26,4.06-1.4,7.4-3.4s5.8-3,7.4-3q3.2,0,5.6,3.2,6.39,6,5.2,10.8-4,16-26.8,24.8-18.81,7.2-36,1.2-9.21-1.6-17.6-9.4t-10.8-17l-1.6-10.8v-80q.2-8.79.4-17.6,0-10.8-6-15.6t-14.4-3.6q-18.81,3.63-22.8,23.32-.81,10.47-1.6,92.48.39,4,5.6,4.83c4.8.54,7.46.94,8,1.2q5.6,1.62,6.4,5.23.8,20.52-1.6,24.53l-3.2,2q-31.61,0-94,.4-6.4-1.6-6.8-9.64v-13.25q.8-6,4.4-7.63.79-.4,10.4-2,6.39-1.18,6.8-6.42V1216.66q-1.6-3.21-7.6-4.22t-7.2-4.22q-1.61-18.46,1.2-23.69l4.8-3.22q16.39-.39,66,0,3.19.81,8.4,11.6,2,.81,8-2.4,24-12.79,47.6-12.8Q2733.44,1177.71,2747.45,1193.31Z"/><path class="cls-2" d="M2866.68,1179.71a8.22,8.22,0,0,1,6.76,6.82v131.94q0,10,10.49,14.44a18.44,18.44,0,0,0,6.46,1.2q12.51,0,21-11.6,4.44-6,6.46-17.6v-84c-.26-1.86-.51-3.8-.76-5.8a4.14,4.14,0,0,0-3-3.8c-1.78-.53-3.73-1.06-5.88-1.6a5.51,5.51,0,0,1-4.18-3.2q-1-2.4-.95-20.8a7.51,7.51,0,0,1,6.8-6.4q31.2-.39,64,.4,5.6.4,7,5t1.8,24.6q-.81,42.4,0,124.8c.79,2.67,2.23,4.27,4.34,4.8q2.36.4,6.5-2.2t6.52-2.6a6.79,6.79,0,0,1,4.73,2.4,17.2,17.2,0,0,1,6.31,9.6q-1.2,15.21-24.4,26a47.81,47.81,0,0,1-20,4,50.73,50.73,0,0,1-25.6-6.4q-1.61-.39-10.4-8-6.41-4.8-12-3.6-33.21,18-57.2,18a55.29,55.29,0,0,1-26.4-6.4q-23.61-12-24.8-39.6-.4-14-.4-115.6-2-2.4-7.8-3.6t-7-4.8q-2-13.59,1.19-22.8,2-3.6,10.35-4Z"/><path class="cls-2" d="M3211.64,1233.31a123.38,123.38,0,0,1,9,46.4q0,44.4-28.7,70.8t-64.8,26.4a76.43,76.43,0,0,1-29.29-5.6q-3.61.4-4,3.58v40.62q0,7.15,9.8,9.15t9.8,9.16l.4,10.35c0,4.24-.67,7.43-2,9.55q-4.8,3.19-27.2,2.79H3021q-6.81-1.6-8-5.19,0-1.2-.8-8.79a28.94,28.94,0,0,1,.4-8.79,10.15,10.15,0,0,1,4.4-7.18c.8-.8,3.73-1.74,8.8-2.8q5.6-.81,6.8-5.19.39-67.11,1.6-201.31-1.2-3.59-8.6-6.19t-7.4-8.19V1191.7c.26-4.52,1.86-7.46,4.8-8.79q16.8,0,52.4-.8h9.6c4,0,6.93.94,8.8,2.8q.39,3.6,4.4,8.4,24.39-14,43.2-14,22.39,0,42.4,16.4A91.52,91.52,0,0,1,3211.64,1233.31Zm-92.2-14.4q-7.61.81-14.2,7.2a30.22,30.22,0,0,0-8.6,14,160.2,160.2,0,0,0-5.2,42,185.68,185.68,0,0,0,2,27.2q5.59,36.81,31.6,36.8a25.34,25.34,0,0,0,19.2-8q12.39-15.19,12.4-42.8a224,224,0,0,0-1.6-23.6q-3.21-29.6-13.2-43.2Q3133.83,1217.71,3119.44,1218.91Z"/><path class="cls-2" d="M441,1765.19q6.39,10.79,6.4,21.59a28.32,28.32,0,0,1-2.8,12.8q-8.4,18-30,19.2-13.6.4-20-10.79-.4-.81-4-18.41-2.4-11.19-12.4-11.59-6.81-.81-12,10.39a52.84,52.84,0,0,0-2.4,16q0,14.8,6.4,23.61,4,5.19,15.6,5t14.8,5.79q.39,17.21,0,20.41-4,4-13.6,4.39-11.21,0-14.8,2t-3.6,13.2q0,36,1.2,109.21,2,3.19,13.6,6,9.19,2.38,8.4,11.2,0-2,.4,10,0,6.39-3.6,8.8-10.8,1.59-48.4,1.59l-45.6-.39q-6-.81-6.8-4.81-2-14,.8-22,2-3.59,13.2-5.6,8.4-2,7.2-10V1874q0-7.2-4.88-9.21-.81-.39-12.21-1.2c-3.25-.26-5.56-1.46-6.91-3.59a56.45,56.45,0,0,1,0-21.21q1.59-6,12.4-6.2t12-6.59q9.6-50,37.2-69.21,8.4-9.19,29.6-14a77.63,77.63,0,0,1,17.2-2Q426.18,1740.78,441,1765.19Z"/><path class="cls-2" d="M613,1876.78a102.22,102.22,0,0,1,11.6,48.41q0,40.79-24,69.19-28.41,33.6-76.8,33.61a110.38,110.38,0,0,1-35.2-5.61q-26.8-9.2-44.6-33.39t-19-52.21l-1.6-1.59h1.2q-1.2-30.4,11.6-56a94.82,94.82,0,0,1,39.6-41.61q22-12.39,50-12.39,36.39,0,61.6,19.59Q602.59,1856.39,613,1876.78Zm-97.2-17.2q-14.4,4.8-20,21.2Q493,1889.59,491,1912q1.2,26.79,4,40,4.39,21.59,16.4,35.2,10.8,9.19,24.8,6,14.4-5.2,18.4-17.61,5.19-14.79,5.2-33.59,0-28.41-10.4-59.21a38.86,38.86,0,0,0-10.4-16.59q-7.61-7.41-16.8-7.41A26.4,26.4,0,0,0,515.79,1859.58Z"/><path class="cls-2" d="M803.39,1846.78q7.2,11.61,8,27.21-1.2,6.39-8,9t-12.8,4.59q-1.2,0-11.2,3.61a41.64,41.64,0,0,1-11.2,2,19.42,19.42,0,0,1-6.8-1.2q-2.8-5.61-5.6-11.61-4-6.39-10.4-6.8-7.2-.39-14,6-9.6,12.81-9.2,44.41l.8,64.39c1.33,1.61,4.2,2.67,8.6,3.2s7.33,1.67,8.8,3.41a12.32,12.32,0,0,1,2.6,7,61.55,61.55,0,0,1,.4,8c-.27,4-.4,6.66-.4,8q-.81,5.19-4.8,6l-15.2.79H645q-4.8,0-6-5.59-.4-12.81,0-19.61,1.59-4.8,10-6.2t10.8-5v-115.6q0-7.18-3.5-8t-6.77-1.4A5.68,5.68,0,0,1,645,1860a90.69,90.69,0,0,1-.82-20.8,9.51,9.51,0,0,1,5.6-6q22-.4,64.8-.41,3.2-.39,8,3.6.79,3.21,2.8,9.61,19.59-20,41.6-20Q791.38,1826,803.39,1846.78Z"/><path class="cls-2" d="M1139,1876.78a102.22,102.22,0,0,1,11.6,48.41q0,40.79-24,69.19-28.39,33.6-76.8,33.61a110.38,110.38,0,0,1-35.2-5.61q-26.8-9.2-44.6-33.39t-19-52.21l-1.6-1.59h1.2q-1.2-30.4,11.6-56a94.87,94.87,0,0,1,39.6-41.61q22-12.39,50-12.39,36.39,0,61.6,19.59Q1128.57,1856.39,1139,1876.78Zm-97.2-17.2q-14.4,4.8-20,21.2-2.81,8.81-4.8,31.21,1.2,26.79,4,40,4.39,21.59,16.4,35.2,10.8,9.19,24.8,6,14.4-5.2,18.4-17.61,5.19-14.79,5.2-33.59,0-28.41-10.4-59.21a38.86,38.86,0,0,0-10.4-16.59q-7.61-7.41-16.8-7.41A26.4,26.4,0,0,0,1041.78,1859.58Z"/><path class="cls-2" d="M1233,1830.78a8.23,8.23,0,0,1,6.76,6.82v132q0,10,10.5,14.44a18.61,18.61,0,0,0,6.45,1.2q12.51,0,21-11.61,4.43-6,6.45-17.59v-84c-.25-1.87-.51-3.8-.76-5.8a4.15,4.15,0,0,0-3-3.81c-1.78-.53-3.73-1.06-5.88-1.6a5.49,5.49,0,0,1-4.18-3.2q-.94-2.38-.95-20.8a7.52,7.52,0,0,1,6.8-6.4q31.2-.39,64,.4c3.73.27,6.07,1.94,7,5s1.53,11.27,1.8,24.6q-.8,42.4,0,124.81c.79,2.66,2.23,4.26,4.34,4.8,1.58.26,3.74-.47,6.51-2.21s4.93-2.59,6.51-2.59a6.8,6.8,0,0,1,4.73,2.39,17.2,17.2,0,0,1,6.31,9.61q-1.2,15.19-24.4,26a47.93,47.93,0,0,1-20,4,50.66,50.66,0,0,1-25.6-6.41q-1.61-.39-10.4-8-6.4-4.8-12-3.59-33.2,18-57.2,18a55.18,55.18,0,0,1-26.4-6.41q-23.6-12-24.8-39.59-.4-14-.4-115.61c-1.33-1.59-3.93-2.8-7.8-3.59s-6.2-2.41-7-4.8q-2-13.61,1.2-22.81,2-3.59,10.35-4Z"/><path class="cls-2" d="M1549.78,1846.78q7.2,11.61,8,27.21-1.2,6.39-8,9t-12.8,4.59q-1.2,0-11.2,3.61a41.64,41.64,0,0,1-11.2,2,19.42,19.42,0,0,1-6.8-1.2q-2.8-5.61-5.6-11.61-4-6.39-10.4-6.8-7.2-.39-14,6-9.6,12.81-9.2,44.41l.8,64.39c1.33,1.61,4.2,2.67,8.6,3.2s7.33,1.67,8.8,3.41a12.32,12.32,0,0,1,2.6,7,61.55,61.55,0,0,1,.4,8c-.27,4-.4,6.66-.4,8q-.81,5.19-4.8,6l-15.2.79h-78q-4.8,0-6-5.59-.41-12.81,0-19.61,1.59-4.8,10-6.2t10.8-5v-115.6c0-4.79-1.17-7.46-3.49-8s-4.59-1-6.78-1.4a5.68,5.68,0,0,1-4.51-3.39,90.69,90.69,0,0,1-.82-20.8,9.51,9.51,0,0,1,5.6-6q22-.4,64.8-.41,3.19-.39,8,3.6.8,3.21,2.8,9.61,19.59-20,41.6-20Q1537.77,1826,1549.78,1846.78Z"/><path class="cls-2" d="M1871,1877.58q10.8,25.61,10.79,36.8,0,6.81-16,13.2-19.18,7.61-58.39,20l-34.4,9.2a4.79,4.79,0,0,0-3.21,3.6,37,37,0,0,0,11.81,25.4q11,10.6,25.4,10.6,17.6,0,40-16.8c2.93-2.39,5.93-5,9-7.8s6.33-3.79,9.79-3q11.2,6,12,15.21-2.79,13.59-26.39,30t-56.4,16.39q-24.4,0-44-9.6-25.2-12-39.6-37.2-13.2-23.19-14-51.59a111.19,111.19,0,0,1,12.2-54.61,95.4,95.4,0,0,1,37.8-39.8q18.39-11.19,42.8-11.2,30,0,52,15.61A80.16,80.16,0,0,1,1871,1877.58Zm-87.21-18q-14,5.2-19.19,25.61-5.61,22.79-.4,37.19,3.19,4.8,7.2,4,26.79-6,45.6-14.8a10.15,10.15,0,0,0,2.79-8.39q-.39-19.61-8-34-6-11.2-20-11.2A21.56,21.56,0,0,0,1783.77,1859.58Z"/><path class="cls-2" d="M2079.37,1852.78q2.4,2.4,4.8.41,24-22.41,55.2-22.41a78.43,78.43,0,0,1,19.2,2.41,44.59,44.59,0,0,1,20.8,13,41.49,41.49,0,0,1,11.2,21.8q2.79,17.19,2.4,40.79-1.06,20.81-1.6,41.6v38.81q.8,4,3.6,5.19,2.79,0,7.4-3.19c3.06-2.14,5.4-3.2,7-3.2a5.28,5.28,0,0,1,3.2,1.2q9.6,6.8,8.4,12.39-4.75,20-31.33,26.41a76.4,76.4,0,0,1-17,2q-25.78,0-37.67-18-6-9.62-6.75-26.41v-28.39q.39-23.2,0-69.2-.4-9.21-10.19-13.21-8.57-2.79-15.5,1.6-15.92,10-15.91,38V1988q2.4,2.79,9.2,3.59t9,3.61a13.37,13.37,0,0,1,2.6,7.19,48.93,48.93,0,0,1,0,8.81q-.4,6.8-.4,8.39-1.6,4-6.6,4.41l-9.8.79h-52.4a49.1,49.1,0,0,1-8.4-.4,10.41,10.41,0,0,1-6.8-4l-.8-9.6q-1.61-23.6-.4-61.59,1.2-47.61.8-61.2-2.4-10.41-9.6-13.61-10-4.39-18.4,3.62-12,11.67-12,37.4V1987q1.2,4,6.4,4.42c4.8.54,7.6,1.07,8.4,1.61q5.19,3.23,5.6,11.26c0,4.82-.14,9.52-.4,14.07q-.4,3.63-5.2,6l-94.4.4a8.56,8.56,0,0,1-6.4-5.63q-1.6-18.92,2-24.15a18.62,18.62,0,0,1,8-2.81,44.56,44.56,0,0,0,9-2.22q2.19-1,2.2-12.28,1.2-61.17.8-110.28-.81-4-7.6-5.63c-4.54-1.08-7.07-3.22-7.6-6.45v-14.08q.39-8.85,7.2-10.47,24-.39,63.2.42c4.26.27,7.2,2.48,8.8,6.6q0,2.07,2.4,5.78a25.6,25.6,0,0,0,8.4-2.8q6.39-2.79,8-3.59,20.79-6.4,36-6.41,18.8,0,30.4,9.21A126.9,126.9,0,0,1,2079.37,1852.78Z"/><path class="cls-2" d="M2390.57,1866.78q9.6,22.82,10.4,58v59.6q0,2,2.8,5.2c1.86.27,4.2-.46,7-2.2s5-2.6,6.6-2.6a6.5,6.5,0,0,1,2.8.8q8.79,7.2,9.2,13.61-8,18-32,24.8-6.81,2-19.6,2.79a72.74,72.74,0,0,1-9.2-2q-7.2-1.18-15.6-8l-12.8-12q-3.21.81-8,5.21a37.87,37.87,0,0,1-7.2,5.59q-16.8,12.4-40.8,12.41-17.61,0-30.8-6.8-25.2-12.81-25.2-44.41a60.19,60.19,0,0,1,.8-10q4.8-29.6,36-45.59,14-7.21,58.4-18.81,8-2.4,10.2-7a23.38,23.38,0,0,0,2.2-10.19q0-10.8-5.6-18.41-7.2-8.38-16-8-13.2.81-18.4,12.8-2,7.61-9.2,22.41a10.29,10.29,0,0,1-5.2,2q-2,0-6-.41c-2.67-.26-4.4-.39-5.2-.39q-8.8-2.42-17.2-4.41-9.6-3.6-12-12-2.8-26.38,28-43.2,20.79-11.19,47.6-11.2,28.39,0,48.4,12.81Q2383,1848.38,2390.57,1866.78Zm-71.6,66q-17.2,4.41-25.6,16.41a28.81,28.81,0,0,0-5.6,17.59,26.4,26.4,0,0,0,2.8,12q6.79,11.21,21.2,9.6,16.39-1.59,22-12,6.8-16,2.8-43.19c-.8-3.2-2.94-4.81-6.4-4.81Q2324.56,1928.38,2319,1932.78Z"/><path class="cls-2" d="M2520.57,1834.78q2,3.62,2,16v136.8c.8,2.67,3.06,4.27,6.8,4.8,5.86.81,9.06,1.34,9.6,1.61q3.6,1.59,4,7.59t.4,12.41c-.27,4.79-2.14,8-5.6,9.59l-8.4,1.2q-9.6,0-44,.41h-43.6a7.47,7.47,0,0,1-5.6-4q-.81-5.61,0-21.65,1.59-5.21,10.2-6t10.6-5.61V1875.68c0-6.41-.94-10.43-2.8-12q-1.2-.8-8.4-2.8-5.2-1.2-6.8-4.82-1.2-6,0-18.83,1.2-4.82,6.8-5.62H2509Q2516.56,1830,2520.57,1834.78Zm-12.2-81.79a34.74,34.74,0,1,1-24.6-10.21A33.5,33.5,0,0,1,2508.37,1753Z"/><path class="cls-2" d="M2637.77,1742.38q5.19.81,6.8,7.2l-1.2,45.2v192q2,4,12.4,6,8.79,1.6,9.2,8.21t.8,13q-.41,7.59-6,10-16.8,0-50.4.79-14.4.4-42.8-.79c-2.67.26-4.6-1.27-5.8-4.61s-1.67-9.53-1.4-18.6q1.23-6,8.28-8c3.87-1.06,7.87-2,12-2.79q2.89-2.41,2.9-10.8V1776.78q-1.2-4-8.2-5.4T2566,1766q-1.41-4-.6-19.21.8-4,7.2-5.2Z"/><path class="cls-2" d="M2901.76,1742.38q5.19.81,6.8,7.2l-1.2,45.2v192q2,4,12.4,6,8.79,1.6,9.2,8.21t.8,13q-.41,7.59-6,10-16.8,0-50.4.79-14.4.4-42.8-.79c-2.67.26-4.6-1.27-5.8-4.61s-1.67-9.53-1.4-18.6q1.24-6,8.29-8c3.86-1.06,7.87-2,12-2.79q2.9-2.41,2.9-10.8V1776.78q-1.2-4-8.2-5.4T2830,1766q-1.41-4-.6-19.21.79-4,7.2-5.2Z"/><path class="cls-2" d="M3031.36,1834.78q2,3.62,2,16v136.8c.8,2.67,3.06,4.27,6.8,4.8,5.86.81,9.06,1.34,9.6,1.61q3.6,1.59,4,7.59t.4,12.41c-.27,4.79-2.14,8-5.6,9.59l-8.4,1.2q-9.6,0-44,.41h-43.6a7.47,7.47,0,0,1-5.6-4q-.81-5.61,0-21.65,1.59-5.21,10.2-6t10.6-5.61V1875.68c0-6.41-.94-10.43-2.8-12q-1.2-.8-8.4-2.8-5.2-1.2-6.8-4.82-1.2-6,0-18.83,1.2-4.82,6.8-5.62h63.2Q3027.35,1830,3031.36,1834.78Zm-12.2-81.79a34.74,34.74,0,1,1-24.6-10.21A33.5,33.5,0,0,1,3019.16,1753Z"/><path class="cls-2" d="M3179.36,1836.78a12.94,12.94,0,0,0,3.2.41,9.79,9.79,0,0,0,6.4-2.81q3.2-2.79,6-5.6,13.2-2.38,16.8,3.6a158.84,158.84,0,0,1,4.4,26l2.4,26.4q-1.2,11.61-21.2,9.21a37.22,37.22,0,0,1-6.8-8.8q-4.8-8-6.4-10-14-17.2-28.8-17.2-13.2,0-17.6,8.39-5.21,10,1.6,19.2,9.19,8.42,28,14.41,22,6.79,29.6,11.59,29.6,14.42,30.8,46.8a66.46,66.46,0,0,1-8.4,34,59.11,59.11,0,0,1-24.8,24.4q-17.2,9.21-39.2,9.21a83.92,83.92,0,0,1-28.8-4.8q-15.21-5.61-18.4-5.61a16.43,16.43,0,0,0-5.2.8q-4,2.8-8.4,5.81a11.57,11.57,0,0,1-8.8,2.19q-4,.4-10.4-2.8-4-6-6-29.2l-3.6-37.6q.79-5.6.8-6.4a6.06,6.06,0,0,1,4.4-4q14-4,20,1.22,12,30.64,28.4,39.92,14.4,8.07,27.6,8.06,11.19,0,18.8-6.41a15.28,15.28,0,0,0,5.2-11.63q0-10-14.4-16.84-45.6-21.24-48.8-23.25-26.81-16.85-31.6-41.3a69.72,69.72,0,0,1-1.2-12.83q0-26.07,20-42.1,16.39-12.83,41.6-12.84,19.2,0,34.4,7.2Z"/><path class="cls-2" d="M3315.39,1774l2.77,4.39v47.2q2,4.8,9,6h11.48a18.79,18.79,0,0,1,5.75.8c3.55,2.14,5.34,6.14,5.34,12q0-3.59-1.2,14-2.4,4-8.6,4.4t-11.8.41a41.69,41.69,0,0,0-5.2.8,6,6,0,0,0-3.6,3.59q-1.2,7.2-1.2,48v64a43.9,43.9,0,0,0,1.6,4.8,5.75,5.75,0,0,0,4,3.2q4.8.81,10.8-5.2t9.2-6a9.14,9.14,0,0,1,5.2,2q8.79,10.08,8.8,14.11a10.81,10.81,0,0,1-1.2,4.84q-14.8,26.2-46.8,30.23l-5.2.41q-6.41,0-18-3.61-4-2-12.4-5.61-16-12.82-16-36.46v-105c0-6.95-.55-11.75-1.65-14.43-1.1-1.06-3.37-2.2-6.79-3.4s-5.41-3-6-5.41q-2-14,2-22,4.74-1.2,14.64-4.41,14.64-5.2,23.34-21.23,5.15-9.21,11.48-30Q3300.73,1768.38,3315.39,1774Z"/></g></svg>