<svg xmlns="http://www.w3.org/2000/svg" viewBox="0 0 3840 1931.7"><defs><style>.cls-1{fill:#005d1f;stroke:#fff;stroke-miterlimit:10;}.cls-2{fill:#fff;}</style></defs><g id="Layer_1" data-name="Layer 1"><rect class="cls-1" width="3840" height="1931.7"/><path class="cls-2" d="M582.91,1707q1,.15,2.7,3.45l1.95,6.6q6.15,20.85,25.8,79.5.9,2.85,6.75,4.8a5,5,0,0,1,1.35,3.9c0,1.5-.06,3-.15,4.5q-.15,2.7-1.8,3.3l-3,.45-36.45-.15a2.24,2.24,0,0,1-2.25-2.4q0-.6-.3-3.3a9,9,0,0,1,0-3.3,3.38,3.38,0,0,1,1.5-2.4q1.8-.6,3.75-1.35a2.49,2.49,0,0,0,1.8-2.7q-1.21-5.4-4.35-14.7a3.39,3.39,0,0,0-2.7-1.5l-3.45-.3h-21.6a3.46,3.46,0,0,0-3.15,2.09l-3.9,13.28c-.1,1.6.87,2.79,2.92,3.59s3.28,1.69,3.68,2.69a17.41,17.41,0,0,1-.6,9.1q-.6.75-5.55,1.35l-19.35-.15q-2.25-.9-2.25-4.17c0-1.79,0-3.57.15-5.36.2-1.19,1.22-2.16,3.07-2.9s3-1.72,3.38-2.91l1.8-5.06q9.3-28.2,28.8-84.3.45-1.35,3.9-1.8ZM564.6,1735.6q-6.71,20-10.13,32c.1.49.89.93,2.39,1.33q16.42,0,17.33-.15c1-.6,1.39-1.2,1.19-1.8q-3-10.64-9.62-32.09C565.18,1734.66,564.79,1734.91,564.6,1735.6Z"/><path class="cls-2" d="M742.21,1749a1.2,1.2,0,0,0,1.8.15,29.6,29.6,0,0,1,27.9-7.5,16.82,16.82,0,0,1,7.8,4.87,15.7,15.7,0,0,1,4.2,8.18,89.38,89.38,0,0,1,.9,15.3q-.4,7.8-.6,15.6v14.55a2.41,2.41,0,0,0,1.35,2,5.43,5.43,0,0,0,2.77-1.2,5.42,5.42,0,0,1,2.63-1.2,2,2,0,0,1,1.2.45q3.6,2.55,3.15,4.65-1.78,7.5-11.75,9.9a28.69,28.69,0,0,1-6.4.75q-9.66,0-14.13-6.75c-1.48-2.4-2.33-5.7-2.52-9.9V1788.1q.13-8.7,0-25.95c-.11-2.3-1.38-4-3.83-5a6.54,6.54,0,0,0-5.81.6q-6,3.75-6,14.25v27.6a5.27,5.27,0,0,0,3.45,1.35c1.69.2,2.82.65,3.37,1.35a5.09,5.09,0,0,1,1,2.7,19.83,19.83,0,0,1,0,3.3c-.11,1.7-.15,2.75-.15,3.15a2.66,2.66,0,0,1-2.48,1.65l-3.67.3H726.76a18.43,18.43,0,0,1-3.15-.15,3.9,3.9,0,0,1-2.55-1.5l-.3-3.6q-.62-8.85-.15-23.1.45-17.85.3-22.95-.9-3.9-3.6-5.1a5.86,5.86,0,0,0-6.9,1.35q-4.5,4.38-4.5,14v26.84a2.38,2.38,0,0,0,2.4,1.66,10.83,10.83,0,0,1,3.15.6,4.92,4.92,0,0,1,2.1,4.23c0,1.81-.06,3.57-.15,5.28a3.08,3.08,0,0,1-1.95,2.26l-35.4.15a3.22,3.22,0,0,1-2.4-2.12c-.41-4.72-.15-7.74.75-9a6.9,6.9,0,0,1,3-1.06,16.22,16.22,0,0,0,3.37-.83c.55-.25.83-1.78.83-4.6q.45-22.95.3-41.36c-.21-1-1.16-1.71-2.85-2.11s-2.66-1.21-2.85-2.42v-5.28q.13-3.31,2.7-3.92,9-.15,23.7.15a3.58,3.58,0,0,1,3.3,2.48,4.54,4.54,0,0,0,.9,2.17,9.66,9.66,0,0,0,3.15-1q2.38-1,3-1.35a46.86,46.86,0,0,1,13.5-2.4q7,0,11.4,3.45A47.56,47.56,0,0,1,742.21,1749Z"/><path class="cls-2" d="M863,1758.25q4,9.6,4,13.8c0,1.7-2,3.35-6,5q-7.2,2.85-21.9,7.5l-12.9,3.45a1.76,1.76,0,0,0-1.2,1.35,13.8,13.8,0,0,0,4.42,9.52,13.34,13.34,0,0,0,9.53,4q6.59,0,15-6.3c1.09-.9,2.22-1.88,3.37-2.93a3.93,3.93,0,0,1,3.68-1.12q4.18,2.25,4.5,5.7-1.07,5.1-9.9,11.25t-21.15,6.15A37,37,0,0,1,818,1812a33.32,33.32,0,0,1-14.85-14,40.71,40.71,0,0,1-5.25-19.35,41.62,41.62,0,0,1,4.57-20.48,35.71,35.71,0,0,1,14.18-14.92,30.2,30.2,0,0,1,16-4.2,32.86,32.86,0,0,1,19.5,5.85A30.17,30.17,0,0,1,863,1758.25Zm-32.7-6.75q-5.26,1.95-7.2,9.6-2.12,8.55-.15,14,1.19,1.8,2.7,1.5a84.2,84.2,0,0,0,17.1-5.55,3.88,3.88,0,0,0,1-3.15,28.48,28.48,0,0,0-3-12.75c-1.5-2.8-4-4.2-7.5-4.2A8,8,0,0,0,830.26,1751.5Z"/><path class="cls-2" d="M914.1,1743a4.93,4.93,0,0,0,1.2.15,3.67,3.67,0,0,0,2.4-1q1.2-1,2.25-2.1,4.95-.9,6.3,1.35a59.09,59.09,0,0,1,1.65,9.75l.9,9.9q-.45,4.35-7.95,3.45a14,14,0,0,1-2.55-3.3q-1.8-3-2.4-3.75-5.25-6.45-10.8-6.45-5,0-6.6,3.15a6.35,6.35,0,0,0,.6,7.2q3.45,3.15,10.5,5.4,8.25,2.55,11.1,4.35,11.1,5.4,11.55,17.55a24.88,24.88,0,0,1-3.15,12.75,22.17,22.17,0,0,1-9.3,9.15,30.68,30.68,0,0,1-14.7,3.45,31.38,31.38,0,0,1-10.8-1.8q-5.7-2.1-6.9-2.1a6.13,6.13,0,0,0-1.95.3c-1,.7-2.05,1.42-3.15,2.17a4.35,4.35,0,0,1-3.3.83,7.59,7.59,0,0,1-3.9-1q-1.5-2.25-2.25-11l-1.35-14.1q.3-2.1.3-2.4a2.27,2.27,0,0,1,1.65-1.5q5.25-1.5,7.5.45,4.5,11.49,10.65,15a21.18,21.18,0,0,0,10.35,3,10.53,10.53,0,0,0,7-2.41,5.71,5.71,0,0,0,2-4.36c0-2.5-1.8-4.61-5.4-6.31q-17.1-8-18.3-8.72-10.05-6.32-11.85-15.49a26.18,26.18,0,0,1-.45-4.81,19.26,19.26,0,0,1,7.5-15.79q6.15-4.81,15.6-4.81a29.77,29.77,0,0,1,12.9,2.7Z"/><path class="cls-2" d="M979.65,1743a4.93,4.93,0,0,0,1.2.15,3.67,3.67,0,0,0,2.4-1q1.2-1,2.25-2.1,4.95-.9,6.3,1.35a59.09,59.09,0,0,1,1.65,9.75l.9,9.9q-.45,4.35-8,3.45a14,14,0,0,1-2.55-3.3q-1.8-3-2.4-3.75-5.25-6.45-10.8-6.45-4.95,0-6.6,3.15a6.35,6.35,0,0,0,.6,7.2q3.45,3.15,10.5,5.4,8.25,2.55,11.1,4.35,11.1,5.4,11.55,17.55a24.88,24.88,0,0,1-3.15,12.75,22.17,22.17,0,0,1-9.3,9.15,30.68,30.68,0,0,1-14.7,3.45,31.38,31.38,0,0,1-10.8-1.8q-5.7-2.1-6.9-2.1a6.13,6.13,0,0,0-2,.3c-1,.7-2,1.42-3.15,2.17a4.35,4.35,0,0,1-3.3.83,7.59,7.59,0,0,1-3.9-1q-1.5-2.25-2.25-11l-1.35-14.1q.3-2.1.3-2.4a2.27,2.27,0,0,1,1.65-1.5q5.25-1.5,7.5.45,4.5,11.49,10.65,15a21.18,21.18,0,0,0,10.35,3,10.53,10.53,0,0,0,7-2.41,5.71,5.71,0,0,0,2-4.36c0-2.5-1.8-4.61-5.4-6.31q-17.1-8-18.3-8.72-10-6.32-11.85-15.49a26.18,26.18,0,0,1-.45-4.81,19.26,19.26,0,0,1,7.5-15.79q6.15-4.81,15.6-4.81a29.77,29.77,0,0,1,12.9,2.7Z"/><path class="cls-2" d="M1063.5,1754.2q3.6,8.55,3.9,21.75v22.35a3.4,3.4,0,0,0,1,2,4.18,4.18,0,0,0,2.63-.83,5.23,5.23,0,0,1,2.47-1,2.42,2.42,0,0,1,1,.3q3.3,2.7,3.45,5.1-3,6.75-12,9.3a35.43,35.43,0,0,1-7.35,1,28.07,28.07,0,0,1-3.45-.75,13.07,13.07,0,0,1-5.85-3l-4.8-4.5a7.82,7.82,0,0,0-3,2,14.21,14.21,0,0,1-2.7,2.1,27.47,27.47,0,0,1-26.85,2.1q-9.45-4.8-9.45-16.65a22.79,22.79,0,0,1,.3-3.75q1.8-11.1,13.5-17.1,5.25-2.7,21.9-7,3-.9,3.83-2.63a8.73,8.73,0,0,0,.82-3.82,11.31,11.31,0,0,0-2.1-6.9q-2.7-3.15-6-3a7.49,7.49,0,0,0-6.9,4.8,51.41,51.41,0,0,1-3.45,8.4,3.81,3.81,0,0,1-2,.75q-.75,0-2.25-.15t-1.95-.15q-3.3-.9-6.45-1.65a6.75,6.75,0,0,1-4.5-4.5q-1-9.9,10.5-16.2a37.06,37.06,0,0,1,17.85-4.2q10.65,0,18.15,4.8A23.42,23.42,0,0,1,1063.5,1754.2ZM1036.65,1779q-6.45,1.65-9.6,6.15a10.83,10.83,0,0,0-2.1,6.6,9.92,9.92,0,0,0,1,4.5q2.55,4.2,8,3.6,6.15-.6,8.25-4.5,2.55-6,1-16.2a2.22,2.22,0,0,0-2.4-1.8A6.79,6.79,0,0,0,1036.65,1779Z"/><path class="cls-2" d="M1148,1729.6q2.1,5.25-.36,8.47t-10.91,4.58a2.66,2.66,0,0,0-1.63,1.8,2.53,2.53,0,0,0,1.13,2c.75.6,1.47,1.15,2.17,1.65q9.6,8.7,9.6,20.25a25.45,25.45,0,0,1-1,7,26.11,26.11,0,0,1-7.7,12.3,34,34,0,0,1-12.93,7.8,35.48,35.48,0,0,1-18.69.75,2.75,2.75,0,0,0-1.94,2,3.38,3.38,0,0,0,1.35,3.37c1.09.85,3.34,1.48,6.73,1.88q11.8,0,14.79.15a35.49,35.49,0,0,1,13.76,3.75q8.37,5.7,8.37,15.15a21.86,21.86,0,0,1-.3,3.6q-2.85,15-24.9,19.5a52.39,52.39,0,0,1-11.1,1.2q-16.5,0-28.65-9.45-5-5-5-9a7.2,7.2,0,0,1,.45-2.55,6.33,6.33,0,0,1,3.15-4.2,10.26,10.26,0,0,1,4.35-1q4.2,0,9.9,4.7,7.35,6.21,9.15,7.12a22.19,22.19,0,0,0,9.9,2.28,16.49,16.49,0,0,0,8.55-2.13q2.7-2.28,2.7-3.8a5.89,5.89,0,0,0-.6-2.89q-1-1.38-6.15-2.28-11.85,0-17.1-1.2a22.49,22.49,0,0,1-13.8-8.85,13,13,0,0,1-2.55-8,12.13,12.13,0,0,1,1.65-6.45,20.69,20.69,0,0,1,5.55-5.55q.6-.9-.45-1.5-12.75-8.85-12.75-23.85a31.92,31.92,0,0,1,.45-5.25,26.29,26.29,0,0,1,8-14.48,30.28,30.28,0,0,1,14.89-8.32q8.22-1.95,18.56.45c.19,0,.64-.5,1.34-1.5q1.8-10.8,8.53-13.35a15.6,15.6,0,0,1,5.24-.9Q1146.16,1724.8,1148,1729.6Zm-33.75,21.9a6.9,6.9,0,0,0-5.1,2.4q-3.45,4-3.45,10.8a28.71,28.71,0,0,0,3.6,14q2.85,5.4,7.8,5.1a7.1,7.1,0,0,0,4.35-2.1q3.3-4.05,3.3-10.8a35.39,35.39,0,0,0-1.65-10.35Q1119.15,1751.8,1114.2,1751.5Z"/><path class="cls-2" d="M1220.7,1758.25q4,9.6,4,13.8,0,2.55-6,5-7.2,2.85-21.9,7.5L1184,1788a1.79,1.79,0,0,0-1.2,1.35,13.81,13.81,0,0,0,4.43,9.52,13.3,13.3,0,0,0,9.52,4q6.6,0,15-6.3c1.1-.9,2.22-1.88,3.38-2.93a3.91,3.91,0,0,1,3.67-1.12q4.2,2.25,4.5,5.7-1.05,5.1-9.9,11.25t-21.15,6.15a37,37,0,0,1-16.5-3.6,33.32,33.32,0,0,1-14.85-14,40.83,40.83,0,0,1-5.25-19.35,41.63,41.63,0,0,1,4.58-20.48,35.69,35.69,0,0,1,14.17-14.92,30.25,30.25,0,0,1,16.05-4.2,32.84,32.84,0,0,1,19.5,5.85A30,30,0,0,1,1220.7,1758.25Zm-32.7-6.75q-5.25,1.95-7.2,9.6-2.1,8.55-.15,14,1.2,1.8,2.7,1.5a83.79,83.79,0,0,0,17.1-5.55,3.82,3.82,0,0,0,1-3.15,28.22,28.22,0,0,0-3-12.75q-2.25-4.2-7.5-4.2A8,8,0,0,0,1188,1751.5Z"/><path class="cls-2" d="M1340.85,1716.1a15.77,15.77,0,0,1,2.4,8.1,10.59,10.59,0,0,1-1,4.8q-3.15,6.75-11.25,7.2a7.75,7.75,0,0,1-7.5-4q-.15-.3-1.5-6.9-.9-4.2-4.65-4.35-2.55-.3-4.5,3.9a19.81,19.81,0,0,0-.9,6q0,5.55,2.4,8.85,1.5,1.95,5.85,1.87t5.55,2.18q.15,6.45,0,7.65-1.5,1.5-5.1,1.65-4.2,0-5.55.75t-1.35,5q0,13.5.45,41,.75,1.2,5.1,2.25,3.45.9,3.15,4.2,0-.75.15,3.75a3.68,3.68,0,0,1-1.35,3.3q-4,.6-18.15.6l-17.1-.15q-2.25-.3-2.55-1.8-.75-5.25.3-8.25.75-1.35,5-2.1,3.15-.75,2.7-3.75v-40.8q0-2.7-1.83-3.45a36.33,36.33,0,0,0-4.58-.45,3.14,3.14,0,0,1-2.59-1.35,21.25,21.25,0,0,1,0-8q.6-2.25,4.65-2.33t4.5-2.47q3.6-18.75,14-26,3.15-3.45,11.1-5.25a29.05,29.05,0,0,1,6.45-.75Q1335.3,1707,1340.85,1716.1Z"/><path class="cls-2" d="M1397.55,1746.7a21.05,21.05,0,0,1,3,10.2,4.36,4.36,0,0,1-3,3.37q-2.55,1-4.8,1.73a29.65,29.65,0,0,0-4.2,1.35,15.54,15.54,0,0,1-4.2.75,7.2,7.2,0,0,1-2.55-.45q-1-2.1-2.1-4.35a4.86,4.86,0,0,0-3.9-2.55,7.05,7.05,0,0,0-5.25,2.25q-3.6,4.8-3.45,16.65l.3,24.15c.5.6,1.57,1,3.22,1.2a5.1,5.1,0,0,1,3.3,1.27,4.62,4.62,0,0,1,1,2.63,22.68,22.68,0,0,1,.15,3q-.15,2.25-.15,3-.3,1.95-1.8,2.25l-5.7.3h-29.25q-1.8,0-2.25-2.1-.15-4.8,0-7.35.6-1.8,3.75-2.33c2.1-.35,3.45-1,4-1.87v-43.35c0-1.8-.44-2.8-1.31-3s-1.72-.38-2.54-.53a2.15,2.15,0,0,1-1.7-1.27,34.41,34.41,0,0,1-.3-7.8,3.58,3.58,0,0,1,2.1-2.25q8.25-.15,24.3-.15,1.2-.15,3,1.35.3,1.2,1,3.6,7.35-7.5,15.6-7.5A14.75,14.75,0,0,1,1397.55,1746.7Z"/><path class="cls-2" d="M1472.1,1758a38.31,38.31,0,0,1,4.35,18.15q0,15.3-9,26-10.67,12.6-28.8,12.6a41.42,41.42,0,0,1-13.2-2.1,34.28,34.28,0,0,1-16.73-12.53,35,35,0,0,1-7.12-19.57l-.6-.6h.45a42.33,42.33,0,0,1,4.35-21,35.46,35.46,0,0,1,14.85-15.6,37.49,37.49,0,0,1,18.75-4.65q13.63,0,23.1,7.35A34.64,34.64,0,0,1,1472.1,1758Zm-36.45-6.45c-3.6,1.2-6.11,3.85-7.5,8-.71,2.2-1.3,6.1-1.8,11.7a100.17,100.17,0,0,0,1.5,15,27.85,27.85,0,0,0,6.15,13.2,10.13,10.13,0,0,0,9.3,2.25c3.6-1.3,5.89-3.5,6.9-6.6a38.14,38.14,0,0,0,2-12.6,69.31,69.31,0,0,0-3.9-22.2,14.76,14.76,0,0,0-3.9-6.23,8.86,8.86,0,0,0-6.3-2.77A9.74,9.74,0,0,0,1435.65,1751.5Z"/><path class="cls-2" d="M1550.55,1749a1.2,1.2,0,0,0,1.8.15,29.6,29.6,0,0,1,27.9-7.5,16.77,16.77,0,0,1,7.8,4.87,15.62,15.62,0,0,1,4.2,8.18,89.38,89.38,0,0,1,.9,15.3q-.4,7.8-.6,15.6v14.55a2.45,2.45,0,0,0,1.35,2,5.43,5.43,0,0,0,2.77-1.2,5.42,5.42,0,0,1,2.63-1.2,2,2,0,0,1,1.2.45q3.6,2.55,3.15,4.65-1.79,7.5-11.75,9.9a28.69,28.69,0,0,1-6.4.75q-9.66,0-14.12-6.75-2.24-3.6-2.53-9.9V1788.1q.14-8.7,0-25.95c-.11-2.3-1.38-4-3.83-5a6.54,6.54,0,0,0-5.81.6q-6,3.75-6,14.25v27.6a5.27,5.27,0,0,0,3.45,1.35c1.7.2,2.82.65,3.37,1.35a5,5,0,0,1,1,2.7,19.83,19.83,0,0,1,0,3.3q-.15,2.55-.15,3.15a2.65,2.65,0,0,1-2.48,1.65l-3.67.3H1535.1a18.43,18.43,0,0,1-3.15-.15,3.9,3.9,0,0,1-2.55-1.5l-.3-3.6q-.6-8.85-.15-23.1.45-17.85.3-22.95-.9-3.9-3.6-5.1a5.87,5.87,0,0,0-6.9,1.35q-4.5,4.38-4.5,14v26.84a2.39,2.39,0,0,0,2.4,1.66,10.83,10.83,0,0,1,3.15.6,4.92,4.92,0,0,1,2.1,4.23c0,1.81-.06,3.57-.15,5.28a3.06,3.06,0,0,1-2,2.26l-35.4.15a3.22,3.22,0,0,1-2.4-2.12q-.6-7.08.75-9a7,7,0,0,1,3-1.06,16,16,0,0,0,3.37-.83c.55-.25.83-1.78.83-4.6q.45-22.95.3-41.36c-.21-1-1.15-1.71-2.85-2.11s-2.65-1.21-2.85-2.42v-5.28q.14-3.31,2.7-3.92,9-.15,23.7.15a3.58,3.58,0,0,1,3.3,2.48,4.54,4.54,0,0,0,.9,2.17,9.66,9.66,0,0,0,3.15-1c1.59-.7,2.6-1.15,3-1.35a46.86,46.86,0,0,1,13.5-2.4c4.7,0,8.49,1.15,11.4,3.45A47.56,47.56,0,0,1,1550.55,1749Z"/><path class="cls-2" d="M1728.75,1712.51q12.74,10.23,12.75,28.42a42.37,42.37,0,0,1-2,12.77,31.55,31.55,0,0,1-7.8,12.33,26.13,26.13,0,0,1-12.3,7.22,49.49,49.49,0,0,1-11.4,1.35H1696.5a2.36,2.36,0,0,0-1.5,2v21.3c.19,1.5,1.42,2.42,3.67,2.77s3.62,1,4.13,1.88q.59,2.25,0,8.85-.16,1.5-2.25,2l-37.2.15a2.75,2.75,0,0,1-2.85-2.4c0-.61-.11-1.76-.3-3.46a17.76,17.76,0,0,1,0-3.46,4.46,4.46,0,0,1,1.5-2.7,13,13,0,0,1,3.6-.9,4,4,0,0,0,3-2q.14-14,0-35.75-.16-30.35-.15-35.6c-.11-1.7-.15-3.41-.15-5.11q-.16-3.15-2.7-3.6a18.78,18.78,0,0,1-3.3-.61,2.77,2.77,0,0,1-2.1-2c-.11-1.8-.15-3.6-.15-5.41,0-2.2.69-3.6,2.1-4.2l10.05-.15,30-.3Q1720.19,1705.75,1728.75,1712.51Zm-33.75,9.3v34.77c0,2.21.49,3.56,1.47,4.06a12.27,12.27,0,0,0,4.29.76c3.64,0,6.45-1.16,8.41-3.46q5.17-6.18,5.18-16.41a31.51,31.51,0,0,0-3.26-14.61q-3.69-7.51-11.66-7.52C1696.47,1719.4,1695,1720.2,1695,1721.81Z"/><path class="cls-2" d="M1803.59,1754.2q3.6,8.55,3.9,21.75v22.35a3.4,3.4,0,0,0,1,2,4.18,4.18,0,0,0,2.63-.83,5.23,5.23,0,0,1,2.47-1,2.42,2.42,0,0,1,1,.3q3.3,2.7,3.45,5.1-3,6.75-12,9.3a35.43,35.43,0,0,1-7.35,1,28.07,28.07,0,0,1-3.45-.75,13.07,13.07,0,0,1-5.85-3l-4.8-4.5a7.82,7.82,0,0,0-3,2,14.21,14.21,0,0,1-2.7,2.1,27.47,27.47,0,0,1-26.85,2.1q-9.45-4.8-9.45-16.65a22.79,22.79,0,0,1,.3-3.75q1.8-11.1,13.5-17.1,5.25-2.7,21.9-7,3-.9,3.83-2.63a8.73,8.73,0,0,0,.82-3.82,11.31,11.31,0,0,0-2.1-6.9q-2.7-3.15-6-3a7.49,7.49,0,0,0-6.9,4.8,51.41,51.41,0,0,1-3.45,8.4,3.81,3.81,0,0,1-1.95.75q-.75,0-2.25-.15t-2-.15q-3.3-.9-6.45-1.65a6.75,6.75,0,0,1-4.5-4.5q-1-9.9,10.5-16.2a37.06,37.06,0,0,1,17.85-4.2q10.65,0,18.15,4.8A23.42,23.42,0,0,1,1803.59,1754.2ZM1776.74,1779q-6.45,1.65-9.6,6.15a10.83,10.83,0,0,0-2.1,6.6,9.92,9.92,0,0,0,1,4.5q2.55,4.2,8,3.6,6.15-.6,8.25-4.5,2.55-6,1-16.2a2.22,2.22,0,0,0-2.4-1.8A6.79,6.79,0,0,0,1776.74,1779Z"/><path class="cls-2" d="M1890,1749a1.2,1.2,0,0,0,1.8.15,29.6,29.6,0,0,1,27.9-7.5,16.72,16.72,0,0,1,7.8,4.87,15.55,15.55,0,0,1,4.2,8.18,87.39,87.39,0,0,1,.9,15.3c-.26,5.2-.47,10.4-.6,15.6v14.55a2.45,2.45,0,0,0,1.35,2,5.43,5.43,0,0,0,2.78-1.2,5.4,5.4,0,0,1,2.62-1.2,2,2,0,0,1,1.2.45q3.6,2.55,3.15,4.65-1.78,7.5-11.75,9.9a28.54,28.54,0,0,1-6.39.75q-9.67,0-14.13-6.75-2.23-3.6-2.53-9.9V1788.1q.15-8.7,0-25.95-.15-3.45-3.82-5a6.54,6.54,0,0,0-5.81.6q-6,3.75-6,14.25v27.6a5.3,5.3,0,0,0,3.45,1.35c1.7.2,2.83.65,3.38,1.35a5,5,0,0,1,1,2.7,17.85,17.85,0,0,1,0,3.3q-.15,2.55-.15,3.15a2.63,2.63,0,0,1-2.47,1.65l-3.68.3h-19.65a18.59,18.59,0,0,1-3.15-.15,3.93,3.93,0,0,1-2.55-1.5l-.3-3.6q-.6-8.85-.15-23.1.45-17.85.3-22.95-.9-3.9-3.6-5.1a5.87,5.87,0,0,0-6.9,1.35q-4.5,4.38-4.5,14v26.84a2.39,2.39,0,0,0,2.4,1.66,10.83,10.83,0,0,1,3.15.6,4.89,4.89,0,0,1,2.1,4.23q0,2.71-.15,5.28a3.06,3.06,0,0,1-2,2.26l-35.4.15a3.24,3.24,0,0,1-2.4-2.12q-.6-7.08.75-9a7,7,0,0,1,3-1.06,16.19,16.19,0,0,0,3.38-.83c.55-.25.82-1.78.82-4.6q.45-22.95.3-41.36c-.2-1-1.15-1.71-2.85-2.11s-2.65-1.21-2.85-2.42v-5.28q.15-3.31,2.7-3.92,9-.15,23.7.15a3.57,3.57,0,0,1,3.3,2.48,4.54,4.54,0,0,0,.9,2.17,9.66,9.66,0,0,0,3.15-1q2.4-1,3-1.35a47,47,0,0,1,13.5-2.4q7,0,11.4,3.45A47.56,47.56,0,0,1,1890,1749Z"/><path class="cls-2" d="M2018.92,1760.8a46.25,46.25,0,0,1,3.37,17.4q0,16.65-10.76,26.55t-24.3,9.9a28.63,28.63,0,0,1-11-2.1,1.48,1.48,0,0,0-1.51,1.34v15.23q0,2.69,3.68,3.43c2.45.5,3.67,1.64,3.67,3.44l.15,3.88a6.82,6.82,0,0,1-.75,3.58q-1.8,1.2-10.2,1h-23.85q-2.55-.6-3-2,0-.45-.3-3.3a10.94,10.94,0,0,1,.15-3.29,3.83,3.83,0,0,1,1.65-2.7,9,9,0,0,1,3.3-1,2.74,2.74,0,0,0,2.55-2q.15-25.17.6-75.49c-.3-.9-1.37-1.67-3.22-2.32s-2.78-1.68-2.78-3.07v-4.2c.1-1.69.7-2.79,1.8-3.29q6.3,0,19.65-.3h3.6a4.51,4.51,0,0,1,3.3,1.05,6.4,6.4,0,0,0,1.65,3.15q9.15-5.25,16.2-5.25,8.4,0,15.9,6.15A34.3,34.3,0,0,1,2018.92,1760.8Zm-34.58-5.4a9,9,0,0,0-5.32,2.7,11.34,11.34,0,0,0-3.23,5.25,60.13,60.13,0,0,0-2,15.75,70,70,0,0,0,.75,10.2q2.1,13.8,11.85,13.8a9.51,9.51,0,0,0,7.2-3q4.65-5.7,4.65-16a83.3,83.3,0,0,0-.6-8.85q-1.2-11.1-5-16.2A8.85,8.85,0,0,0,1984.34,1755.4Z"/><path class="cls-2" d="M2090.84,1758.25q4,9.6,4,13.8,0,2.55-6,5-7.2,2.85-21.9,7.5l-12.9,3.45a1.79,1.79,0,0,0-1.2,1.35,13.86,13.86,0,0,0,4.43,9.52,13.32,13.32,0,0,0,9.52,4q6.6,0,15-6.3,1.65-1.35,3.38-2.93a3.92,3.92,0,0,1,3.67-1.12q4.2,2.25,4.5,5.7-1,5.1-9.9,11.25t-21.15,6.15a37,37,0,0,1-16.5-3.6,33.32,33.32,0,0,1-14.85-14,40.83,40.83,0,0,1-5.25-19.35,41.74,41.74,0,0,1,4.58-20.48,35.75,35.75,0,0,1,14.17-14.92,30.25,30.25,0,0,1,16-4.2,32.84,32.84,0,0,1,19.5,5.85A30,30,0,0,1,2090.84,1758.25Zm-32.7-6.75q-5.25,1.95-7.2,9.6-2.1,8.55-.15,14,1.2,1.8,2.7,1.5a83.79,83.79,0,0,0,17.1-5.55,3.82,3.82,0,0,0,1-3.15,28.22,28.22,0,0,0-3-12.75q-2.25-4.2-7.5-4.2A8,8,0,0,0,2058.14,1751.5Z"/><path class="cls-2" d="M2161.94,1746.7a21.05,21.05,0,0,1,3,10.2,4.36,4.36,0,0,1-3,3.37q-2.55,1-4.8,1.73a29.65,29.65,0,0,0-4.2,1.35,15.54,15.54,0,0,1-4.2.75,7.2,7.2,0,0,1-2.55-.45q-1.05-2.1-2.1-4.35a4.86,4.86,0,0,0-3.9-2.55,7.05,7.05,0,0,0-5.25,2.25q-3.6,4.8-3.45,16.65l.3,24.15c.5.6,1.58,1,3.22,1.2a5.14,5.14,0,0,1,3.31,1.27,4.69,4.69,0,0,1,1,2.63,22.68,22.68,0,0,1,.15,3q-.15,2.25-.15,3-.3,1.95-1.8,2.25l-5.7.3h-29.25q-1.8,0-2.25-2.1-.15-4.8,0-7.35.6-1.8,3.75-2.33c2.1-.35,3.45-1,4.05-1.87v-43.35c0-1.8-.44-2.8-1.31-3s-1.72-.38-2.54-.53a2.12,2.12,0,0,1-1.69-1.27,33.86,33.86,0,0,1-.31-7.8,3.58,3.58,0,0,1,2.1-2.25q8.25-.15,24.3-.15,1.2-.15,3,1.35.3,1.2,1.05,3.6,7.35-7.5,15.6-7.5A14.75,14.75,0,0,1,2161.94,1746.7Z"/><path class="cls-2" d="M2208.74,1743a4.93,4.93,0,0,0,1.2.15,3.67,3.67,0,0,0,2.4-1q1.2-1,2.25-2.1,4.95-.9,6.3,1.35a59.09,59.09,0,0,1,1.65,9.75l.9,9.9q-.45,4.35-8,3.45a14,14,0,0,1-2.55-3.3q-1.8-3-2.4-3.75-5.25-6.45-10.8-6.45-4.95,0-6.6,3.15a6.35,6.35,0,0,0,.6,7.2q3.45,3.15,10.5,5.4,8.25,2.55,11.1,4.35,11.1,5.4,11.55,17.55a24.88,24.88,0,0,1-3.15,12.75,22.17,22.17,0,0,1-9.3,9.15,30.68,30.68,0,0,1-14.7,3.45,31.38,31.38,0,0,1-10.8-1.8q-5.7-2.1-6.9-2.1a6.13,6.13,0,0,0-1.95.3c-1,.7-2.05,1.42-3.15,2.17a4.35,4.35,0,0,1-3.3.83,7.59,7.59,0,0,1-3.9-1q-1.5-2.25-2.25-11l-1.35-14.1q.3-2.1.3-2.4a2.27,2.27,0,0,1,1.65-1.5q5.25-1.5,7.5.45,4.5,11.49,10.65,15a21.18,21.18,0,0,0,10.35,3,10.53,10.53,0,0,0,7-2.41,5.71,5.71,0,0,0,2-4.36c0-2.5-1.8-4.61-5.4-6.31q-17.1-8-18.3-8.72-10-6.32-11.85-15.49a26.18,26.18,0,0,1-.45-4.81,19.26,19.26,0,0,1,7.5-15.79q6.15-4.81,15.6-4.81a29.77,29.77,0,0,1,12.9,2.7Z"/><path class="cls-2" d="M2350.64,1710.85l4.8,2.85q9.15,7.65,9.15,20.1a29.29,29.29,0,0,1-.45,5.1,22.79,22.79,0,0,1-12,15.3,14.91,14.91,0,0,0-2.4,1.65q2.25,1.2,6.75,3.75,12,7.2,12,23a32.79,32.79,0,0,1-.45,5.4,27.92,27.92,0,0,1-6.53,14,28.46,28.46,0,0,1-12.6,9.07,39.89,39.89,0,0,1-13,2.48l-47.4.15q-2.55-.15-3.15-2.1l-.15-7.8q.75-2.1,4.27-2.93t4-2.92q.15-25.2.6-75.6-.3-1.95-4.05-2.63t-3.6-3.52q-.15-2.25-.15-4.35a4.25,4.25,0,0,1,1.8-3.6l1.8-.3,24.15-.3q14.55-.15,24.15.3Q2346.14,1708.3,2350.64,1710.85Zm-24.75,51.45H2323a3.16,3.16,0,0,0-2.55.9l-.45,30.15v2.85a1.86,1.86,0,0,0,1.57,2.1,17.25,17.25,0,0,0,3.23.3q10.2,0,14.1-6.3a23.68,23.68,0,0,0,3.3-12.6,22.1,22.1,0,0,0-2.55-10.8Q2335.94,1762.3,2325.89,1762.3Zm-1.8-41.25-2,.3a1.24,1.24,0,0,0-1.2,1q-.3,23.73-.3,25.81l.75.75q9.15,1.2,13.8-2.69,4-4.32,4-11.34a19.82,19.82,0,0,0-1.35-7.31Q2334.89,1720.46,2324.09,1721.05Z"/><path class="cls-2" d="M2437.49,1758.25q4.05,9.6,4.05,13.8c0,1.7-2,3.35-6,5q-7.2,2.85-21.9,7.5l-12.9,3.45a1.76,1.76,0,0,0-1.2,1.35,13.8,13.8,0,0,0,4.42,9.52,13.34,13.34,0,0,0,9.53,4q6.59,0,15-6.3c1.09-.9,2.22-1.88,3.37-2.93a3.93,3.93,0,0,1,3.68-1.12q4.18,2.25,4.5,5.7-1.07,5.1-9.9,11.25t-21.15,6.15a37,37,0,0,1-16.5-3.6,33.32,33.32,0,0,1-14.85-14,40.6,40.6,0,0,1-5.25-19.35,41.62,41.62,0,0,1,4.57-20.48,35.71,35.71,0,0,1,14.18-14.92,30.2,30.2,0,0,1,16.05-4.2,32.86,32.86,0,0,1,19.5,5.85A30.17,30.17,0,0,1,2437.49,1758.25Zm-32.7-6.75q-5.26,1.95-7.21,9.6-2.1,8.55-.14,14,1.18,1.8,2.7,1.5a84.2,84.2,0,0,0,17.1-5.55,3.88,3.88,0,0,0,1.05-3.15,28.48,28.48,0,0,0-3-12.75c-1.5-2.8-4-4.2-7.5-4.2A8,8,0,0,0,2404.79,1751.5Z"/><path class="cls-2" d="M2511,1758.25q4,9.6,4.05,13.8,0,2.55-6,5-7.2,2.85-21.9,7.5l-12.9,3.45a1.79,1.79,0,0,0-1.2,1.35,13.86,13.86,0,0,0,4.43,9.52,13.32,13.32,0,0,0,9.52,4q6.6,0,15-6.3,1.65-1.35,3.38-2.93a3.92,3.92,0,0,1,3.67-1.12q4.2,2.25,4.5,5.7-1.05,5.1-9.9,11.25t-21.15,6.15a37,37,0,0,1-16.5-3.6,33.32,33.32,0,0,1-14.85-14,40.83,40.83,0,0,1-5.25-19.35,41.74,41.74,0,0,1,4.58-20.48,35.75,35.75,0,0,1,14.17-14.92,30.25,30.25,0,0,1,16-4.2,32.84,32.84,0,0,1,19.5,5.85A30,30,0,0,1,2511,1758.25Zm-32.7-6.75q-5.25,1.95-7.2,9.6-2.1,8.55-.15,14,1.2,1.8,2.7,1.5a83.79,83.79,0,0,0,17.1-5.55,3.82,3.82,0,0,0,1.05-3.15,28.22,28.22,0,0,0-3-12.75q-2.25-4.2-7.5-4.2A8,8,0,0,0,2478.28,1751.5Z"/><path class="cls-2" d="M2582.08,1746.7a21.05,21.05,0,0,1,3,10.2,4.36,4.36,0,0,1-3,3.37q-2.55,1-4.8,1.73a29.65,29.65,0,0,0-4.2,1.35,15.54,15.54,0,0,1-4.2.75,7.2,7.2,0,0,1-2.55-.45q-1-2.1-2.1-4.35a4.86,4.86,0,0,0-3.9-2.55,7.05,7.05,0,0,0-5.25,2.25q-3.6,4.8-3.45,16.65l.3,24.15c.5.6,1.58,1,3.23,1.2a5.1,5.1,0,0,1,3.3,1.27,4.69,4.69,0,0,1,1,2.63,22.68,22.68,0,0,1,.15,3q-.15,2.25-.15,3-.3,1.95-1.8,2.25l-5.7.3h-29.25q-1.8,0-2.25-2.1-.15-4.8,0-7.35.6-1.8,3.75-2.33c2.1-.35,3.45-1,4.05-1.87v-43.35c0-1.8-.44-2.8-1.31-3s-1.72-.38-2.54-.53a2.14,2.14,0,0,1-1.69-1.27,33.86,33.86,0,0,1-.31-7.8,3.58,3.58,0,0,1,2.1-2.25q8.25-.15,24.3-.15,1.2-.15,3,1.35.3,1.2,1,3.6,7.35-7.5,15.6-7.5A14.75,14.75,0,0,1,2582.08,1746.7Z"/><path class="cls-2" d="M2693.38,1707.55a4.4,4.4,0,0,0,1.65.3q.3,0,5.4-2.25,5.7,0,6.9.9a15.05,15.05,0,0,1,2.1,5.17q.75,3.22,1.5,6.08l3.3,18.45a3.44,3.44,0,0,1-1.5,3.75,22,22,0,0,1-6.45,1.65,6.07,6.07,0,0,1-3-.75,24.52,24.52,0,0,1-2.55-4.95q-1.65-4.05-2.25-5.25a55.15,55.15,0,0,0-4.35-7.05,12.26,12.26,0,0,0-6.75-4.5,12.41,12.41,0,0,0-2.7-.3q-7.2,0-11.85,6.75-6.15,8.85-6.9,30-.9,22.65,4.65,35.4a15.27,15.27,0,0,0,5.55,6.75,11.84,11.84,0,0,0,8.1,2.1q10.8-.9,18.45-19.5a5,5,0,0,1,2.4-2.85,8.43,8.43,0,0,1,1.65-.15q3,0,7.2,2.7a5.2,5.2,0,0,1,1.35,3.6q0,.3-2,7.35a48.72,48.72,0,0,1-10,15q-7.2,7.35-15.45,8.55a37,37,0,0,1-8.7,1q-19.35,0-31.2-17-10.5-15.3-10.5-37.5,0-23.1,11.1-39.75,10.65-16.2,31.2-16.2A39.64,39.64,0,0,1,2693.38,1707.55Z"/><path class="cls-2" d="M2790.43,1758a38.31,38.31,0,0,1,4.35,18.15q0,15.3-9,26-10.65,12.6-28.8,12.6a41.47,41.47,0,0,1-13.2-2.1,34.28,34.28,0,0,1-16.73-12.53,35,35,0,0,1-7.12-19.57l-.6-.6h.45a42.44,42.44,0,0,1,4.35-21,35.57,35.57,0,0,1,14.85-15.6,37.52,37.52,0,0,1,18.75-4.65q13.65,0,23.1,7.35A34.42,34.42,0,0,1,2790.43,1758ZM2754,1751.5q-5.4,1.8-7.5,8a62.6,62.6,0,0,0-1.8,11.7,100.17,100.17,0,0,0,1.5,15,28,28,0,0,0,6.15,13.2,10.13,10.13,0,0,0,9.3,2.25q5.4-1.95,6.9-6.6a37.88,37.88,0,0,0,1.95-12.6,69.31,69.31,0,0,0-3.9-22.2,14.56,14.56,0,0,0-3.9-6.23,8.85,8.85,0,0,0-6.3-2.77A9.86,9.86,0,0,0,2754,1751.5Z"/><path class="cls-2" d="M2868.88,1749a1.2,1.2,0,0,0,1.8.15,29.6,29.6,0,0,1,27.9-7.5,16.72,16.72,0,0,1,7.8,4.87,15.55,15.55,0,0,1,4.2,8.18,87.39,87.39,0,0,1,.9,15.3q-.41,7.8-.6,15.6v14.55a2.45,2.45,0,0,0,1.35,2,5.4,5.4,0,0,0,2.77-1.2,5.42,5.42,0,0,1,2.63-1.2,2,2,0,0,1,1.2.45q3.6,2.55,3.15,4.65-1.79,7.5-11.75,9.9a28.55,28.55,0,0,1-6.4.75q-9.66,0-14.12-6.75-2.24-3.6-2.53-9.9V1788.1q.15-8.7,0-25.95c-.11-2.3-1.38-4-3.83-5a6.54,6.54,0,0,0-5.81.6q-6,3.75-6,14.25v27.6A5.3,5.3,0,0,0,2875,1801c1.7.2,2.82.65,3.37,1.35a5,5,0,0,1,1,2.7,17.85,17.85,0,0,1,0,3.3q-.15,2.55-.15,3.15a2.65,2.65,0,0,1-2.48,1.65l-3.67.3h-19.65a18.59,18.59,0,0,1-3.15-.15,3.93,3.93,0,0,1-2.55-1.5l-.3-3.6q-.6-8.85-.15-23.1.45-17.85.3-22.95-.9-3.9-3.6-5.1a5.87,5.87,0,0,0-6.9,1.35q-4.5,4.38-4.5,14v26.84a2.39,2.39,0,0,0,2.4,1.66,10.83,10.83,0,0,1,3.15.6,4.89,4.89,0,0,1,2.1,4.23q0,2.71-.15,5.28a3.06,3.06,0,0,1-1.95,2.26l-35.4.15a3.24,3.24,0,0,1-2.4-2.12q-.6-7.08.75-9a7,7,0,0,1,3-1.06,16,16,0,0,0,3.37-.83c.55-.25.83-1.78.83-4.6q.45-22.95.3-41.36c-.2-1-1.15-1.71-2.85-2.11s-2.65-1.21-2.85-2.42v-5.28q.15-3.31,2.7-3.92,9-.15,23.7.15a3.57,3.57,0,0,1,3.3,2.48,4.54,4.54,0,0,0,.9,2.17,9.66,9.66,0,0,0,3.15-1q2.4-1,3-1.35a47,47,0,0,1,13.5-2.4q7,0,11.4,3.45A47.56,47.56,0,0,1,2868.88,1749Z"/><path class="cls-2" d="M2997.8,1760.8a46.26,46.26,0,0,1,3.38,17.4q0,16.65-10.76,26.55t-24.3,9.9a28.64,28.64,0,0,1-11-2.1,1.47,1.47,0,0,0-1.5,1.34v15.23q0,2.69,3.67,3.43c2.45.5,3.68,1.64,3.68,3.44l.15,3.88a6.82,6.82,0,0,1-.75,3.58q-1.8,1.2-10.2,1h-23.85c-1.71-.4-2.7-1-3-2q0-.45-.3-3.3a10.94,10.94,0,0,1,.15-3.29,3.83,3.83,0,0,1,1.65-2.7,9,9,0,0,1,3.3-1,2.74,2.74,0,0,0,2.55-2q.15-25.17.6-75.49c-.3-.9-1.38-1.67-3.23-2.32s-2.77-1.68-2.77-3.07v-4.2c.1-1.69.7-2.79,1.8-3.29q6.3,0,19.65-.3h3.6a4.51,4.51,0,0,1,3.3,1.05,6.4,6.4,0,0,0,1.65,3.15q9.15-5.25,16.2-5.25,8.4,0,15.9,6.15A34.27,34.27,0,0,1,2997.8,1760.8Zm-34.57-5.4a9,9,0,0,0-5.33,2.7,11.31,11.31,0,0,0-3.22,5.25,60.13,60.13,0,0,0-1.95,15.75,70,70,0,0,0,.75,10.2q2.1,13.8,11.85,13.8a9.51,9.51,0,0,0,7.2-3q4.63-5.7,4.65-16a83.3,83.3,0,0,0-.6-8.85q-1.2-11.1-4.95-16.2A8.86,8.86,0,0,0,2963.23,1755.4Z"/><path class="cls-2" d="M3065.68,1754.2q3.6,8.55,3.9,21.75v22.35a3.4,3.4,0,0,0,1.05,2,4.16,4.16,0,0,0,2.62-.83,5.26,5.26,0,0,1,2.48-1,2.42,2.42,0,0,1,1.05.3c2.19,1.8,3.35,3.5,3.45,5.1q-3,6.75-12,9.3a35.43,35.43,0,0,1-7.35,1,28.07,28.07,0,0,1-3.45-.75,13.07,13.07,0,0,1-5.85-3l-4.8-4.5a7.75,7.75,0,0,0-3,2,14.21,14.21,0,0,1-2.7,2.1,27.47,27.47,0,0,1-26.85,2.1q-9.45-4.8-9.45-16.65a22.79,22.79,0,0,1,.3-3.75q1.8-11.1,13.5-17.1,5.25-2.7,21.9-7,3-.9,3.82-2.63a8.73,8.73,0,0,0,.83-3.82,11.31,11.31,0,0,0-2.1-6.9c-1.8-2.1-3.81-3.1-6-3a7.48,7.48,0,0,0-6.9,4.8,52.35,52.35,0,0,1-3.45,8.4,3.85,3.85,0,0,1-1.95.75q-.77,0-2.25-.15t-1.95-.15q-3.3-.9-6.45-1.65a6.75,6.75,0,0,1-4.5-4.5q-1-9.9,10.5-16.2a37.06,37.06,0,0,1,17.85-4.2q10.65,0,18.15,4.8A23.42,23.42,0,0,1,3065.68,1754.2ZM3038.83,1779q-6.45,1.65-9.6,6.15a10.83,10.83,0,0,0-2.1,6.6,9.92,9.92,0,0,0,1,4.5q2.55,4.2,8,3.6c4.1-.4,6.84-1.9,8.25-4.5q2.55-6,1-16.2a2.22,2.22,0,0,0-2.4-1.8A6.77,6.77,0,0,0,3038.83,1779Z"/><path class="cls-2" d="M3151.47,1745.8a18.57,18.57,0,0,1,4.65,12.3q0,13.8.15,41.25a1.61,1.61,0,0,0,1.2,1.8,9.32,9.32,0,0,0,2.78-1.28,6.36,6.36,0,0,1,2.77-1.12,2.59,2.59,0,0,1,2.1,1.2c1.6,1.5,2.26,2.85,2,4q-1.51,6-10.06,9.3a19.12,19.12,0,0,1-13.5.45,13,13,0,0,1-6.6-3.53,13.28,13.28,0,0,1-4-6.37l-.61-4v-30l.15-6.6q0-4-2.25-5.85a6.74,6.74,0,0,0-5.4-1.35q-7,1.35-8.55,8.74-.3,3.93-.6,34.68c.1,1,.8,1.61,2.1,1.81a20.17,20.17,0,0,1,3,.45c1.4.41,2.2,1.06,2.4,2,.2,5.12,0,8.19-.6,9.19l-1.19.76q-11.86,0-35.25.15c-1.61-.41-2.46-1.61-2.56-3.62v-5c.2-1.5.75-2.46,1.65-2.86a35.81,35.81,0,0,1,3.91-.75c1.59-.3,2.44-1.11,2.54-2.41v-44.59c-.4-.8-1.35-1.33-2.85-1.58s-2.39-.78-2.69-1.58q-.61-6.93.44-8.89l1.81-1.2q6.14-.15,24.75,0,1.18.3,3.14,4.35.75.3,3-.9a37.7,37.7,0,0,1,17.86-4.8Q3146.22,1740,3151.47,1745.8Z"/><path class="cls-2" d="M3207.27,1740.7q1.65.45,1.95,2.7v3.6a6.06,6.06,0,0,1-1,3.45l-3.6,1.5a3.62,3.62,0,0,0-2.55,2.7,100.32,100.32,0,0,0,4.95,15.15q3.15,7.5,6.15,14.85.45.9,1.2.3l.75-1.2,9.45-27.75q.3-2.55-.9-3.45a1.35,1.35,0,0,0-1.2-.68,1.51,1.51,0,0,1-1.2-.52q-3.15-1-3.3-2.85v-4.35a4.58,4.58,0,0,1,1.65-3.45l2.85-.3q7.8.15,22.2.15a2.71,2.71,0,0,1,2.7,1.65,10.45,10.45,0,0,1-.3,7.8,28.07,28.07,0,0,0-6.6,3.6l-1.8,3.3-15.6,40.35-6.6,17.4a109.75,109.75,0,0,1-8.25,16.8q-7.35,11.7-20.25,10.65-9.3-.75-13.2-8.25a12.35,12.35,0,0,1-1.65-6.3,9.47,9.47,0,0,1,1.8-5.85q3.45-5,9.75-3.9,2.1.3,5.33,3.75t5.47,3.45a4.39,4.39,0,0,0,2.7-1,11.26,11.26,0,0,0,3.3-8.55,17.82,17.82,0,0,0-1.8-7.8l-23.1-52.35q-.75-1.8-3.67-3t-3.53-3q0-.45-.15-3.15a9,9,0,0,1,0-3.3,3.67,3.67,0,0,1,1.65-2.4h1.95Z"/></g><g id="Layer_3" data-name="Layer 3"><path class="cls-2" d="M367.84,210.61q9.5,1.5,20.5,24.37l80.5,173.63c1,1,1.83,1.33,2.5,1l2-2.5V270.61q0-10-6.12-15-2-2-9.44-3.5t-9.44-5.5q-4-17.51,1.5-32,3.5-4.5,14-4.5l76,1q7,3,7.5,13v16.5q0,9.49-6,11.25t-12.18,3q-6.21,1.25-8.29,6.25l-2.07,9.5v285.5q-2,11.5-9,11.5l-58.67-1q-6.52-.5-11-11.41L341.22,333.67c-2.32-3.7-4.45-3.73-6.38-.06V505q1,7.51,1.5,9.51a15.12,15.12,0,0,0,5.5,8q2,1,12.5,4,8,1.5,9.5,8,.5,8.52,1,16.53,0,9.52-4.5,14.53l-4.5,2h-81.5c-2.33-.67-5.17-2.49-8.5-5.49q-5.5-15.48,0-30,2-3.49,10.75-6.24t10.25-8.24l2-9.49V267q0-11.49-8.15-13.48l-8.62-2.25q-4.8-1.23-6.23-5.24-2-25.45,2.5-32.46,5-4,13.5-3.49Z"/><path class="cls-2" d="M788.84,383.61q13.5,32,13.5,46,0,8.5-20,16.5-24,9.5-73,25l-43,11.5q-3.51,1.5-4,4.5,1,18.5,14.75,31.75t31.75,13.25q22,0,50-21,5.49-4.5,11.25-9.75t12.25-3.75q14,7.5,15,19-3.51,17-33,37.5t-70.5,20.5q-30.51,0-55-12-31.5-15-49.5-46.5-16.5-29-17.5-64.5a139,139,0,0,1,15.25-68.25,119.19,119.19,0,0,1,47.25-49.75q23-14,53.5-14,37.5,0,65,19.5A100.16,100.16,0,0,1,788.84,383.61Zm-109-22.5q-17.51,6.5-24,32-7,28.5-.5,46.5,4,6,9,5,33.49-7.5,57-18.5,4-4,3.5-10.5-.51-24.5-10-42.5-7.5-14-25-14A26.78,26.78,0,0,0,679.84,361.11Z"/><path class="cls-2" d="M928.83,325.11q6,2.52,6,6,0,34.13.5,16.56-.5,9.54-7.5,12.54a77.19,77.19,0,0,0-8.5,4,11.38,11.38,0,0,0-5.75,6.78,31.21,31.21,0,0,0-1.25,8.78q0,5,9,33.11l19,57.19c1,1.67,2.17,2.18,3.5,1.51l3-4.5,24.5-83.5c.67-2.67,1.33-5.5,2-8.5q1-5.5-1.75-8.5t-11-6q-8.25-3-9.25-8.5v-14.5q0-8.5,5.5-12l9-1.5q36.49,0,109.5,1,8.51,4.5,5,30-2,4.5-11.25,7t-11.25,8.5q-1.5,6.5,3.5,21.5l25,77.5q3,4,5,3l2-3q8.46-29,23.37-87a42.7,42.7,0,0,1,1.2-6.05,18.11,18.11,0,0,0,0-6.05,8.31,8.31,0,0,0-2.5-5.28q-2-1.76-9.25-4.54t-9.25-7.3q-.49-21.15-1-16.12.5-9.57,7.5-13.1,51-.5,77,.5,6.5,2.5,7,11.52a102.22,102.22,0,0,1-1,14.53q-1,7-11,10t-12,7.51l-5,8.52q-9.49,30.57-27,91.7t-26.49,91.69q-3.49,6-11.5,6.75t-15.48.75h-20q-12,0-15.5-9.52L1002.86,435.6q-2.5-3-5-1l-4,9-36.5,115.5q-2.51,7-7,8.49-23,1-46.51,0-6-2.5-10.5-15-21.5-59-64.51-176.5a18.64,18.64,0,0,0-9.25-10q-6.75-3.5-13.25-7-6-12-.5-32,1.5-2,6-3h81.5Q913.84,324.11,928.83,325.11Z"/><path class="cls-2" d="M1586.33,213.11q11,1.5,15,10,5,14,13,65c1.32,7,.5,11.92-2.5,14.75s-11.5,5.25-25.5,7.25q-6.51-1.5-10.5-9-7.5-16-14.5-31.5-10.5-17.51-28-17.5h-42.5q-9.51,0-11.5,8-.51,10,.5,91,1,6.5,8.5,7c5,.33,9.82.67,14.5,1q12-1,17-10,2-4,4-16.5,1-11,5.5-15.5,6.48-3.5,26.5-2.5c4.32,1.33,7,4.5,8,9.5q3,55,1.5,105,0,7.5-7.5,10.5-18.51,4-28-2.5-2-3-5.5-20-2.52-13-12-16.5-21.51-4-30.5,3-3,23-2.5,56.5.48,61.5,1,57,1.5,6.5,12.75,8c7.5,1,12.07,3.5,13.75,7.5q2.49,21-1.5,30.5-3,4.5-9,4.5l-116,.5q-9.51,0-11-8a41.14,41.14,0,0,0,0-9c-.34-5-.5-8.33-.5-10q0-12,9-15l9-2a7.74,7.74,0,0,0,6-5l1-4.5v-247q-.51-8.5-4-13c-5-1.33-10.18-2.83-15.5-4.5s-7.84-5.33-7.5-11q0-21,5.75-24c3.82-2,9.25-3,16.25-3h16.5Z"/><path class="cls-2" d="M1717.32,214.61q6.5,1,8.5,9l-1.5,56.5v240q2.49,5,15.5,7.5,11,2,11.5,10.25t1,16.25q-.51,9.5-7.5,12.5-21,0-63,1-18,.5-53.5-1-5,.5-7.25-5.75t-1.75-23.25q1.54-7.5,10.36-10,7.24-2,15-3.5,3.61-3,3.62-13.5v-253q-1.5-5-10.25-6.75t-10.5-6.75q-1.75-5-.75-24,1-5,9-6.5Z"/><path class="cls-2" d="M1975.82,370.11q12,28.5,13,72.5v74.5c0,1.67,1.16,3.83,3.5,6.5,2.32.33,5.25-.58,8.75-2.75s6.25-3.25,8.25-3.25a8,8,0,0,1,3.5,1q11,9,11.5,17-10,22.5-40,31-8.52,2.49-24.5,3.5a95,95,0,0,1-11.5-2.5q-9-1.5-19.5-10l-16-15q-4,1-10,6.5t-9,7q-21,15.5-51,15.5-22,0-38.5-8.5-31.5-16-31.5-55.5a75.62,75.62,0,0,1,1-12.5q6-37,45-57,17.49-9,73-23.5,10-3,12.75-8.75a29.2,29.2,0,0,0,2.75-12.75q0-13.5-7-23-9-10.5-20-10-16.5,1-23,16-2.5,9.5-11.5,28a12.74,12.74,0,0,1-6.5,2.5q-2.5,0-7.5-.5c-3.34-.33-5.5-.5-6.5-.5q-11-3-21.5-5.5-12-4.5-15-15-3.51-33,35-54,26-14,59.5-14,35.49,0,60.5,16Q1966.32,347.11,1975.82,370.11Zm-89.5,82.5q-21.51,5.5-32,20.5a36.08,36.08,0,0,0-7,22,33,33,0,0,0,3.5,15q8.49,14,26.5,12,20.49-2,27.5-15,8.49-20,3.5-54-1.5-6-8-6Q1893.32,447.11,1886.32,452.61Z"/><path class="cls-2" d="M2145.31,326.61q7.5,1.49,7.5,7.94,0,21.85.5,15.39-1,9-7.5,11.93-6,1-15.5,7.94a10.34,10.34,0,0,0-1.5,9.44,78.83,78.83,0,0,0,2.5,9.44l34.5,84.43c1.67,3,3.5,3.32,5.5,1q7-17,16.5-45.5,11.51-36,15.5-46,1-13-1-15.25t-9.25-5.25q-7.24-3-9.75-7-1-21-1-16.5.49-9.5,7-12.5,36.49-1,87,.5,5.51,3,6,12,0-2-.5,14.5-2.51,6-13,9.25t-13,9.25l-7.5,17-66,174.5q-4,4.5-8.5,4.5h-39.5q-5.51-1.5-9.5-11l-80-179.26a18.85,18.85,0,0,0-9.25-9.46q-6.75-3.48-12.75-6.48-4-4.47-3.5-15.44v-9.46c.34-4,1.5-6.71,3.5-8.21a9.49,9.49,0,0,1,5.5-2.24Q2067.31,326.11,2145.31,326.61Z"/><path class="cls-2" d="M2520.31,382.61q14.49,27.5,14.5,60.5,0,51-30,86.5-35.51,42-96,42a138.37,138.37,0,0,1-44-7q-33.51-11.5-55.75-41.75t-23.75-65.25l-2-2h1.5q-1.5-38,14.5-70,17-34,49.5-52,27.49-15.5,62.5-15.5,45.49,0,77,24.5Q2507.3,357.11,2520.31,382.61Zm-121.5-21.5q-18,6-25,26.5-3.51,11-6,39,1.5,33.5,5,50,5.49,27,20.5,44,13.5,11.5,31,7.5,18-6.5,23-22,6.49-18.5,6.5-42,0-35.5-13-74a48.59,48.59,0,0,0-13-20.75q-9.51-9.25-21-9.25A32.65,32.65,0,0,0,2398.81,361.11Z"/><path class="cls-2" d="M2637.86,325.11a10.27,10.27,0,0,1,8.45,8.52V498.56q0,12.54,13.12,18.05a23,23,0,0,0,8.07,1.5q15.63,0,26.24-14.5,5.53-7.5,8.07-22v-105q-.48-3.5-.95-7.25a5.19,5.19,0,0,0-3.79-4.75c-2.22-.67-4.67-1.33-7.35-2s-4.43-2-5.22-4-1.19-10.67-1.19-26q1.5-7,8.5-8,39-.5,80,.5,7,.5,8.75,6.25t2.25,30.75q-1,53,0,156,1.47,5,5.42,6c2,.33,4.68-.58,8.13-2.75s6.17-3.25,8.14-3.25,3.95,1,5.92,3a21.47,21.47,0,0,1,7.89,12q-1.5,19-30.5,32.5a59.87,59.87,0,0,1-25,5q-18,0-32-8-2-.5-13-10-8-6-15-4.5-41.51,22.5-71.5,22.5a69.05,69.05,0,0,1-33-8q-29.51-15-31-49.5-.51-17.5-.5-144.5-2.51-3-9.75-4.5t-8.75-6q-2.51-17,1.49-28.5,2.49-4.5,12.94-5Z"/><path class="cls-2" d="M3033.81,345.11q9,14.5,10,34-1.5,8-10,11.25c-5.68,2.17-11,4.08-16,5.75-1,0-5.68,1.5-14,4.5a51.8,51.8,0,0,1-14,2.5,24,24,0,0,1-8.5-1.5q-3.51-7-7-14.5-5-8-13-8.5-9-.5-17.5,7.5-12,16-11.5,55.5l1,80.5q2.49,3,10.75,4t11,4.25a15.49,15.49,0,0,1,3.25,8.75,78,78,0,0,1,.5,10c-.34,5-.5,8.33-.5,10q-1,6.5-6,7.5l-19,1h-97.5q-6,0-7.5-7-.51-16,0-24.5c1.32-4,5.5-6.58,12.5-7.75s11.5-3.25,13.5-6.25V377.61q0-9-4.37-10t-8.47-1.75a7.14,7.14,0,0,1-5.64-4.25,113,113,0,0,1-1-26c1-3.33,3.32-5.83,7-7.5q27.48-.5,81-.5,4-.5,10,4.5,1,4,3.5,12,24.48-25,52-25Q3018.79,319.11,3033.81,345.11Z"/><path class="cls-2" d="M3189.8,332.61a16.6,16.6,0,0,0,4,.5c2.67,0,5.33-1.17,8-3.5s5.17-4.67,7.5-7q16.5-3,21,4.5,3.49,12.5,5.5,32.5l3,33q-1.5,14.5-26.5,11.5-4-3.5-8.5-11-6-10-8-12.5-17.51-21.5-36-21.5-16.5,0-22,10.5-6.5,12.5,2,24,11.5,10.5,35,18,27.49,8.5,37,14.5,37,18,38.5,58.5a83,83,0,0,1-10.5,42.5,73.93,73.93,0,0,1-31,30.5q-21.5,11.5-49,11.5a104.6,104.6,0,0,1-36-6q-19-7-23-7a20.36,20.36,0,0,0-6.5,1q-5,3.5-10.5,7.25t-11,2.75q-5,.5-13-3.5-5-7.5-7.5-36.5l-4.5-47c.67-4.67,1-7.33,1-8a7.56,7.56,0,0,1,5.5-5q17.5-5,25,1.51,15,38.31,35.5,49.91,18,10.08,34.5,10.08,14,0,23.5-8a19.08,19.08,0,0,0,6.5-14.54q0-12.53-18-21-57-26.56-61-29.07-33.5-21-39.5-51.63a87,87,0,0,1-1.5-16q0-32.58,25-52.62,20.5-16,52-16,24,0,43,9Z"/><path class="cls-2" d="M554.83,930.11q7.6,1.2,16.4,19.5l64.4,138.9c.8.8,1.47,1.07,2,.8l1.6-2V978.11q0-8-4.9-12c-1.08-1.06-3.6-2-7.55-2.8s-6.46-2.26-7.55-4.4q-3.19-14,1.2-25.6,2.8-3.6,11.2-3.6l60.8.8q5.6,2.4,6,10.4v13.2q0,7.6-4.77,9t-9.74,2.4q-5,1-6.63,5l-1.66,7.6v228.4q-1.61,9.21-7.22,9.2l-46.93-.8q-5.22-.39-8.83-9.12l-79.12-177.23q-2.78-4.44-5.1,0V1165.6q.8,6,1.2,7.61a12.14,12.14,0,0,0,4.4,6.42,87.32,87.32,0,0,0,10,3.21q6.4,1.2,7.6,6.41c.27,4.55.53,9,.8,13.23q0,7.62-3.6,11.62l-3.6,1.61H480c-1.87-.54-4.13-2-6.8-4.4a33.75,33.75,0,0,1,0-24q1.61-2.8,8.6-5t8.2-6.6l1.6-7.58V975.25q0-9.19-6.52-10.79l-6.9-1.8a6.63,6.63,0,0,1-5-4.19q-1.61-20.37,2-26,4-3.18,10.8-2.79Z"/><path class="cls-2" d="M906,1067.71a102.21,102.21,0,0,1,11.6,48.4q0,40.8-24,69.2-28.41,33.6-76.8,33.6a110.65,110.65,0,0,1-35.2-5.6q-26.8-9.19-44.6-33.4t-19-52.2l-1.6-1.6h1.2q-1.2-30.39,11.6-56a94.79,94.79,0,0,1,39.6-41.6q22-12.39,50-12.4,36.39,0,61.6,19.6Q895.63,1047.32,906,1067.71Zm-97.2-17.2q-14.4,4.8-20,21.2-2.8,8.8-4.8,31.2,1.2,26.8,4,40,4.4,21.6,16.4,35.2,10.8,9.21,24.8,6,14.4-5.19,18.4-17.6,5.19-14.79,5.2-33.6,0-28.4-10.4-59.2a39,39,0,0,0-10.4-16.6q-7.6-7.39-16.8-7.4A26.4,26.4,0,0,0,808.83,1050.51Z"/><path class="cls-2" d="M1018.83,1021.71q4.8,2,4.8,4.82,0,27.3.4,13.24-.4,7.63-6,10a60,60,0,0,0-6.8,3.2,9.1,9.1,0,0,0-4.6,5.43,24.66,24.66,0,0,0-1,7q0,4,7.2,26.49l15.2,45.75c.8,1.34,1.73,1.75,2.8,1.21l2.4-3.6,19.6-66.8q.8-3.19,1.6-6.8.79-4.39-1.4-6.8t-8.8-4.8q-6.6-2.4-7.4-6.8v-11.6q0-6.8,4.4-9.6l7.2-1.2q29.19,0,87.6.8,6.79,3.6,4,24-1.6,3.6-9,5.6t-9,6.8q-1.2,5.21,2.8,17.2l20,62q2.37,3.21,4,2.4l1.59-2.42q6.75-23.22,18.69-69.63a34.33,34.33,0,0,1,1-4.84,14.71,14.71,0,0,0,0-4.84,6.7,6.7,0,0,0-2-4.22q-1.6-1.41-7.4-3.63t-7.4-5.85q-.4-16.92-.8-12.89.39-7.67,6-10.48,40.8-.39,61.6.4,5.19,2,5.6,9.22a82.71,82.71,0,0,1-.8,11.62q-.81,5.63-8.8,8t-9.6,6l-4,6.82q-7.61,24.45-21.6,73.36t-21.19,73.35q-2.81,4.8-9.2,5.4c-4.26.4-8.4.6-12.39.6h-16q-9.6,0-12.4-7.61l-31.61-98c-1.34-1.59-2.67-1.85-4-.79l-3.2,7.2-29.2,92.4q-2,5.61-5.6,6.8-18.39.8-37.2,0-4.8-2-8.4-12-17.21-47.19-51.61-141.2a15,15,0,0,0-7.4-8q-5.4-2.79-10.6-5.6-4.8-9.6-.4-25.6,1.2-1.59,4.8-2.4h65.2Q1006.83,1020.91,1018.83,1021.71Z"/><path class="cls-2" d="M1527.22,1057.71q9.6,22.8,10.4,58v59.6c0,1.34.94,3.07,2.8,5.2q2.8.4,7-2.2t6.6-2.6a6.47,6.47,0,0,1,2.8.8q8.81,7.2,9.2,13.6-8,18-32,24.8-6.8,2-19.6,2.8a76.93,76.93,0,0,1-9.2-2q-7.2-1.2-15.6-8l-12.8-12q-3.19.81-8,5.2a37.62,37.62,0,0,1-7.2,5.6q-16.8,12.39-40.8,12.4-17.6,0-30.8-6.8-25.2-12.79-25.2-44.4a61.19,61.19,0,0,1,.8-10q4.8-29.6,36-45.6,14-7.2,58.4-18.8,8-2.4,10.2-7a23.25,23.25,0,0,0,2.2-10.2q0-10.8-5.6-18.4-7.2-8.4-16-8-13.2.81-18.4,12.8-2,7.6-9.2,22.4a10,10,0,0,1-5.2,2q-2,0-6-.4c-2.66-.26-4.4-.4-5.2-.4q-8.79-2.4-17.2-4.4-9.6-3.6-12-12-2.79-26.4,28-43.2,20.81-11.19,47.6-11.2,28.41,0,48.4,12.8Q1519.62,1039.32,1527.22,1057.71Zm-71.6,66q-17.19,4.41-25.6,16.4a28.92,28.92,0,0,0-5.6,17.6,26.53,26.53,0,0,0,2.8,12q6.81,11.2,21.2,9.6,16.41-1.59,22-12,6.81-16,2.8-43.2-1.2-4.8-6.4-4.8Q1461.23,1119.31,1455.62,1123.71Z"/><path class="cls-2" d="M1662.82,1022.91q6,1.19,6,6.35,0,17.49.4,12.32-.81,7.15-6,9.53-4.8.81-12.4,6.36a8.27,8.27,0,0,0-1.2,7.55,61.63,61.63,0,0,0,2,7.55l27.6,67.54q2,3.6,4.4.8,5.6-13.59,13.2-36.4,9.2-28.8,12.4-36.8.79-10.39-.8-12.2t-7.4-4.2q-5.8-2.4-7.8-5.6-.81-16.8-.8-13.2.39-7.59,5.6-10,29.19-.79,69.6.4,4.39,2.4,4.8,9.6,0-1.59-.4,11.6-2,4.8-10.4,7.4t-10.4,7.4l-6,13.6-52.8,139.6c-2.14,2.4-4.4,3.6-6.8,3.6H1654c-2.94-.8-5.47-3.71-7.6-8.76l-64-143.41a15.12,15.12,0,0,0-7.4-7.57q-5.4-2.79-10.2-5.18-3.19-3.58-2.8-12.35v-7.57q.4-4.77,2.8-6.57a7.59,7.59,0,0,1,4.4-1.79Q1600.42,1022.51,1662.82,1022.91Z"/><path class="cls-2" d="M1937.62,1057.71q9.6,22.8,10.4,58v59.6q0,2,2.8,5.2c1.86.27,4.2-.46,7-2.2s5-2.6,6.6-2.6a6.5,6.5,0,0,1,2.8.8q8.79,7.2,9.2,13.6-8,18-32,24.8-6.81,2-19.6,2.8a76.52,76.52,0,0,1-9.2-2q-7.2-1.2-15.6-8l-12.8-12q-3.21.81-8,5.2a37.62,37.62,0,0,1-7.2,5.6q-16.8,12.39-40.8,12.4-17.61,0-30.8-6.8-25.2-12.79-25.2-44.4a60.1,60.1,0,0,1,.8-10q4.8-29.6,36-45.6,14-7.2,58.4-18.8,8-2.4,10.2-7a23.39,23.39,0,0,0,2.2-10.2q0-10.8-5.6-18.4-7.2-8.4-16-8-13.2.81-18.4,12.8-2,7.6-9.2,22.4a10.11,10.11,0,0,1-5.2,2q-2,0-6-.4c-2.67-.26-4.4-.4-5.2-.4q-8.81-2.4-17.2-4.4-9.6-3.6-12-12-2.8-26.4,28-43.2,20.79-11.19,47.6-11.2,28.39,0,48.4,12.8Q1930,1039.32,1937.62,1057.71Zm-71.6,66q-17.2,4.41-25.6,16.4a28.86,28.86,0,0,0-5.6,17.6,26.4,26.4,0,0,0,2.8,12q6.8,11.2,21.2,9.6,16.4-1.59,22-12,6.79-16,2.8-43.2c-.8-3.2-2.94-4.8-6.4-4.8Q1871.61,1119.31,1866,1123.71Z"/><path class="cls-2" d="M2067.62,1025.71q2,3.6,2,16v136.8c.8,2.67,3.06,4.27,6.8,4.8,5.86.8,9.06,1.34,9.59,1.6q3.61,1.6,4,7.6t.41,12.4q-.4,7.2-5.6,9.6l-8.4,1.2q-9.61,0-44,.4h-43.6a7.51,7.51,0,0,1-5.61-4q-.8-5.61,0-21.64,1.61-5.22,10.21-6t10.59-5.62V1066.6q0-9.61-2.8-12c-.79-.54-3.59-1.47-8.39-2.81-3.47-.8-5.74-2.41-6.81-4.81q-1.2-6,0-18.84c.81-3.21,3.07-5.07,6.81-5.61H2056Q2063.61,1020.92,2067.62,1025.71Zm-12.2-81.8a34.78,34.78,0,1,1-24.6-10.2A33.56,33.56,0,0,1,2055.42,943.91Z"/><path class="cls-2" d="M2184.81,933.31q5.21.81,6.8,7.2l-1.2,45.2v192q2,4,12.4,6,8.8,1.61,9.2,8.2t.8,13q-.41,7.6-6,10-16.8,0-50.4.8-14.4.39-42.8-.8c-2.66.26-4.6-1.26-5.8-4.6s-1.67-9.53-1.4-18.6q1.24-6,8.29-8,5.79-1.59,12-2.8,2.89-2.4,2.9-10.8V967.71q-1.2-4-8.2-5.4t-8.4-5.4q-1.4-4-.6-19.2c.54-2.66,2.93-4.4,7.2-5.2Z"/><path class="cls-2" d="M2391.61,1057.71q9.6,22.8,10.4,58v59.6q0,2,2.8,5.2c1.86.27,4.2-.46,7-2.2s5-2.6,6.6-2.6a6.5,6.5,0,0,1,2.8.8q8.79,7.2,9.2,13.6-8,18-32,24.8-6.81,2-19.6,2.8a76.52,76.52,0,0,1-9.2-2q-7.2-1.2-15.6-8l-12.8-12q-3.21.81-8,5.2a37.62,37.62,0,0,1-7.2,5.6q-16.8,12.39-40.8,12.4-17.61,0-30.8-6.8-25.2-12.79-25.2-44.4a60.1,60.1,0,0,1,.8-10q4.8-29.6,36-45.6,14-7.2,58.4-18.8,8-2.4,10.2-7a23.39,23.39,0,0,0,2.2-10.2q0-10.8-5.6-18.4-7.2-8.4-16-8-13.2.81-18.4,12.8-2,7.6-9.2,22.4a10.11,10.11,0,0,1-5.2,2q-2,0-6-.4c-2.67-.26-4.4-.4-5.2-.4q-8.8-2.4-17.2-4.4-9.6-3.6-12-12-2.81-26.4,28-43.2,20.79-11.19,47.6-11.2,28.39,0,48.4,12.8Q2384,1039.32,2391.61,1057.71Zm-71.6,66q-17.21,4.41-25.6,16.4a28.86,28.86,0,0,0-5.6,17.6,26.4,26.4,0,0,0,2.8,12q6.79,11.2,21.2,9.6,16.39-1.59,22-12,6.8-16,2.8-43.2c-.8-3.2-2.94-4.8-6.4-4.8Q2325.6,1119.31,2320,1123.71Z"/><path class="cls-2" d="M2508.41,934.91q4.4.4,6.8,5.6-.81,31.2,0,94,.79,2.4,4,0,18-12.79,41.6-12.8,20,0,34.4,10,45.2,31.2,45.2,90a135,135,0,0,1-2.8,27.2q-5.21,24-24.8,43.6t-43.6,25.2a85.5,85.5,0,0,1-20,2.4q-28,0-46.8-16-4.41-1.2-9.6,4.4-6.41,6.4-9.2,7.6-6,2-24.4.4c-2.14-.27-4.14-2.13-6-5.6q-.4-33.2-.4-242-1.61-3.6-8.2-5.2t-8-4.4q-1.41-2.79-1.4-18.8a6.63,6.63,0,0,1,4.4-6l2.4-.8Zm46.8,129.6q-11.21-6.79-23.6-1.2-12,7.2-16,22.4-1.61,5.61-4,28-.41,27.6,1.2,38.4,3.6,20.81,17.2,32a25.23,25.23,0,0,0,15.6,4.8,24.06,24.06,0,0,0,11.6-2.8q17.19-10.8,18.4-43.2,1.2-43.2-10.8-67.6A25.43,25.43,0,0,0,2555.21,1064.51Z"/><path class="cls-2" d="M2733.2,933.31q5.21.81,6.8,7.2l-1.2,45.2v192q2,4,12.4,6,8.81,1.61,9.2,8.2t.8,13q-.4,7.6-6,10-16.8,0-50.4.8-14.4.39-42.8-.8c-2.67.26-4.6-1.26-5.8-4.6s-1.67-9.53-1.4-18.6q1.24-6,8.29-8,5.79-1.59,12-2.8,2.9-2.4,2.9-10.8V967.71q-1.2-4-8.2-5.4t-8.4-5.4q-1.41-4-.6-19.2.79-4,7.2-5.2Z"/><path class="cls-2" d="M2950.8,1068.51q10.8,25.6,10.8,36.8,0,6.81-16,13.2-19.2,7.6-58.4,20l-34.4,9.2a4.76,4.76,0,0,0-3.2,3.6,36.9,36.9,0,0,0,11.8,25.4q11,10.61,25.4,10.6,17.6,0,40-16.8,4.39-3.6,9-7.8t9.8-3q11.19,6,12,15.2-2.8,13.6-26.4,30t-56.4,16.4q-24.4,0-44-9.6-25.2-12-39.6-37.2-13.2-23.19-14-51.6a111.17,111.17,0,0,1,12.2-54.6,95.34,95.34,0,0,1,37.8-39.8q18.39-11.19,42.8-11.2,30,0,52,15.6A80.24,80.24,0,0,1,2950.8,1068.51Zm-87.2-18q-14,5.21-19.2,25.6-5.61,22.8-.4,37.2,3.2,4.8,7.2,4,26.79-6,45.6-14.8a10.2,10.2,0,0,0,2.8-8.4q-.41-19.59-8-34-6-11.19-20-11.2A21.49,21.49,0,0,0,2863.6,1050.51Z"/></g></svg>