<svg xmlns="http://www.w3.org/2000/svg" viewBox="0 0 3840 2160"><defs><style>.cls-1{fill:#808285;stroke:#fff;stroke-miterlimit:10;}.cls-2{fill:#fff;}</style></defs><g id="Layer_1" data-name="Layer 1"><rect class="cls-1" width="3840" height="2160"/><path class="cls-2" d="M582.91,1935.25q1,.15,2.7,3.45l1.95,6.6q6.15,20.85,25.8,79.5.9,2.85,6.75,4.8a5,5,0,0,1,1.35,3.9c0,1.5-.06,3-.15,4.5q-.15,2.7-1.8,3.3l-3,.45-36.45-.15a2.24,2.24,0,0,1-2.25-2.4q0-.6-.3-3.3a9,9,0,0,1,0-3.3,3.38,3.38,0,0,1,1.5-2.4q1.8-.6,3.75-1.35a2.49,2.49,0,0,0,1.8-2.7q-1.21-5.4-4.35-14.7a3.39,3.39,0,0,0-2.7-1.5l-3.45-.3h-21.6a3.48,3.48,0,0,0-3.15,2.09l-3.9,13.29q-.15,2.38,2.92,3.59c2,.79,3.28,1.69,3.68,2.68a17.44,17.44,0,0,1-.6,9.11c-.4.5-2.25.94-5.55,1.34l-19.35-.15q-2.25-.88-2.25-4.17c0-1.78,0-3.57.15-5.36.2-1.19,1.22-2.15,3.07-2.9s3-1.71,3.38-2.91l1.8-5.06q9.3-28.2,28.8-84.3.45-1.35,3.9-1.8ZM564.6,1963.9q-6.71,20-10.13,32c.1.5.89.94,2.39,1.33q16.42,0,17.33-.15c1-.59,1.39-1.19,1.19-1.79q-3-10.65-9.62-32.09C565.18,1963,564.79,1963.21,564.6,1963.9Z"/><path class="cls-2" d="M742.21,1977.25a1.2,1.2,0,0,0,1.8.15,29.6,29.6,0,0,1,27.9-7.5,16.84,16.84,0,0,1,7.8,4.88,15.67,15.67,0,0,1,4.2,8.17,89.38,89.38,0,0,1,.9,15.3q-.4,7.8-.6,15.6v14.55a2.41,2.41,0,0,0,1.35,1.95,5.43,5.43,0,0,0,2.77-1.2A5.42,5.42,0,0,1,791,2028a2,2,0,0,1,1.2.45q3.6,2.55,3.15,4.65-1.78,7.5-11.75,9.9a28.69,28.69,0,0,1-6.4.75q-9.66,0-14.13-6.75c-1.48-2.4-2.33-5.7-2.52-9.9V2016.4q.13-8.7,0-26c-.11-2.3-1.38-4-3.83-5a6.54,6.54,0,0,0-5.81.6q-6,3.75-6,14.25V2028a5.27,5.27,0,0,0,3.45,1.35c1.69.2,2.82.65,3.37,1.35a5.09,5.09,0,0,1,1,2.7,19.83,19.83,0,0,1,0,3.3c-.11,1.7-.15,2.75-.15,3.15a2.66,2.66,0,0,1-2.48,1.65l-3.67.3H726.76a18.43,18.43,0,0,1-3.15-.15,3.9,3.9,0,0,1-2.55-1.5l-.3-3.6q-.62-8.85-.15-23.1.45-17.85.3-23-.9-3.9-3.6-5.1a5.87,5.87,0,0,0-6.9,1.36q-4.5,4.36-4.5,14v26.85a2.39,2.39,0,0,0,2.4,1.66,10.83,10.83,0,0,1,3.15.6,4.89,4.89,0,0,1,2.1,4.22c0,1.81-.06,3.57-.15,5.28a3,3,0,0,1-1.95,2.26l-35.4.15a3.19,3.19,0,0,1-2.4-2.11c-.41-4.73-.15-7.75.75-9.06a6.9,6.9,0,0,1,3-1,16.92,16.92,0,0,0,3.37-.83c.55-.25.83-1.79.83-4.61q.45-22.93.3-41.35c-.21-1-1.16-1.71-2.85-2.12s-2.66-1.2-2.85-2.41v-5.29c.09-2.21,1-3.51,2.7-3.92q9-.15,23.7.16a3.57,3.57,0,0,1,3.3,2.47,4.54,4.54,0,0,0,.9,2.17,9.66,9.66,0,0,0,3.15-1q2.38-1.05,3-1.35a46.86,46.86,0,0,1,13.5-2.4q7,0,11.4,3.45A47.56,47.56,0,0,1,742.21,1977.25Z"/><path class="cls-2" d="M863,1986.55q4,9.6,4,13.8c0,1.7-2,3.35-6,5q-7.2,2.85-21.9,7.5l-12.9,3.45a1.76,1.76,0,0,0-1.2,1.35,13.83,13.83,0,0,0,4.42,9.53,13.33,13.33,0,0,0,9.53,4q6.59,0,15-6.3c1.09-.9,2.22-1.87,3.37-2.92a3.94,3.94,0,0,1,3.68-1.13q4.18,2.25,4.5,5.7-1.07,5.1-9.9,11.25t-21.15,6.15a37,37,0,0,1-16.5-3.6,33.32,33.32,0,0,1-14.85-14,40.71,40.71,0,0,1-5.25-19.35,41.59,41.59,0,0,1,4.57-20.47,35.74,35.74,0,0,1,14.18-14.93,30.2,30.2,0,0,1,16-4.2,32.86,32.86,0,0,1,19.5,5.85A30.17,30.17,0,0,1,863,1986.55Zm-32.7-6.75q-5.26,2-7.2,9.6-2.12,8.55-.15,13.95,1.19,1.8,2.7,1.5a84.2,84.2,0,0,0,17.1-5.55,3.88,3.88,0,0,0,1-3.15,28.48,28.48,0,0,0-3-12.75c-1.5-2.8-4-4.2-7.5-4.2A8,8,0,0,0,830.26,1979.8Z"/><path class="cls-2" d="M914.1,1971.25a4.93,4.93,0,0,0,1.2.15,3.67,3.67,0,0,0,2.4-1.05q1.2-1,2.25-2.1,4.95-.9,6.3,1.35a59.09,59.09,0,0,1,1.65,9.75l.9,9.9q-.45,4.35-7.95,3.45a14,14,0,0,1-2.55-3.3q-1.8-3-2.4-3.75-5.25-6.45-10.8-6.45-5,0-6.6,3.15a6.35,6.35,0,0,0,.6,7.2q3.45,3.15,10.5,5.4,8.25,2.55,11.1,4.35,11.1,5.4,11.55,17.55a24.88,24.88,0,0,1-3.15,12.75,22.17,22.17,0,0,1-9.3,9.15,30.68,30.68,0,0,1-14.7,3.45,31.38,31.38,0,0,1-10.8-1.8q-5.7-2.1-6.9-2.1a6.13,6.13,0,0,0-1.95.3c-1,.7-2.05,1.43-3.15,2.18a4.34,4.34,0,0,1-3.3.82,7.59,7.59,0,0,1-3.9-1q-1.5-2.25-2.25-11l-1.35-14.1q.3-2.1.3-2.4a2.27,2.27,0,0,1,1.65-1.5q5.25-1.5,7.5.46,4.5,11.49,10.65,15a21.27,21.27,0,0,0,10.35,3,10.57,10.57,0,0,0,7-2.4,5.74,5.74,0,0,0,2-4.36q0-3.76-5.4-6.32-17.1-8-18.3-8.72-10.05-6.32-11.85-15.49A26.1,26.1,0,0,1,875,1988a19.27,19.27,0,0,1,7.5-15.79q6.15-4.8,15.6-4.81a29.77,29.77,0,0,1,12.9,2.7Z"/><path class="cls-2" d="M979.65,1971.25a4.93,4.93,0,0,0,1.2.15,3.67,3.67,0,0,0,2.4-1.05q1.2-1,2.25-2.1,4.95-.9,6.3,1.35a59.09,59.09,0,0,1,1.65,9.75l.9,9.9q-.45,4.35-8,3.45a14,14,0,0,1-2.55-3.3q-1.8-3-2.4-3.75-5.25-6.45-10.8-6.45-4.95,0-6.6,3.15a6.35,6.35,0,0,0,.6,7.2q3.45,3.15,10.5,5.4,8.25,2.55,11.1,4.35,11.1,5.4,11.55,17.55a24.88,24.88,0,0,1-3.15,12.75,22.17,22.17,0,0,1-9.3,9.15,30.68,30.68,0,0,1-14.7,3.45,31.38,31.38,0,0,1-10.8-1.8q-5.7-2.1-6.9-2.1a6.13,6.13,0,0,0-2,.3c-1,.7-2,1.43-3.15,2.18a4.34,4.34,0,0,1-3.3.82,7.59,7.59,0,0,1-3.9-1q-1.5-2.25-2.25-11l-1.35-14.1q.3-2.1.3-2.4a2.27,2.27,0,0,1,1.65-1.5q5.25-1.5,7.5.46,4.5,11.49,10.65,15a21.27,21.27,0,0,0,10.35,3,10.57,10.57,0,0,0,7-2.4,5.74,5.74,0,0,0,2-4.36q0-3.76-5.4-6.32-17.1-8-18.3-8.72-10-6.32-11.85-15.49a26.1,26.1,0,0,1-.45-4.81,19.27,19.27,0,0,1,7.5-15.79q6.15-4.8,15.6-4.81a29.77,29.77,0,0,1,12.9,2.7Z"/><path class="cls-2" d="M1063.5,1982.5q3.6,8.55,3.9,21.75v22.35a3.4,3.4,0,0,0,1,2,4.16,4.16,0,0,0,2.63-.82,5.27,5.27,0,0,1,2.47-1,2.42,2.42,0,0,1,1,.3q3.3,2.7,3.45,5.1-3,6.75-12,9.3a35.43,35.43,0,0,1-7.35,1,28.07,28.07,0,0,1-3.45-.75,13.07,13.07,0,0,1-5.85-3l-4.8-4.5a7.82,7.82,0,0,0-3,2,14.21,14.21,0,0,1-2.7,2.1,27.47,27.47,0,0,1-26.85,2.1q-9.45-4.8-9.45-16.65a22.79,22.79,0,0,1,.3-3.75q1.8-11.1,13.5-17.1,5.25-2.7,21.9-7.05,3-.9,3.83-2.62a8.77,8.77,0,0,0,.82-3.83,11.31,11.31,0,0,0-2.1-6.9q-2.7-3.15-6-3a7.49,7.49,0,0,0-6.9,4.8,51.41,51.41,0,0,1-3.45,8.4,3.81,3.81,0,0,1-2,.75q-.75,0-2.25-.15t-1.95-.15q-3.3-.9-6.45-1.65a6.75,6.75,0,0,1-4.5-4.5q-1-9.9,10.5-16.2a37.06,37.06,0,0,1,17.85-4.2q10.65,0,18.15,4.8A23.42,23.42,0,0,1,1063.5,1982.5Zm-26.85,24.75q-6.45,1.65-9.6,6.15a10.83,10.83,0,0,0-2.1,6.6,9.92,9.92,0,0,0,1,4.5q2.55,4.2,8,3.6,6.15-.6,8.25-4.5,2.55-6,1-16.2a2.22,2.22,0,0,0-2.4-1.8A6.79,6.79,0,0,0,1036.65,2007.25Z"/><path class="cls-2" d="M1148,1957.9q2.1,5.25-.36,8.48t-10.91,4.57a2.66,2.66,0,0,0-1.63,1.8,2.53,2.53,0,0,0,1.13,2c.75.6,1.47,1.15,2.17,1.65q9.6,8.7,9.6,20.25a25.45,25.45,0,0,1-1,7.05,26.11,26.11,0,0,1-7.7,12.3,34,34,0,0,1-12.93,7.8,35.48,35.48,0,0,1-18.69.75,2.75,2.75,0,0,0-1.94,2,3.39,3.39,0,0,0,1.35,3.38c1.09.85,3.34,1.47,6.73,1.87q11.8,0,14.79.15a35.49,35.49,0,0,1,13.76,3.75q8.37,5.7,8.37,15.15a21.86,21.86,0,0,1-.3,3.6q-2.85,15-24.9,19.5a52.39,52.39,0,0,1-11.1,1.2q-16.5,0-28.65-9.45-5-4.95-5-9a7.2,7.2,0,0,1,.45-2.55,6.33,6.33,0,0,1,3.15-4.2,10.26,10.26,0,0,1,4.35-1q4.2,0,9.9,4.7,7.35,6.21,9.15,7.13a22.32,22.32,0,0,0,9.9,2.27,16.49,16.49,0,0,0,8.55-2.13q2.7-2.28,2.7-3.8a5.89,5.89,0,0,0-.6-2.89q-1-1.36-6.15-2.28-11.85,0-17.1-1.2a22.49,22.49,0,0,1-13.8-8.85,13,13,0,0,1-2.55-8,12.13,12.13,0,0,1,1.65-6.45,20.69,20.69,0,0,1,5.55-5.55q.6-.9-.45-1.5-12.75-8.85-12.75-23.85a31.92,31.92,0,0,1,.45-5.25,26.26,26.26,0,0,1,8-14.47,30.3,30.3,0,0,1,14.89-8.33q8.22-2,18.56.45c.19,0,.64-.5,1.34-1.5q1.8-10.8,8.53-13.35a15.6,15.6,0,0,1,5.24-.9Q1146.16,1953.1,1148,1957.9Zm-33.75,21.9a6.9,6.9,0,0,0-5.1,2.4q-3.45,4-3.45,10.8a28.71,28.71,0,0,0,3.6,14q2.85,5.4,7.8,5.1a7.1,7.1,0,0,0,4.35-2.1q3.3-4,3.3-10.8a35.39,35.39,0,0,0-1.65-10.35Q1119.15,1980.1,1114.2,1979.8Z"/><path class="cls-2" d="M1220.7,1986.55q4,9.6,4,13.8,0,2.55-6,5-7.2,2.85-21.9,7.5l-12.9,3.45a1.79,1.79,0,0,0-1.2,1.35,13.84,13.84,0,0,0,4.43,9.53,13.29,13.29,0,0,0,9.52,4q6.6,0,15-6.3c1.1-.9,2.22-1.87,3.38-2.92a3.92,3.92,0,0,1,3.67-1.13q4.2,2.25,4.5,5.7-1.05,5.1-9.9,11.25t-21.15,6.15a37,37,0,0,1-16.5-3.6,33.32,33.32,0,0,1-14.85-14,40.83,40.83,0,0,1-5.25-19.35,41.59,41.59,0,0,1,4.58-20.47,35.71,35.71,0,0,1,14.17-14.93,30.25,30.25,0,0,1,16.05-4.2,32.84,32.84,0,0,1,19.5,5.85A30,30,0,0,1,1220.7,1986.55Zm-32.7-6.75q-5.25,2-7.2,9.6-2.1,8.55-.15,13.95,1.2,1.8,2.7,1.5a83.79,83.79,0,0,0,17.1-5.55,3.82,3.82,0,0,0,1-3.15,28.22,28.22,0,0,0-3-12.75q-2.25-4.2-7.5-4.2A8,8,0,0,0,1188,1979.8Z"/><path class="cls-2" d="M1340.85,1944.4a15.77,15.77,0,0,1,2.4,8.1,10.59,10.59,0,0,1-1,4.8q-3.15,6.75-11.25,7.2a7.75,7.75,0,0,1-7.5-4q-.15-.3-1.5-6.9-.9-4.2-4.65-4.35-2.55-.3-4.5,3.9a19.81,19.81,0,0,0-.9,6q0,5.55,2.4,8.85,1.5,2,5.85,1.88t5.55,2.17q.15,6.45,0,7.65-1.5,1.5-5.1,1.65-4.2,0-5.55.75t-1.35,5q0,13.5.45,41,.75,1.2,5.1,2.25,3.45.9,3.15,4.2,0-.75.15,3.75a3.68,3.68,0,0,1-1.35,3.3q-4,.6-18.15.6l-17.1-.15q-2.25-.3-2.55-1.8-.75-5.25.3-8.25.75-1.35,5-2.1,3.15-.75,2.7-3.75v-40.8q0-2.7-1.83-3.45a36.33,36.33,0,0,0-4.58-.45,3.14,3.14,0,0,1-2.59-1.35,21.25,21.25,0,0,1,0-8q.6-2.25,4.65-2.32t4.5-2.48q3.6-18.75,14-26,3.15-3.45,11.1-5.25a29.05,29.05,0,0,1,6.45-.75Q1335.3,1935.25,1340.85,1944.4Z"/><path class="cls-2" d="M1397.55,1975a21.05,21.05,0,0,1,3,10.2,4.37,4.37,0,0,1-3,3.38q-2.55,1-4.8,1.72a29.65,29.65,0,0,0-4.2,1.35,15.54,15.54,0,0,1-4.2.75,7.2,7.2,0,0,1-2.55-.45q-1-2.1-2.1-4.35a4.86,4.86,0,0,0-3.9-2.55,7.05,7.05,0,0,0-5.25,2.25q-3.6,4.8-3.45,16.65l.3,24.15c.5.6,1.57,1,3.22,1.2a5.1,5.1,0,0,1,3.3,1.28,4.59,4.59,0,0,1,1,2.62,22.68,22.68,0,0,1,.15,3q-.15,2.25-.15,3-.3,2-1.8,2.25l-5.7.3h-29.25q-1.8,0-2.25-2.1-.15-4.8,0-7.35.6-1.8,3.75-2.32c2.1-.35,3.45-1,4-1.88v-43.35c0-1.8-.44-2.8-1.31-3s-1.72-.37-2.54-.52a2.16,2.16,0,0,1-1.7-1.28,34.41,34.41,0,0,1-.3-7.8,3.58,3.58,0,0,1,2.1-2.25q8.25-.15,24.3-.15,1.2-.15,3,1.35.3,1.2,1,3.6,7.35-7.5,15.6-7.5A14.75,14.75,0,0,1,1397.55,1975Z"/><path class="cls-2" d="M1472.1,1986.25a38.31,38.31,0,0,1,4.35,18.15q0,15.3-9,25.95-10.67,12.6-28.8,12.6a41.42,41.42,0,0,1-13.2-2.1,34.26,34.26,0,0,1-16.73-12.52,35,35,0,0,1-7.12-19.58l-.6-.6h.45a42.33,42.33,0,0,1,4.35-21,35.46,35.46,0,0,1,14.85-15.6,37.49,37.49,0,0,1,18.75-4.65q13.63,0,23.1,7.35A34.64,34.64,0,0,1,1472.1,1986.25Zm-36.45-6.45c-3.6,1.2-6.11,3.85-7.5,8-.71,2.2-1.3,6.1-1.8,11.7a100.17,100.17,0,0,0,1.5,15,27.85,27.85,0,0,0,6.15,13.2,10.13,10.13,0,0,0,9.3,2.25c3.6-1.3,5.89-3.5,6.9-6.6a38.14,38.14,0,0,0,2-12.6,69.31,69.31,0,0,0-3.9-22.2,14.73,14.73,0,0,0-3.9-6.22,8.88,8.88,0,0,0-6.3-2.78A9.74,9.74,0,0,0,1435.65,1979.8Z"/><path class="cls-2" d="M1550.55,1977.25a1.2,1.2,0,0,0,1.8.15,29.6,29.6,0,0,1,27.9-7.5,16.79,16.79,0,0,1,7.8,4.88,15.59,15.59,0,0,1,4.2,8.17,89.38,89.38,0,0,1,.9,15.3q-.4,7.8-.6,15.6v14.55a2.45,2.45,0,0,0,1.35,1.95,5.43,5.43,0,0,0,2.77-1.2,5.42,5.42,0,0,1,2.63-1.2,2,2,0,0,1,1.2.45q3.6,2.55,3.15,4.65-1.79,7.5-11.75,9.9a28.69,28.69,0,0,1-6.4.75q-9.66,0-14.12-6.75-2.24-3.6-2.53-9.9V2016.4q.14-8.7,0-26c-.11-2.3-1.38-4-3.83-5a6.54,6.54,0,0,0-5.81.6q-6,3.75-6,14.25V2028a5.27,5.27,0,0,0,3.45,1.35c1.7.2,2.82.65,3.37,1.35a5,5,0,0,1,1,2.7,19.83,19.83,0,0,1,0,3.3q-.15,2.55-.15,3.15a2.65,2.65,0,0,1-2.48,1.65l-3.67.3H1535.1a18.43,18.43,0,0,1-3.15-.15,3.9,3.9,0,0,1-2.55-1.5l-.3-3.6q-.6-8.85-.15-23.1.45-17.85.3-23-.9-3.9-3.6-5.1a5.87,5.87,0,0,0-6.9,1.36q-4.5,4.36-4.5,14v26.85a2.4,2.4,0,0,0,2.4,1.66,10.83,10.83,0,0,1,3.15.6,4.89,4.89,0,0,1,2.1,4.22c0,1.81-.06,3.57-.15,5.28a3,3,0,0,1-2,2.26l-35.4.15a3.19,3.19,0,0,1-2.4-2.11q-.6-7.1.75-9.06a7,7,0,0,1,3-1,16.72,16.72,0,0,0,3.37-.83c.55-.25.83-1.79.83-4.61q.45-22.93.3-41.35c-.21-1-1.15-1.71-2.85-2.12s-2.65-1.2-2.85-2.41v-5.29c.09-2.21,1-3.51,2.7-3.92q9-.15,23.7.16a3.57,3.57,0,0,1,3.3,2.47,4.54,4.54,0,0,0,.9,2.17,9.66,9.66,0,0,0,3.15-1c1.59-.7,2.6-1.15,3-1.35a46.86,46.86,0,0,1,13.5-2.4c4.7,0,8.49,1.15,11.4,3.45A47.56,47.56,0,0,1,1550.55,1977.25Z"/><path class="cls-2" d="M1728.75,1940.82q12.74,10.22,12.75,28.41a42.44,42.44,0,0,1-2,12.78,31.52,31.52,0,0,1-7.8,12.32,26,26,0,0,1-12.3,7.22,49.49,49.49,0,0,1-11.4,1.35H1696.5a2.36,2.36,0,0,0-1.5,1.95v21.3c.19,1.5,1.42,2.43,3.67,2.78s3.62,1,4.13,1.87q.59,2.25,0,8.85-.16,1.5-2.25,1.95l-37.2.15a2.75,2.75,0,0,1-2.85-2.4c0-.6-.11-1.75-.3-3.46a17.66,17.66,0,0,1,0-3.45,4.46,4.46,0,0,1,1.5-2.7,13.25,13.25,0,0,1,3.6-.91,4,4,0,0,0,3-1.95q.14-14,0-35.75-.16-30.33-.15-35.6c-.11-1.7-.15-3.4-.15-5.11q-.16-3.15-2.7-3.6a18.75,18.75,0,0,1-3.3-.6,2.77,2.77,0,0,1-2.1-2c-.11-1.81-.15-3.61-.15-5.41,0-2.2.69-3.61,2.1-4.21l10.05-.15,30-.3Q1720.19,1934,1728.75,1940.82Zm-33.75,9.29v34.78c0,2.2.49,3.56,1.47,4.06a12.5,12.5,0,0,0,4.29.75c3.64,0,6.45-1.15,8.41-3.46q5.17-6.18,5.18-16.41a31.44,31.44,0,0,0-3.26-14.6q-3.69-7.53-11.66-7.53C1696.47,1947.7,1695,1948.51,1695,1950.11Z"/><path class="cls-2" d="M1803.59,1982.5q3.6,8.55,3.9,21.75v22.35a3.4,3.4,0,0,0,1,2,4.16,4.16,0,0,0,2.63-.82,5.27,5.27,0,0,1,2.47-1,2.42,2.42,0,0,1,1,.3q3.3,2.7,3.45,5.1-3,6.75-12,9.3a35.43,35.43,0,0,1-7.35,1,28.07,28.07,0,0,1-3.45-.75,13.07,13.07,0,0,1-5.85-3l-4.8-4.5a7.82,7.82,0,0,0-3,2,14.21,14.21,0,0,1-2.7,2.1,27.47,27.47,0,0,1-26.85,2.1q-9.45-4.8-9.45-16.65a22.79,22.79,0,0,1,.3-3.75q1.8-11.1,13.5-17.1,5.25-2.7,21.9-7.05,3-.9,3.83-2.62a8.77,8.77,0,0,0,.82-3.83,11.31,11.31,0,0,0-2.1-6.9q-2.7-3.15-6-3a7.49,7.49,0,0,0-6.9,4.8,51.41,51.41,0,0,1-3.45,8.4,3.81,3.81,0,0,1-1.95.75q-.75,0-2.25-.15t-2-.15q-3.3-.9-6.45-1.65a6.75,6.75,0,0,1-4.5-4.5q-1-9.9,10.5-16.2a37.06,37.06,0,0,1,17.85-4.2q10.65,0,18.15,4.8A23.42,23.42,0,0,1,1803.59,1982.5Zm-26.85,24.75q-6.45,1.65-9.6,6.15a10.83,10.83,0,0,0-2.1,6.6,9.92,9.92,0,0,0,1,4.5q2.55,4.2,8,3.6,6.15-.6,8.25-4.5,2.55-6,1-16.2a2.22,2.22,0,0,0-2.4-1.8A6.79,6.79,0,0,0,1776.74,2007.25Z"/><path class="cls-2" d="M1890,1977.25a1.2,1.2,0,0,0,1.8.15,29.6,29.6,0,0,1,27.9-7.5,16.74,16.74,0,0,1,7.8,4.88,15.52,15.52,0,0,1,4.2,8.17,87.39,87.39,0,0,1,.9,15.3c-.26,5.2-.47,10.4-.6,15.6v14.55a2.45,2.45,0,0,0,1.35,1.95,5.43,5.43,0,0,0,2.78-1.2,5.4,5.4,0,0,1,2.62-1.2,2,2,0,0,1,1.2.45q3.6,2.55,3.15,4.65-1.78,7.5-11.75,9.9a28.54,28.54,0,0,1-6.39.75q-9.67,0-14.13-6.75-2.23-3.6-2.53-9.9V2016.4q.15-8.7,0-26-.15-3.45-3.82-5a6.54,6.54,0,0,0-5.81.6q-6,3.75-6,14.25V2028a5.3,5.3,0,0,0,3.45,1.35c1.7.2,2.83.65,3.38,1.35a5,5,0,0,1,1,2.7,17.85,17.85,0,0,1,0,3.3q-.15,2.55-.15,3.15a2.63,2.63,0,0,1-2.47,1.65l-3.68.3h-19.65a18.59,18.59,0,0,1-3.15-.15,3.93,3.93,0,0,1-2.55-1.5l-.3-3.6q-.6-8.85-.15-23.1.45-17.85.3-23-.9-3.9-3.6-5.1a5.87,5.87,0,0,0-6.9,1.36q-4.5,4.36-4.5,14v26.85a2.4,2.4,0,0,0,2.4,1.66,10.83,10.83,0,0,1,3.15.6,4.86,4.86,0,0,1,2.1,4.22q0,2.71-.15,5.28a3,3,0,0,1-2,2.26l-35.4.15a3.21,3.21,0,0,1-2.4-2.11q-.6-7.1.75-9.06a7,7,0,0,1,3-1,16.88,16.88,0,0,0,3.38-.83c.55-.25.82-1.79.82-4.61q.45-22.93.3-41.35c-.2-1-1.15-1.71-2.85-2.12s-2.65-1.2-2.85-2.41v-5.29c.1-2.21,1-3.51,2.7-3.92q9-.15,23.7.16a3.56,3.56,0,0,1,3.3,2.47,4.54,4.54,0,0,0,.9,2.17,9.66,9.66,0,0,0,3.15-1q2.4-1.05,3-1.35a47,47,0,0,1,13.5-2.4q7,0,11.4,3.45A47.56,47.56,0,0,1,1890,1977.25Z"/><path class="cls-2" d="M2018.92,1989.1a46.25,46.25,0,0,1,3.37,17.4q0,16.65-10.76,26.55t-24.3,9.9a28.63,28.63,0,0,1-11-2.1,1.48,1.48,0,0,0-1.51,1.34v15.23q0,2.68,3.68,3.44c2.45.49,3.67,1.64,3.67,3.43l.15,3.88a6.88,6.88,0,0,1-.75,3.59q-1.8,1.18-10.2,1h-23.85q-2.55-.6-3-2c0-.3-.1-1.39-.3-3.29a11,11,0,0,1,.15-3.3,3.81,3.81,0,0,1,1.65-2.69,9.18,9.18,0,0,1,3.3-1.05,2.73,2.73,0,0,0,2.55-1.95q.15-25.16.6-75.49c-.3-.89-1.37-1.67-3.22-2.32s-2.78-1.67-2.78-3.07v-4.19q.15-2.55,1.8-3.3,6.3,0,19.65-.3h3.6a4.51,4.51,0,0,1,3.3,1,6.4,6.4,0,0,0,1.65,3.15q9.15-5.25,16.2-5.25,8.4,0,15.9,6.15A34.3,34.3,0,0,1,2018.92,1989.1Zm-34.58-5.4a9,9,0,0,0-5.32,2.7,11.34,11.34,0,0,0-3.23,5.25,60.13,60.13,0,0,0-2,15.75,70,70,0,0,0,.75,10.2q2.1,13.8,11.85,13.8a9.51,9.51,0,0,0,7.2-3q4.65-5.7,4.65-16.05a83.3,83.3,0,0,0-.6-8.85q-1.2-11.1-5-16.2A8.85,8.85,0,0,0,1984.34,1983.7Z"/><path class="cls-2" d="M2090.84,1986.55q4,9.6,4,13.8,0,2.55-6,5-7.2,2.85-21.9,7.5l-12.9,3.45a1.79,1.79,0,0,0-1.2,1.35,13.88,13.88,0,0,0,4.43,9.53,13.31,13.31,0,0,0,9.52,4q6.6,0,15-6.3,1.65-1.35,3.38-2.92a3.93,3.93,0,0,1,3.67-1.13q4.2,2.25,4.5,5.7-1,5.1-9.9,11.25t-21.15,6.15a37,37,0,0,1-16.5-3.6,33.32,33.32,0,0,1-14.85-14,40.83,40.83,0,0,1-5.25-19.35,41.7,41.7,0,0,1,4.58-20.47,35.78,35.78,0,0,1,14.17-14.93,30.25,30.25,0,0,1,16-4.2,32.84,32.84,0,0,1,19.5,5.85A30,30,0,0,1,2090.84,1986.55Zm-32.7-6.75q-5.25,2-7.2,9.6-2.1,8.55-.15,13.95,1.2,1.8,2.7,1.5a83.79,83.79,0,0,0,17.1-5.55,3.82,3.82,0,0,0,1-3.15,28.22,28.22,0,0,0-3-12.75q-2.25-4.2-7.5-4.2A8,8,0,0,0,2058.14,1979.8Z"/><path class="cls-2" d="M2161.94,1975a21.05,21.05,0,0,1,3,10.2,4.37,4.37,0,0,1-3,3.38q-2.55,1-4.8,1.72a29.65,29.65,0,0,0-4.2,1.35,15.54,15.54,0,0,1-4.2.75,7.2,7.2,0,0,1-2.55-.45q-1.05-2.1-2.1-4.35a4.86,4.86,0,0,0-3.9-2.55,7.05,7.05,0,0,0-5.25,2.25q-3.6,4.8-3.45,16.65l.3,24.15c.5.6,1.58,1,3.22,1.2a5.13,5.13,0,0,1,3.31,1.28,4.66,4.66,0,0,1,1,2.62,22.68,22.68,0,0,1,.15,3q-.15,2.25-.15,3-.3,2-1.8,2.25l-5.7.3h-29.25q-1.8,0-2.25-2.1-.15-4.8,0-7.35.6-1.8,3.75-2.32c2.1-.35,3.45-1,4.05-1.88v-43.35c0-1.8-.44-2.8-1.31-3s-1.72-.37-2.54-.52a2.13,2.13,0,0,1-1.69-1.28,33.86,33.86,0,0,1-.31-7.8,3.58,3.58,0,0,1,2.1-2.25q8.25-.15,24.3-.15,1.2-.15,3,1.35.3,1.2,1.05,3.6,7.35-7.5,15.6-7.5A14.75,14.75,0,0,1,2161.94,1975Z"/><path class="cls-2" d="M2208.74,1971.25a4.93,4.93,0,0,0,1.2.15,3.67,3.67,0,0,0,2.4-1.05q1.2-1,2.25-2.1,4.95-.9,6.3,1.35a59.09,59.09,0,0,1,1.65,9.75l.9,9.9q-.45,4.35-8,3.45a14,14,0,0,1-2.55-3.3q-1.8-3-2.4-3.75-5.25-6.45-10.8-6.45-4.95,0-6.6,3.15a6.35,6.35,0,0,0,.6,7.2q3.45,3.15,10.5,5.4,8.25,2.55,11.1,4.35,11.1,5.4,11.55,17.55a24.88,24.88,0,0,1-3.15,12.75,22.17,22.17,0,0,1-9.3,9.15,30.68,30.68,0,0,1-14.7,3.45,31.38,31.38,0,0,1-10.8-1.8q-5.7-2.1-6.9-2.1a6.13,6.13,0,0,0-1.95.3c-1,.7-2.05,1.43-3.15,2.18a4.34,4.34,0,0,1-3.3.82,7.59,7.59,0,0,1-3.9-1q-1.5-2.25-2.25-11l-1.35-14.1q.3-2.1.3-2.4a2.27,2.27,0,0,1,1.65-1.5q5.25-1.5,7.5.46,4.5,11.49,10.65,15a21.27,21.27,0,0,0,10.35,3,10.57,10.57,0,0,0,7-2.4,5.74,5.74,0,0,0,2-4.36q0-3.76-5.4-6.32-17.1-8-18.3-8.72-10-6.32-11.85-15.49a26.1,26.1,0,0,1-.45-4.81,19.27,19.27,0,0,1,7.5-15.79q6.15-4.8,15.6-4.81a29.77,29.77,0,0,1,12.9,2.7Z"/><path class="cls-2" d="M2350.64,1939.15l4.8,2.85q9.15,7.65,9.15,20.1a29.29,29.29,0,0,1-.45,5.1,22.79,22.79,0,0,1-12,15.3,14.91,14.91,0,0,0-2.4,1.65q2.25,1.2,6.75,3.75,12,7.2,12,22.95a32.79,32.79,0,0,1-.45,5.4,27.92,27.92,0,0,1-6.53,14,28.48,28.48,0,0,1-12.6,9.08,39.86,39.86,0,0,1-13,2.47l-47.4.15q-2.55-.15-3.15-2.1l-.15-7.8q.75-2.1,4.27-2.92t4-2.93q.15-25.2.6-75.6-.3-2-4.05-2.62t-3.6-3.53q-.15-2.25-.15-4.35a4.25,4.25,0,0,1,1.8-3.6l1.8-.3,24.15-.3q14.55-.15,24.15.3Q2346.14,1936.6,2350.64,1939.15Zm-24.75,51.45H2323a3.16,3.16,0,0,0-2.55.9l-.45,30.15v2.85a1.86,1.86,0,0,0,1.57,2.1,17.25,17.25,0,0,0,3.23.3q10.2,0,14.1-6.3a23.68,23.68,0,0,0,3.3-12.6,22.1,22.1,0,0,0-2.55-10.8Q2335.94,1990.6,2325.89,1990.6Zm-1.8-41.25-2,.3a1.24,1.24,0,0,0-1.2,1q-.3,23.73-.3,25.82l.75.74q9.15,1.2,13.8-2.68,4-4.33,4-11.34a19.74,19.74,0,0,0-1.35-7.31Q2334.89,1948.75,2324.09,1949.35Z"/><path class="cls-2" d="M2437.49,1986.55q4.05,9.6,4.05,13.8c0,1.7-2,3.35-6,5q-7.2,2.85-21.9,7.5l-12.9,3.45a1.76,1.76,0,0,0-1.2,1.35,13.83,13.83,0,0,0,4.42,9.53,13.33,13.33,0,0,0,9.53,4q6.59,0,15-6.3c1.09-.9,2.22-1.87,3.37-2.92a3.94,3.94,0,0,1,3.68-1.13q4.18,2.25,4.5,5.7-1.07,5.1-9.9,11.25t-21.15,6.15a37,37,0,0,1-16.5-3.6,33.32,33.32,0,0,1-14.85-14,40.6,40.6,0,0,1-5.25-19.35,41.59,41.59,0,0,1,4.57-20.47,35.74,35.74,0,0,1,14.18-14.93,30.2,30.2,0,0,1,16.05-4.2,32.86,32.86,0,0,1,19.5,5.85A30.17,30.17,0,0,1,2437.49,1986.55Zm-32.7-6.75q-5.26,2-7.21,9.6-2.1,8.55-.14,13.95,1.18,1.8,2.7,1.5a84.2,84.2,0,0,0,17.1-5.55,3.88,3.88,0,0,0,1.05-3.15,28.48,28.48,0,0,0-3-12.75c-1.5-2.8-4-4.2-7.5-4.2A8,8,0,0,0,2404.79,1979.8Z"/><path class="cls-2" d="M2511,1986.55q4,9.6,4.05,13.8,0,2.55-6,5-7.2,2.85-21.9,7.5l-12.9,3.45a1.79,1.79,0,0,0-1.2,1.35,13.88,13.88,0,0,0,4.43,9.53,13.31,13.31,0,0,0,9.52,4q6.6,0,15-6.3,1.65-1.35,3.38-2.92a3.93,3.93,0,0,1,3.67-1.13q4.2,2.25,4.5,5.7-1.05,5.1-9.9,11.25t-21.15,6.15a37,37,0,0,1-16.5-3.6,33.32,33.32,0,0,1-14.85-14,40.83,40.83,0,0,1-5.25-19.35,41.7,41.7,0,0,1,4.58-20.47,35.78,35.78,0,0,1,14.17-14.93,30.25,30.25,0,0,1,16-4.2,32.84,32.84,0,0,1,19.5,5.85A30,30,0,0,1,2511,1986.55Zm-32.7-6.75q-5.25,2-7.2,9.6-2.1,8.55-.15,13.95,1.2,1.8,2.7,1.5a83.79,83.79,0,0,0,17.1-5.55,3.82,3.82,0,0,0,1.05-3.15,28.22,28.22,0,0,0-3-12.75q-2.25-4.2-7.5-4.2A8,8,0,0,0,2478.28,1979.8Z"/><path class="cls-2" d="M2582.08,1975a21.05,21.05,0,0,1,3,10.2,4.37,4.37,0,0,1-3,3.38q-2.55,1-4.8,1.72a29.65,29.65,0,0,0-4.2,1.35,15.54,15.54,0,0,1-4.2.75,7.2,7.2,0,0,1-2.55-.45q-1-2.1-2.1-4.35a4.86,4.86,0,0,0-3.9-2.55,7.05,7.05,0,0,0-5.25,2.25q-3.6,4.8-3.45,16.65l.3,24.15c.5.6,1.58,1,3.23,1.2a5.1,5.1,0,0,1,3.3,1.28,4.66,4.66,0,0,1,1,2.62,22.68,22.68,0,0,1,.15,3q-.15,2.25-.15,3-.3,2-1.8,2.25l-5.7.3h-29.25q-1.8,0-2.25-2.1-.15-4.8,0-7.35.6-1.8,3.75-2.32c2.1-.35,3.45-1,4.05-1.88v-43.35c0-1.8-.44-2.8-1.31-3s-1.72-.37-2.54-.52a2.15,2.15,0,0,1-1.69-1.28,33.86,33.86,0,0,1-.31-7.8,3.58,3.58,0,0,1,2.1-2.25q8.25-.15,24.3-.15,1.2-.15,3,1.35.3,1.2,1,3.6,7.35-7.5,15.6-7.5A14.75,14.75,0,0,1,2582.08,1975Z"/><path class="cls-2" d="M2693.38,1935.85a4.4,4.4,0,0,0,1.65.3q.3,0,5.4-2.25,5.7,0,6.9.9a15.11,15.11,0,0,1,2.1,5.18q.75,3.23,1.5,6.07l3.3,18.45a3.44,3.44,0,0,1-1.5,3.75,22,22,0,0,1-6.45,1.65,6.07,6.07,0,0,1-3-.75,24.52,24.52,0,0,1-2.55-5q-1.65-4-2.25-5.25a55.15,55.15,0,0,0-4.35-7,12.26,12.26,0,0,0-6.75-4.5,12.41,12.41,0,0,0-2.7-.3q-7.2,0-11.85,6.75-6.15,8.85-6.9,30-.9,22.65,4.65,35.4a15.27,15.27,0,0,0,5.55,6.75,11.84,11.84,0,0,0,8.1,2.1q10.8-.9,18.45-19.5a5,5,0,0,1,2.4-2.85,8.43,8.43,0,0,1,1.65-.15q3,0,7.2,2.7a5.2,5.2,0,0,1,1.35,3.6q0,.3-2,7.35a48.72,48.72,0,0,1-10,15q-7.2,7.35-15.45,8.55a37,37,0,0,1-8.7,1q-19.35,0-31.2-16.95-10.5-15.3-10.5-37.5,0-23.1,11.1-39.75,10.65-16.2,31.2-16.2A39.64,39.64,0,0,1,2693.38,1935.85Z"/><path class="cls-2" d="M2790.43,1986.25a38.31,38.31,0,0,1,4.35,18.15q0,15.3-9,25.95-10.65,12.6-28.8,12.6a41.47,41.47,0,0,1-13.2-2.1,34.26,34.26,0,0,1-16.73-12.52,35,35,0,0,1-7.12-19.58l-.6-.6h.45a42.44,42.44,0,0,1,4.35-21,35.57,35.57,0,0,1,14.85-15.6,37.52,37.52,0,0,1,18.75-4.65q13.65,0,23.1,7.35A34.42,34.42,0,0,1,2790.43,1986.25ZM2754,1979.8q-5.4,1.8-7.5,8a62.6,62.6,0,0,0-1.8,11.7,100.17,100.17,0,0,0,1.5,15,28,28,0,0,0,6.15,13.2,10.13,10.13,0,0,0,9.3,2.25q5.4-2,6.9-6.6a37.88,37.88,0,0,0,1.95-12.6,69.31,69.31,0,0,0-3.9-22.2,14.53,14.53,0,0,0-3.9-6.22,8.86,8.86,0,0,0-6.3-2.78A9.86,9.86,0,0,0,2754,1979.8Z"/><path class="cls-2" d="M2868.88,1977.25a1.2,1.2,0,0,0,1.8.15,29.6,29.6,0,0,1,27.9-7.5,16.74,16.74,0,0,1,7.8,4.88,15.52,15.52,0,0,1,4.2,8.17,87.39,87.39,0,0,1,.9,15.3q-.41,7.8-.6,15.6v14.55a2.45,2.45,0,0,0,1.35,1.95,5.4,5.4,0,0,0,2.77-1.2,5.42,5.42,0,0,1,2.63-1.2,2,2,0,0,1,1.2.45q3.6,2.55,3.15,4.65-1.79,7.5-11.75,9.9a28.55,28.55,0,0,1-6.4.75q-9.66,0-14.12-6.75-2.24-3.6-2.53-9.9V2016.4q.15-8.7,0-26c-.11-2.3-1.38-4-3.83-5a6.54,6.54,0,0,0-5.81.6q-6,3.75-6,14.25V2028a5.3,5.3,0,0,0,3.45,1.35c1.7.2,2.82.65,3.37,1.35a5,5,0,0,1,1,2.7,17.85,17.85,0,0,1,0,3.3q-.15,2.55-.15,3.15a2.65,2.65,0,0,1-2.48,1.65l-3.67.3h-19.65a18.59,18.59,0,0,1-3.15-.15,3.93,3.93,0,0,1-2.55-1.5l-.3-3.6q-.6-8.85-.15-23.1.45-17.85.3-23-.9-3.9-3.6-5.1a5.87,5.87,0,0,0-6.9,1.36q-4.5,4.36-4.5,14v26.85a2.4,2.4,0,0,0,2.4,1.66,10.83,10.83,0,0,1,3.15.6,4.86,4.86,0,0,1,2.1,4.22q0,2.71-.15,5.28a3,3,0,0,1-1.95,2.26l-35.4.15a3.21,3.21,0,0,1-2.4-2.11q-.6-7.1.75-9.06a7,7,0,0,1,3-1,16.72,16.72,0,0,0,3.37-.83c.55-.25.83-1.79.83-4.61q.45-22.93.3-41.35c-.2-1-1.15-1.71-2.85-2.12s-2.65-1.2-2.85-2.41v-5.29c.1-2.21,1-3.51,2.7-3.92q9-.15,23.7.16a3.56,3.56,0,0,1,3.3,2.47,4.54,4.54,0,0,0,.9,2.17,9.66,9.66,0,0,0,3.15-1q2.4-1.05,3-1.35a47,47,0,0,1,13.5-2.4q7,0,11.4,3.45A47.56,47.56,0,0,1,2868.88,1977.25Z"/><path class="cls-2" d="M2997.8,1989.1a46.26,46.26,0,0,1,3.38,17.4q0,16.65-10.76,26.55t-24.3,9.9a28.64,28.64,0,0,1-11-2.1,1.48,1.48,0,0,0-1.5,1.34v15.23q0,2.68,3.67,3.44c2.45.49,3.68,1.64,3.68,3.43l.15,3.88a6.88,6.88,0,0,1-.75,3.59q-1.8,1.18-10.2,1h-23.85c-1.71-.4-2.7-1.05-3-2,0-.3-.1-1.39-.3-3.29a11,11,0,0,1,.15-3.3,3.81,3.81,0,0,1,1.65-2.69,9.18,9.18,0,0,1,3.3-1.05,2.73,2.73,0,0,0,2.55-1.95q.15-25.16.6-75.49c-.3-.89-1.38-1.67-3.23-2.32s-2.77-1.67-2.77-3.07v-4.19q.15-2.55,1.8-3.3,6.3,0,19.65-.3h3.6a4.51,4.51,0,0,1,3.3,1,6.4,6.4,0,0,0,1.65,3.15q9.15-5.25,16.2-5.25,8.4,0,15.9,6.15A34.27,34.27,0,0,1,2997.8,1989.1Zm-34.57-5.4a9,9,0,0,0-5.33,2.7,11.31,11.31,0,0,0-3.22,5.25,60.13,60.13,0,0,0-1.95,15.75,70,70,0,0,0,.75,10.2q2.1,13.8,11.85,13.8a9.51,9.51,0,0,0,7.2-3q4.63-5.7,4.65-16.05a83.3,83.3,0,0,0-.6-8.85q-1.2-11.1-4.95-16.2A8.86,8.86,0,0,0,2963.23,1983.7Z"/><path class="cls-2" d="M3065.68,1982.5q3.6,8.55,3.9,21.75v22.35a3.4,3.4,0,0,0,1.05,2,4.13,4.13,0,0,0,2.62-.82,5.3,5.3,0,0,1,2.48-1,2.42,2.42,0,0,1,1.05.3c2.19,1.8,3.35,3.5,3.45,5.1q-3,6.75-12,9.3a35.43,35.43,0,0,1-7.35,1,28.07,28.07,0,0,1-3.45-.75,13.07,13.07,0,0,1-5.85-3l-4.8-4.5a7.75,7.75,0,0,0-3,2,14.21,14.21,0,0,1-2.7,2.1,27.47,27.47,0,0,1-26.85,2.1q-9.45-4.8-9.45-16.65a22.79,22.79,0,0,1,.3-3.75q1.8-11.1,13.5-17.1,5.25-2.7,21.9-7.05,3-.9,3.82-2.62a8.78,8.78,0,0,0,.83-3.83,11.31,11.31,0,0,0-2.1-6.9c-1.8-2.1-3.81-3.1-6-3a7.48,7.48,0,0,0-6.9,4.8,52.35,52.35,0,0,1-3.45,8.4,3.85,3.85,0,0,1-1.95.75q-.77,0-2.25-.15t-1.95-.15q-3.3-.9-6.45-1.65a6.75,6.75,0,0,1-4.5-4.5q-1-9.9,10.5-16.2a37.06,37.06,0,0,1,17.85-4.2q10.65,0,18.15,4.8A23.42,23.42,0,0,1,3065.68,1982.5Zm-26.85,24.75q-6.45,1.65-9.6,6.15a10.83,10.83,0,0,0-2.1,6.6,9.92,9.92,0,0,0,1,4.5q2.55,4.2,8,3.6c4.1-.4,6.84-1.9,8.25-4.5q2.55-6,1-16.2a2.22,2.22,0,0,0-2.4-1.8A6.77,6.77,0,0,0,3038.83,2007.25Z"/><path class="cls-2" d="M3151.47,1974.1a18.57,18.57,0,0,1,4.65,12.3q0,13.8.15,41.25a1.61,1.61,0,0,0,1.2,1.8,9.22,9.22,0,0,0,2.78-1.27,6.41,6.41,0,0,1,2.77-1.13,2.59,2.59,0,0,1,2.1,1.2c1.6,1.5,2.26,2.85,2,4q-1.51,6-10.06,9.3a19.12,19.12,0,0,1-13.5.45,13,13,0,0,1-6.6-3.52,13.31,13.31,0,0,1-4-6.38l-.61-4.05v-30l.15-6.6q0-4.05-2.25-5.85a6.74,6.74,0,0,0-5.4-1.35q-7,1.37-8.55,8.75-.3,3.92-.6,34.68c.1,1,.8,1.61,2.1,1.81a18.74,18.74,0,0,1,3,.45c1.4.4,2.2,1.06,2.4,2,.2,5.13,0,8.19-.6,9.2l-1.19.75q-11.86,0-35.25.15-2.41-.6-2.56-3.61v-5c.2-1.51.75-2.46,1.65-2.87a38.93,38.93,0,0,1,3.91-.75c1.59-.3,2.44-1.1,2.54-2.41v-44.58c-.4-.81-1.35-1.33-2.85-1.58s-2.39-.78-2.69-1.59c-.41-4.61-.26-7.58.44-8.88l1.81-1.21q6.14-.15,24.75,0,1.18.3,3.14,4.35.75.3,3-.9a37.7,37.7,0,0,1,17.86-4.8Q3146.22,1968.25,3151.47,1974.1Z"/><path class="cls-2" d="M3207.27,1969q1.65.45,1.95,2.7v3.6a6.06,6.06,0,0,1-1,3.45l-3.6,1.5a3.62,3.62,0,0,0-2.55,2.7,100.32,100.32,0,0,0,4.95,15.15q3.15,7.5,6.15,14.85.45.9,1.2.3l.75-1.2,9.45-27.75q.3-2.55-.9-3.45a1.34,1.34,0,0,0-1.2-.67,1.51,1.51,0,0,1-1.2-.53q-3.15-1.05-3.3-2.85v-4.35a4.58,4.58,0,0,1,1.65-3.45l2.85-.3q7.8.15,22.2.15a2.71,2.71,0,0,1,2.7,1.65,10.45,10.45,0,0,1-.3,7.8,28.07,28.07,0,0,0-6.6,3.6l-1.8,3.3-15.6,40.35-6.6,17.4a109.75,109.75,0,0,1-8.25,16.8q-7.35,11.7-20.25,10.65-9.3-.75-13.2-8.25a12.35,12.35,0,0,1-1.65-6.3,9.47,9.47,0,0,1,1.8-5.85q3.45-4.95,9.75-3.9,2.1.3,5.33,3.75t5.47,3.45a4.39,4.39,0,0,0,2.7-1.05,11.26,11.26,0,0,0,3.3-8.55,17.82,17.82,0,0,0-1.8-7.8l-23.1-52.35q-.75-1.8-3.67-3t-3.53-3q0-.45-.15-3.15a9,9,0,0,1,0-3.3,3.67,3.67,0,0,1,1.65-2.4h1.95Z"/></g><g id="Layer_3" data-name="Layer 3"><path class="cls-2" d="M441.84,443.91q22.5.51,44.5,18.5a125.89,125.89,0,0,1,31.5,39q25,48,25,117.5a361.34,361.34,0,0,1-10,85,125.09,125.09,0,0,1-24,48q-18,23.51-42.25,33.5t-46.75,10l-154.5-.5q-7.5-1.5-8.75-7.75a70.44,70.44,0,0,1-1.25-13.75,91.84,91.84,0,0,1,1-14q2.51-4,17.5-8.5,11.51-3,9.5-14.5V491.91q-1.45-7.5-12.76-9.75t-12.75-8.75q.46-2.49-.49-11.5-.49-7.5.5-11a9.59,9.59,0,0,1,6.5-8q62-2.49,137.5,0Zm-39.5,43.5q-23.5-3.5-29,4.5-.49,82.5-1.5,248.5l1.5,4q7.5,5.51,22.5,3,30.5-.49,43.5-34.5,12-32,12-79,0-18.49-2-43.5-4-55-16-79.5Q423.85,492.42,402.34,487.41Z"/><path class="cls-2" d="M764.34,573.41q9,14.51,10,34-1.5,8-10,11.25t-16,5.75q-1.5,0-14,4.5a51.73,51.73,0,0,1-14,2.5,24,24,0,0,1-8.5-1.5q-3.51-7-7-14.5-5-8-13-8.5-9-.49-17.5,7.5-12,16-11.5,55.5l1,80.5q2.49,3,10.75,4t11,4.25a15.45,15.45,0,0,1,3.25,8.75,76.29,76.29,0,0,1,.5,10c-.34,5-.5,8.34-.5,10q-1,6.51-6,7.5l-19,1h-97.5q-6,0-7.5-7-.51-16,0-24.5,2-6,12.5-7.75t13.5-6.25V605.91q0-9-4.37-10c-2.91-.66-5.73-1.25-8.47-1.75a7.12,7.12,0,0,1-5.64-4.25,113.58,113.58,0,0,1-1-26q1.5-5,7-7.5,27.49-.49,81-.5,4-.49,10,4.5,1,4,3.5,12,24.49-25,52-25Q749.33,547.41,764.34,573.41Z"/><path class="cls-2" d="M884.83,558.41q2.5,4.5,2.5,20v171q1.5,5,8.5,6,11,1.5,12,2,4.5,2,5,9.5t.5,15.5q-.5,9-7,12l-10.5,1.5q-12,0-55,.5h-54.5a9.35,9.35,0,0,1-7-5q-1-7,0-27.06,2-6.51,12.75-7.52t13.25-7V609.53q0-12-3.5-15-1.5-1-10.5-3.51-6.5-1.5-8.5-6-1.5-7.51,0-23.55,1.5-6,8.5-7h79Q879.83,552.42,884.83,558.41ZM869.58,456.16a43.46,43.46,0,1,1-30.75-12.75A41.91,41.91,0,0,1,869.58,456.16Z"/><path class="cls-2" d="M1157.83,570.41q15,17,15.5,41,0,46,.5,137.5,0,5,4,6,3-.49,9.25-4.25t9.25-3.75c2.67,0,5,1.34,7,4q8,7.5,6.5,13.5-5,20-33.5,31-23.5,9-45,1.5-11.5-2-22-11.75t-13.5-21.25l-2-13.5v-100q.26-11,.5-22,0-13.5-7.5-19.5t-18-4.5q-23.5,4.53-28.5,29.15-1,13.08-2,115.6.5,5,7,6,9,1,10,1.51,7,2,8,6.54,1,25.63-2,30.66l-4,2.51q-39.49,0-117.5.5-8-2-8.5-12V768.3q1-7.53,5.5-9.54c.67-.33,5-1.18,13-2.52q8-1.5,8.5-8V599.59q-2-4-9.5-5.26t-9-5.28q-2-23.09,1.5-29.62l6-4q20.5-.49,82.5,0,4,1,10.5,14.5,2.51,1,10-3,30-16,59.5-16Q1140.33,550.91,1157.83,570.41Z"/><path class="cls-2" d="M1310.89,441.91q4.93,2,5.93,9.5v187c.33,1.67,1.17,2.5,2.5,2.5l3.5-1q16.5-14.49,48.5-44.5-1.5-2.49-7.5-3.5c-4-.66-6.33-2-7-4l-2-5v-17.5q1-10.5,9-12.5l95.5,1.5q7.5,2,8,11v16q0,8-9,10-14.5,3-15,3.5-12.49,7-43,37a10.59,10.59,0,0,0-3.5,7.51q0,4,3.89,10.52,4.38,8,5.35,10.51l48.72,87.88q2.51,7.5,15,9.25t14.52,8.24q0,8.49-.75,18t-7.75,12l-62.5.5q-15,0-19-7.5-18-32-53.5-96.5c-1-1.66-3-2-6-1q-5.5,4.55-11,9.09-6,6.06-7,11.61-1,30.79,1,38.37,2.51,3.53,11.75,5t11.75,7.07q4,18.18-1,30.29-6.49,3.52-17.5,3.53-16-.49-18.5,0h-69c-8.33-.67-12.92-3.65-13.75-9s-1.58-10.82-2.25-16.48q0-10,4.5-16.47,2-2,12-3.5,8-1,8.5-7.49V482.37q-1.42-2-12.36-7-8.14-4-7.14-12v-13q.5-7.5,5.94-10h71.72Z"/><path class="cls-2" d="M1900.82,459.46q42.48,34.08,42.5,94.71a140.71,140.71,0,0,1-6.5,42.59q-7.5,22.56-26,41.09t-41,24.06q-15,4-38,4.5h-38.5c-2.68,1-4.34,3.17-5,6.5v71q1,7.5,12.25,9.25c7.5,1.17,12.07,3.25,13.75,6.25q2,7.5,0,29.5-.51,5-7.5,6.5l-124,.5c-5,0-8.18-2.66-9.5-8,0-2-.34-5.85-1-11.52a63.68,63.68,0,0,1,0-11.52,15.07,15.07,0,0,1,5-9q1-1,12-3c5-1,8.32-3.16,10-6.51q.48-46.56,0-119.16-.51-101.13-.5-118.67-.51-8.5-.5-17-.51-10.51-9-12a64,64,0,0,1-11-2,9.27,9.27,0,0,1-7-6.51q-.51-9-.5-18c0-7.35,2.32-12,7-14l33.5-.5,100-1Q1872.31,436.92,1900.82,459.46Zm-112.5,31V606.36q0,11,4.92,13.55a41.48,41.48,0,0,0,14.28,2.5q18.21,0,28.06-11.54,17.24-20.57,17.24-54.69,0-27.6-10.84-48.68-12.3-25.08-38.89-25.09Q1788.32,482.41,1788.32,490.44Z"/><path class="cls-2" d="M2150.31,598.41q12,28.5,13,72.5v74.5c0,1.67,1.16,3.84,3.5,6.5q3.49.51,8.75-2.75c3.5-2.16,6.25-3.25,8.25-3.25a8.18,8.18,0,0,1,3.5,1q11,9,11.5,17-10,22.5-40,31-8.51,2.51-24.5,3.5a93.42,93.42,0,0,1-11.5-2.5q-9-1.5-19.5-10l-16-15q-4,1-10,6.5t-9,7q-21,15.5-51,15.5-22,0-38.5-8.5-31.5-16-31.5-55.5a75.62,75.62,0,0,1,1-12.5q6-37,45-57,17.49-9,73-23.5,10-3,12.75-8.75a29.2,29.2,0,0,0,2.75-12.75q0-13.5-7-23-9-10.5-20-10-16.5,1-23,16-2.5,9.51-11.5,28a12.65,12.65,0,0,1-6.5,2.5c-1.67,0-4.17-.16-7.5-.5s-5.5-.5-6.5-.5q-11-3-21.5-5.5-12-4.5-15-15-3.51-33,35-54,26-14,59.5-14,35.49,0,60.5,16Q2140.81,575.42,2150.31,598.41Zm-89.5,82.5q-21.51,5.51-32,20.5a36.1,36.1,0,0,0-7,22,33,33,0,0,0,3.5,15q8.49,14,26.5,12,20.49-2,27.5-15,8.49-20,3.5-54-1.5-6-8-6Q2067.8,675.41,2060.81,680.91Z"/><path class="cls-2" d="M2438.3,580.91q3,3,6,.5,30-28,69-28a98.63,98.63,0,0,1,24,3q14.5,4,26,16.25t14,27.25q3.49,21.51,3,51-1.34,26-2,52v48.5c.67,3.34,2.17,5.5,4.5,6.5q3.49,0,9.25-4t8.75-4a6.65,6.65,0,0,1,4,1.5q12,8.51,10.5,15.5-6,25-39.16,33a95.05,95.05,0,0,1-21.31,2.5q-32.23,0-47.1-22.5-7.44-12-8.43-33v-35.5q.49-29,0-86.5-.51-11.49-12.74-16.5-10.71-3.49-19.37,2-19.89,12.51-19.89,47.5v92q3,3.51,11.5,4.5t11.25,4.5a16.71,16.71,0,0,1,3.25,9,60.11,60.11,0,0,1,0,11q-.5,8.51-.5,10.5-2,5-8.25,5.5t-12.25,1h-65.5q-8.51,0-10.5-.5a13.08,13.08,0,0,1-8.5-5l-1-12q-2-29.49-.5-77,1.5-59.49,1-76.5-3-13-12-17-12.5-5.49-23,4.53-15,14.58-15,46.75v89.47q1.5,5,8,5.53c6,.68,9.5,1.34,10.5,2q6.49,4,7,14.08,0,9-.5,17.59-.5,4.53-6.5,7.54l-118,.5a10.71,10.71,0,0,1-8-7q-2-23.64,2.5-30.18,3.49-2.52,10-3.53,8.5-1.5,11.25-2.76t2.75-15.35q1.5-76.47,1-137.86-1-5-9.5-7t-9.5-8.06V566.49q.49-11.06,9-13.08,30-.49,79,.52,8,.51,11,8.26,0,2.58,3,7.22a32.12,32.12,0,0,0,10.5-3.5q8-3.49,10-4.5,26-8,45-8,23.5,0,38,11.5A159.27,159.27,0,0,1,2438.3,580.91Z"/><path class="cls-2" d="M2868.05,620.41a154.2,154.2,0,0,1,11.25,58q0,55.5-35.86,88.5t-81,33a95.41,95.41,0,0,1-36.62-7c-3,.34-4.69,1.82-5,4.48v50.77q0,8.94,12.25,11.44t12.25,11.45l.5,12.93q0,8-2.5,11.95-6,4-34,3.48h-79.5q-8.51-2-10-6.49,0-1.5-1-11a36.59,36.59,0,0,1,.5-11,12.73,12.73,0,0,1,5.5-9q1.5-1.5,11-3.49,7-1,8.5-6.5.49-83.88,2-251.63-1.5-4.49-10.75-7.73t-9.25-10.25v-14q.49-8.49,6-11,21,0,65.5-1h12q7.5,0,11,3.5.49,4.5,5.5,10.5,30.49-17.49,54-17.5,28,0,53,20.5A114.32,114.32,0,0,1,2868.05,620.41Zm-115.25-18q-9.5,1-17.75,9t-10.75,17.5a200.57,200.57,0,0,0-6.5,52.5,232.82,232.82,0,0,0,2.5,34q7,46,39.5,46,14.5,0,24-10,15.49-19,15.5-53.5a278.65,278.65,0,0,0-2-29.5q-4-37-16.5-54Q2770.8,600.91,2752.8,602.41Z"/><path class="cls-2" d="M3107.8,611.91q13.5,32,13.5,46,0,8.51-20,16.5-24,9.51-73,25l-43,11.5q-3.51,1.5-4,4.5,1,18.51,14.75,31.75t31.75,13.25q22,0,50-21,5.49-4.5,11.25-9.75t12.25-3.75q14,7.5,15,19-3.51,17-33,37.5t-70.5,20.5q-30.51,0-55-12-31.5-15-49.5-46.5-16.5-29-17.5-64.5a139,139,0,0,1,15.25-68.25,119.25,119.25,0,0,1,47.25-49.75q23-14,53.5-14,37.5,0,65,19.5A100.22,100.22,0,0,1,3107.8,611.91Zm-109-22.5q-17.51,6.51-24,32-7,28.5-.5,46.5,4,6,9,5,33.49-7.5,57-18.5,4-4,3.5-10.5-.51-24.49-10-42.5-7.5-14-25-14A26.78,26.78,0,0,0,2998.8,589.41Z"/><path class="cls-2" d="M3344.8,573.41q9,14.51,10,34-1.5,8-10,11.25c-5.68,2.17-11,4.09-16,5.75-1,0-5.68,1.5-14,4.5a51.8,51.8,0,0,1-14,2.5,24,24,0,0,1-8.5-1.5q-3.51-7-7-14.5-5-8-13-8.5-9-.49-17.5,7.5-12,16-11.5,55.5l1,80.5q2.49,3,10.75,4t11,4.25a15.52,15.52,0,0,1,3.25,8.75,78.1,78.1,0,0,1,.5,10c-.34,5-.5,8.34-.5,10q-1,6.51-6,7.5l-19,1h-97.5q-6,0-7.5-7-.51-16,0-24.5c1.32-4,5.5-6.58,12.5-7.75s11.5-3.25,13.5-6.25V605.91c0-6-1.47-9.33-4.37-10s-5.74-1.25-8.47-1.75a7.12,7.12,0,0,1-5.64-4.25,113,113,0,0,1-1-26c1-3.33,3.32-5.83,7-7.5q27.48-.49,81-.5,4-.49,10,4.5,1,4,3.5,12,24.48-25,52-25Q3329.78,547.41,3344.8,573.41Z"/><path class="cls-2" d="M3500.79,560.91a16.12,16.12,0,0,0,4,.5c2.67,0,5.33-1.16,8-3.5s5.17-4.66,7.5-7q16.5-3,21,4.5,3.49,12.51,5.5,32.5l3,33q-1.5,14.51-26.5,11.5-4-3.49-8.5-11-6-10-8-12.5-17.51-21.49-36-21.5-16.5,0-22,10.5-6.49,12.51,2,24,11.51,10.5,35,18,27.49,8.51,37,14.5,37,18,38.5,58.5a83,83,0,0,1-10.5,42.5,73.87,73.87,0,0,1-31,30.5q-21.49,11.51-49,11.5a104.6,104.6,0,0,1-36-6q-19-7-23-7a20.64,20.64,0,0,0-6.5,1q-5,3.51-10.5,7.25t-11,2.75q-5,.5-13-3.5-5-7.5-7.5-36.5l-4.5-47q1-7,1-8a7.58,7.58,0,0,1,5.5-5q17.51-5,25,1.52,15,38.31,35.5,49.9,18,10.08,34.5,10.08,14,0,23.5-8a19.1,19.1,0,0,0,6.5-14.54q0-12.52-18-21.05-57-26.55-61-29.07-33.49-21-39.5-51.62a87.15,87.15,0,0,1-1.5-16q0-32.58,25-52.63,20.51-16,52-16,24,0,43,9Z"/><path class="cls-2" d="M614,1162.41q18,.4,35.6,14.8a100.84,100.84,0,0,1,25.2,31.2q20,38.4,20,94a289.4,289.4,0,0,1-8,68,100.27,100.27,0,0,1-19.2,38.4q-14.4,18.81-33.8,26.8t-37.4,8l-123.6-.4q-6-1.2-7-6.2a55.91,55.91,0,0,1-1-11,74.22,74.22,0,0,1,.8-11.2q2-3.19,14-6.8,9.19-2.4,7.6-11.6v-195.6q-1.16-6-10.2-7.8t-10.21-7c.25-1.33.13-4.4-.39-9.2a28.14,28.14,0,0,1,.4-8.8,7.67,7.67,0,0,1,5.2-6.4q49.61-2,110,0Zm-31.6,34.8q-18.79-2.79-23.2,3.6-.4,66-1.2,198.8l1.2,3.2q6,4.41,18,2.4,24.4-.39,34.8-27.6,9.6-25.59,9.6-63.2,0-14.79-1.6-34.8-3.19-44-12.8-63.6Q599.63,1201.22,582.43,1197.21Z"/><path class="cls-2" d="M872,1266q7.2,11.61,8,27.2-1.2,6.4-8,9t-12.8,4.6q-1.2,0-11.2,3.6a41.24,41.24,0,0,1-11.2,2,19.19,19.19,0,0,1-6.8-1.2q-2.81-5.6-5.6-11.6-4-6.39-10.4-6.8-7.2-.39-14,6-9.6,12.81-9.2,44.4l.8,64.4q2,2.4,8.6,3.2t8.8,3.4a12.38,12.38,0,0,1,2.6,7,61.77,61.77,0,0,1,.4,8q-.4,6-.4,8-.81,5.2-4.8,6l-15.2.8h-78c-3.2,0-5.2-1.86-6-5.6q-.4-12.79,0-19.6,1.59-4.8,10-6.2t10.8-5V1292c0-4.8-1.17-7.46-3.49-8s-4.59-1-6.78-1.4a5.69,5.69,0,0,1-4.51-3.4,90.65,90.65,0,0,1-.82-20.8,9.55,9.55,0,0,1,5.6-6q22-.39,64.8-.4,3.19-.39,8,3.6.79,3.21,2.8,9.6,19.59-20,41.6-20Q860,1245.21,872,1266Z"/><path class="cls-2" d="M968.43,1254q2,3.6,2,16v136.8c.8,2.67,3.06,4.27,6.8,4.8,5.86.8,9.06,1.34,9.6,1.6q3.6,1.61,4,7.6t.4,12.4q-.4,7.2-5.6,9.6l-8.4,1.2q-9.6,0-44,.4h-43.6a7.46,7.46,0,0,1-5.6-4q-.81-5.61,0-21.65,1.59-5.21,10.2-6t10.6-5.61V1294.91q0-9.63-2.8-12-1.2-.81-8.4-2.8-5.21-1.2-6.8-4.82-1.2-6,0-18.84,1.2-4.8,6.8-5.61h63.2Q964.42,1249.22,968.43,1254Zm-12.2-81.8a34.76,34.76,0,1,1-24.6-10.2A33.53,33.53,0,0,1,956.23,1172.21Z"/><path class="cls-2" d="M1186.83,1263.61q12,13.61,12.4,32.8,0,36.81.4,110c0,2.67,1.06,4.27,3.2,4.8,1.6-.26,4.06-1.4,7.4-3.4s5.8-3,7.4-3q3.19,0,5.6,3.2,6.39,6,5.2,10.8-4,16-26.8,24.8-18.81,7.2-36,1.2-9.21-1.61-17.6-9.4t-10.8-17l-1.6-10.8v-80q.19-8.79.4-17.6,0-10.8-6-15.6t-14.4-3.6q-18.81,3.63-22.8,23.32-.81,10.47-1.6,92.48.39,4,5.6,4.83c4.8.54,7.46.94,8,1.2,3.73,1.08,5.86,2.82,6.4,5.24q.8,20.5-1.6,24.52l-3.2,2q-31.61,0-94,.4-6.4-1.61-6.8-9.64v-13.25q.79-6,4.4-7.63c.53-.26,4-.94,10.4-2q6.39-1.2,6.8-6.43V1287q-1.61-3.21-7.6-4.22c-4-.66-6.4-2.07-7.2-4.21q-1.6-18.48,1.2-23.7l4.8-3.22q16.39-.39,66,0,3.19.81,8.4,11.6,2,.81,8-2.4,24-12.8,47.6-12.8Q1172.82,1248,1186.83,1263.61Z"/><path class="cls-2" d="M1309.27,1160.81q4,1.61,4.75,7.6V1318c.26,1.34.93,2,2,2l2.8-.8q13.2-11.6,38.8-35.6-1.2-2-6-2.8t-5.6-3.2l-1.6-4v-14q.8-8.4,7.2-10l76.4,1.2q6,1.62,6.4,8.81v12.82q0,6.42-7.2,8-11.61,2.4-12,2.8-10,5.61-34.4,29.64a8.45,8.45,0,0,0-2.8,6c0,2.13,1,4.94,3.11,8.41q3.49,6.4,4.28,8.41l39,70.3q2,6,12,7.4T1448,1420q0,6.79-.6,14.39t-6.2,9.59l-50,.4q-12,0-15.2-6-14.4-25.59-42.8-77.2-1.2-2-4.8-.8l-8.8,7.27q-4.8,4.85-5.6,9.29-.81,24.63.8,30.69,2,2.83,9.4,4t9.4,5.66q3.2,14.54-.8,24.23-5.21,2.82-14,2.82-12.81-.4-14.8,0h-55.2q-10-.79-11-7.18T1236,1424q0-8,3.6-13.18,1.59-1.59,9.6-2.8,6.39-.78,6.8-6V1193.17q-1.14-1.59-9.89-5.59-6.51-3.18-5.71-9.58v-10.39q.39-6,4.75-8h57.37Z"/><path class="cls-2" d="M1742,1158.41a75.66,75.66,0,0,1,41.4,12.38q19.39,12.39,27.4,32.76a85.45,85.45,0,0,1,5.2,30q0,25.56-13,41.74t-40.6,23.36l2,.8q15.6,1.2,30.2,12.19t19,26.16q4,12,4.4,32.75.39,28,1.2,34.36.8,4.8,8,6.79t8.8,6q2.81,13.18-1.2,23.17a7.21,7.21,0,0,1-5.8,3q-3.79.2-7.4.6l-68.4-.8q-6.4-1.59-6.8-9.6l-.8-66.4q-.4-20-1.6-26.4-2.8-14.4-13.2-20.8-13.61-6.79-31.2-1.6l-2.8,4.81v78.66q0,6.83,9.4,8c6.27.8,10.06,2.4,11.4,4.81q1.59,8,0,23.67c-1.07,3.49-3.34,5.35-6.8,5.62l-100.8-.8q-5.61-2.79-6-11.2.39-7.2.8-14t9.8-8.2q9.41-1.39,11-6.6.41-40,0-102.8-.4-87.19-.4-102.8-.81-6.39-10.8-8t-11.2-7.6V1168q0-8.79,6.8-10.4l8-.4Zm-19.6,37.6q-16.4-.79-14.4-.8-8.4.4-11.2,6V1274q.8,7.2,7.15,7.2a54.31,54.31,0,0,0,9.13.8q21,0,28.57-13.6,6.75-12.39,6.75-30,0-15.6-5.8-27.8T1722.41,1196Z"/><path class="cls-2" d="M2015.61,1296.81q10.8,25.61,10.8,36.8,0,6.81-16,13.2-19.2,7.61-58.4,20l-34.4,9.2a4.76,4.76,0,0,0-3.2,3.6,37,37,0,0,0,11.8,25.4q11,10.6,25.4,10.6,17.6,0,40-16.8,4.4-3.6,9-7.8t9.8-3q11.21,6,12,15.2-2.81,13.61-26.4,30t-56.4,16.4q-24.4,0-44-9.6-25.2-12-39.6-37.2-13.2-23.19-14-51.6a111.17,111.17,0,0,1,12.2-54.6,95.4,95.4,0,0,1,37.8-39.8q18.39-11.19,42.8-11.2,30,0,52,15.6A80.17,80.17,0,0,1,2015.61,1296.81Zm-87.2-18q-14,5.2-19.2,25.6-5.61,22.8-.4,37.2,3.2,4.8,7.2,4,26.81-6,45.6-14.8a10.2,10.2,0,0,0,2.8-8.4q-.4-19.59-8-34-6-11.19-20-11.2A21.49,21.49,0,0,0,1928.41,1278.81Z"/><path class="cls-2" d="M2152,1256a12.93,12.93,0,0,0,3.2.4,9.78,9.78,0,0,0,6.4-2.8q3.19-2.79,6-5.6,13.2-2.4,16.8,3.6a158.84,158.84,0,0,1,4.4,26l2.4,26.4q-1.2,11.61-21.2,9.2a37,37,0,0,1-6.8-8.8q-4.8-8-6.4-10-14-17.19-28.8-17.2-13.2,0-17.6,8.4-5.2,10,1.6,19.2,9.19,8.4,28,14.4,22,6.81,29.6,11.6,29.59,14.4,30.8,46.8a66.46,66.46,0,0,1-8.4,34,59.16,59.16,0,0,1-24.8,24.4q-17.21,9.21-39.2,9.2a83.68,83.68,0,0,1-28.8-4.8q-15.21-5.6-18.4-5.6a16.43,16.43,0,0,0-5.2.8q-4,2.81-8.4,5.8a11.62,11.62,0,0,1-8.8,2.2q-4,.41-10.4-2.8-4-6-6-29.2l-3.6-37.6q.79-5.6.8-6.4a6.06,6.06,0,0,1,4.4-4q14-4,20,1.22,12,30.64,28.4,39.92,14.4,8.05,27.6,8.06,11.19,0,18.8-6.41a15.29,15.29,0,0,0,5.2-11.63q0-10-14.4-16.84-45.6-21.24-48.8-23.26-26.8-16.83-31.6-41.29a69.74,69.74,0,0,1-1.2-12.84q0-26.05,20-42.1,16.39-12.82,41.6-12.83,19.2,0,34.4,7.2Z"/><path class="cls-2" d="M2408.21,1303.61a123.38,123.38,0,0,1,9,46.4q0,44.4-28.7,70.8t-64.8,26.4a76.43,76.43,0,0,1-29.29-5.6q-3.61.41-4,3.58v40.62q0,7.15,9.8,9.15t9.8,9.16l.4,10.35q0,6.36-2,9.56-4.8,3.18-27.2,2.78h-63.6q-6.81-1.61-8-5.19,0-1.2-.8-8.79a28.94,28.94,0,0,1,.4-8.79,10.15,10.15,0,0,1,4.4-7.18c.8-.8,3.73-1.74,8.8-2.8,3.73-.53,6-2.27,6.8-5.19q.39-67.11,1.6-201.31-1.2-3.58-8.6-6.18t-7.4-8.2V1262c.26-4.52,1.86-7.46,4.8-8.79q16.8,0,52.4-.8h9.6c4,0,6.93.94,8.8,2.8q.39,3.6,4.4,8.4,24.39-14,43.2-14,22.39,0,42.4,16.4A91.52,91.52,0,0,1,2408.21,1303.61Zm-92.2-14.4q-7.61.81-14.2,7.2a30.22,30.22,0,0,0-8.6,14,160.2,160.2,0,0,0-5.2,42,185.68,185.68,0,0,0,2,27.2q5.59,36.81,31.6,36.8a25.34,25.34,0,0,0,19.2-8q12.39-15.2,12.4-42.8a224,224,0,0,0-1.6-23.6q-3.21-29.6-13.2-43.2Q2330.4,1288,2316,1289.21Z"/><path class="cls-2" d="M2614.41,1296a102.21,102.21,0,0,1,11.6,48.4q0,40.8-24,69.2-28.41,33.6-76.8,33.6a110.65,110.65,0,0,1-35.2-5.6q-26.81-9.19-44.6-33.4t-19-52.2l-1.6-1.6h1.2q-1.2-30.39,11.6-56a94.79,94.79,0,0,1,39.6-41.6q22-12.39,50-12.4,36.39,0,61.6,19.6Q2604,1275.62,2614.41,1296Zm-97.2-17.2q-14.4,4.8-20,21.2-2.8,8.81-4.8,31.2,1.2,26.8,4,40,4.4,21.6,16.4,35.2,10.8,9.21,24.8,6,14.4-5.19,18.4-17.6,5.19-14.79,5.2-33.6,0-28.39-10.4-59.2a39,39,0,0,0-10.4-16.6q-7.6-7.4-16.8-7.4A26.4,26.4,0,0,0,2517.21,1278.81Z"/><path class="cls-2" d="M2822,1263.61q12,13.61,12.4,32.8,0,36.81.4,110c0,2.67,1.06,4.27,3.2,4.8,1.6-.26,4.06-1.4,7.4-3.4s5.8-3,7.4-3q3.2,0,5.6,3.2,6.39,6,5.2,10.8-4,16-26.8,24.8-18.81,7.2-36,1.2-9.21-1.61-17.6-9.4t-10.8-17l-1.6-10.8v-80q.2-8.79.4-17.6,0-10.8-6-15.6t-14.4-3.6q-18.81,3.63-22.8,23.32-.81,10.47-1.6,92.48.39,4,5.6,4.83c4.8.54,7.46.94,8,1.2,3.73,1.08,5.86,2.82,6.4,5.24q.8,20.5-1.6,24.52l-3.2,2q-31.61,0-94,.4-6.41-1.61-6.8-9.64v-13.25q.8-6,4.4-7.63c.53-.26,4-.94,10.4-2q6.39-1.2,6.8-6.43V1287q-1.6-3.21-7.6-4.22c-4-.66-6.4-2.07-7.2-4.21q-1.61-18.48,1.2-23.7l4.8-3.22q16.39-.39,66,0,3.19.81,8.4,11.6,2,.81,8-2.4,24-12.8,47.6-12.8Q2808,1248,2822,1263.61Z"/><path class="cls-2" d="M2984.4,1256a12.93,12.93,0,0,0,3.2.4,9.78,9.78,0,0,0,6.4-2.8q3.2-2.79,6-5.6,13.2-2.4,16.8,3.6a158.84,158.84,0,0,1,4.4,26l2.4,26.4q-1.2,11.61-21.2,9.2a37,37,0,0,1-6.8-8.8q-4.8-8-6.4-10-14-17.19-28.8-17.2-13.2,0-17.6,8.4-5.21,10,1.6,19.2,9.2,8.4,28,14.4,22,6.81,29.6,11.6,29.6,14.4,30.8,46.8a66.46,66.46,0,0,1-8.4,34,59.16,59.16,0,0,1-24.8,24.4q-17.2,9.21-39.2,9.2a83.68,83.68,0,0,1-28.8-4.8q-15.21-5.6-18.4-5.6a16.43,16.43,0,0,0-5.2.8q-4,2.81-8.4,5.8a11.62,11.62,0,0,1-8.8,2.2q-4,.41-10.4-2.8-4-6-6-29.2l-3.6-37.6q.79-5.6.8-6.4a6.06,6.06,0,0,1,4.4-4q14-4,20,1.22,12,30.64,28.4,39.92,14.4,8.05,27.6,8.06,11.19,0,18.8-6.41a15.29,15.29,0,0,0,5.2-11.63q0-10-14.4-16.84-45.6-21.24-48.8-23.26-26.81-16.83-31.6-41.29a69.74,69.74,0,0,1-1.2-12.84q0-26.05,20-42.1,16.39-12.82,41.6-12.83,19.2,0,34.4,7.2Z"/><path class="cls-2" d="M3130.8,1254q2,3.6,2,16v136.8c.8,2.67,3.06,4.27,6.8,4.8,5.86.8,9.06,1.34,9.6,1.6q3.6,1.61,4,7.6t.4,12.4q-.41,7.2-5.6,9.6l-8.4,1.2q-9.6,0-44,.4H3052a7.46,7.46,0,0,1-5.6-4q-.81-5.61,0-21.65,1.59-5.21,10.2-6t10.6-5.61V1294.91q0-9.63-2.8-12-1.2-.81-8.4-2.8-5.2-1.2-6.8-4.82-1.2-6,0-18.84,1.2-4.8,6.8-5.61h63.2Q3126.79,1249.22,3130.8,1254Zm-12.2-81.8A34.76,34.76,0,1,1,3094,1162,33.53,33.53,0,0,1,3118.6,1172.21Z"/><path class="cls-2" d="M3237.2,1163.21q4.4.4,6.8,5.6-.81,31.2,0,94,.8,2.4,4,0,18-12.8,41.6-12.8,20,0,34.4,10,45.2,31.2,45.2,90a135,135,0,0,1-2.8,27.2q-5.21,24-24.8,43.6T3298,1446a85.5,85.5,0,0,1-20,2.4q-28,0-46.8-16-4.41-1.2-9.6,4.4-6.41,6.4-9.2,7.6-6,2-24.4.4c-2.14-.27-4.14-2.13-6-5.6q-.4-33.2-.4-242-1.6-3.6-8.2-5.2t-8-4.4q-1.41-2.79-1.4-18.8a6.63,6.63,0,0,1,4.4-6l2.4-.8Zm46.8,129.6q-11.2-6.8-23.6-1.2-12,7.2-16,22.4-1.61,5.61-4,28-.41,27.6,1.2,38.4,3.6,20.8,17.2,32a25.23,25.23,0,0,0,15.6,4.8,24.06,24.06,0,0,0,11.6-2.8q17.19-10.8,18.4-43.2,1.2-43.2-10.8-67.6A25.43,25.43,0,0,0,3284,1292.81Z"/><path class="cls-2" d="M3462,1161.61q5.21.81,6.8,7.2l-1.2,45.2v192q2,4,12.4,6,8.81,1.6,9.2,8.2t.8,13q-.4,7.61-6,10-16.8,0-50.4.8-14.4.4-42.8-.8-4,.4-5.8-4.6t-1.4-18.6q1.24-6,8.29-8,5.79-1.59,12-2.8,2.9-2.4,2.9-10.8V1196q-1.2-4-8.2-5.4t-8.4-5.4q-1.41-4-.6-19.2.79-4,7.2-5.2Z"/><path class="cls-2" d="M3606.39,1250q4.4,1.2,5.2,7.2v9.6q.39,3.6-2.8,9.2l-9.6,4q-6,2.4-6.8,7.2,3.6,16.41,13.2,40.4,8.4,20,16.4,39.6c.8,1.6,1.86,1.87,3.2.8l2-3.2,25.2-74q.8-6.8-2.4-9.2a3.62,3.62,0,0,0-3.2-1.8c-1.6-.13-2.67-.6-3.2-1.4q-8.4-2.79-8.8-7.6v-11.6q.39-6,4.4-9.2l7.6-.8q20.79.4,59.2.4,5.19,0,7.2,4.4,3.6,11.21-.8,20.8-6.41,2-17.6,9.6l-4.8,8.8-41.6,107.6q-8.8,23.2-17.6,46.4-10.8,26.8-22,44.8-19.61,31.2-54,28.4-24.81-2-35.2-22a32.88,32.88,0,0,1-4.4-16.8,25.27,25.27,0,0,1,4.8-15.6q9.2-13.2,26-10.4,5.6.8,14.2,10t14.6,9.2a11.69,11.69,0,0,0,7.2-2.8q8.79-8.4,8.8-22.8a47.53,47.53,0,0,0-4.8-20.8l-61.6-139.6q-2-4.8-9.8-8t-9.4-8c0-.8-.14-3.6-.4-8.4a23.67,23.67,0,0,1,0-8.8,9.79,9.79,0,0,1,4.4-6.4h5.2Z"/></g></svg>