<svg id="logo_stacked" xmlns="http://www.w3.org/2000/svg" viewBox="0 0 2008 1049.48"><defs><style>.cls-1{fill:#ec2127;stroke:#fff;stroke-miterlimit:10;stroke-width:10}.cls-2{fill:#fff;}</style></defs><polygon id="star" class="cls-1" points="1285.71 228.97 1074.46 228.48 1004 52.13 933.54 228.48 722.29 228.97 885.03 351.65 829.92 548.62 1004 428.75 1178.08 548.62 1122.97 351.65 1285.71 228.97"/><path class="cls-2" d="M256.38,680.6q38.24,30.67,38.25,85.24a126.68,126.68,0,0,1-5.85,38.34q-6.75,20.28-23.4,37t-36.9,21.65q-13.5,3.62-34.2,4.06H159.63c-2.41.9-3.9,2.85-4.5,5.85v63.9q.9,6.75,11,8.33t12.38,5.62q1.78,6.75,0,26.55-.45,4.5-6.75,5.85l-111.6.45c-4.5,0-7.36-2.4-8.55-7.21,0-1.8-.3-5.26-.9-10.36a58.47,58.47,0,0,1,0-10.37,13.62,13.62,0,0,1,4.5-8.11q.9-.9,10.8-2.71c4.5-.9,7.49-2.84,9-5.85q.43-41.91,0-107.25-.45-91-.45-106.8c-.3-5.1-.45-10.22-.45-15.32Q73.68,700,66,698.62a58.1,58.1,0,0,1-9.9-1.81,8.34,8.34,0,0,1-6.3-5.86q-.45-8.1-.45-16.22,0-9.91,6.3-12.62l30.15-.45,90-.9Q230.73,660.31,256.38,680.6ZM155.13,708.49V812.81q0,9.93,4.43,12.19a37.16,37.16,0,0,0,12.85,2.26q16.4,0,25.26-10.39,15.5-18.51,15.51-49.22,0-24.84-9.75-43.81-11.09-22.58-35-22.58Q155.13,701.26,155.13,708.49Z"/><path class="cls-2" d="M464.27,663.91q3.15.45,8.1,10.35l5.85,19.8q18.45,62.55,77.4,238.5,2.7,8.55,20.25,14.4,4.05,3.6,4,11.7,0,6.75-.45,13.5-.45,8.1-5.4,9.9l-9,1.35L455.72,983q-6.3-.45-6.75-7.2c0-1.19-.3-4.5-.9-9.9q-.9-6.3,0-9.9a10.13,10.13,0,0,1,4.5-7.2c3.6-1.19,7.35-2.55,11.25-4s5.7-4.2,5.4-8.1q-3.6-16.2-13.05-44.1a10.18,10.18,0,0,0-8.1-4.5q-5.4-.45-10.35-.9h-64.8q-6.75.45-9.45,6.27l-11.7,39.86q-.45,7.17,8.78,10.76t11,8.06q2.7,14.79-1.8,27.32-1.8,2.24-16.65,4L295.07,983q-6.75-2.69-6.75-12.51c0-5.36.16-10.71.45-16.08q.92-5.36,9.23-8.7T308.12,937l5.4-15.19q27.9-84.6,86.41-252.9c.9-2.7,4.79-4.5,11.7-5.4Zm-54.93,85.94q-20.1,59.89-30.38,95.92.44,2.22,7.17,4,49.29,0,52-.45c3-1.79,4.18-3.58,3.58-5.38q-9-31.93-28.88-96.27Q410.21,746.76,409.34,749.85Z"/><path class="cls-2" d="M693.16,662.56q6.29,1.8,9,8.55l40.43,99.46c.6,1.19,1.65,1.5,3.15.89l2.7-4.58L778.27,681q6.32-18.87,14.87-18.87h94.58c5.7-.29,9,1.5,9.9,5.4q.9,8.55,1.35,17.1.45,9.45-4.86,13.95-5.31.9-11.05,1.8t-7.07,6.3l-1.77,13.05v218.7q1.8,5.4,11.48,7t11.92,6.52q1.35,6.75,0,25.65-1.8,4.5-7.2,5.85H777.92q-7.2-2.7-7.65-13,.45-8.1.45-16.65.9-6.75,11.7-8.32t12.15-8.33q.45-27.9-.9-167.85a1.64,1.64,0,0,0-2.25-1.35l-2.25,2.7-46.8,130.5c-1.5,2.4-4.18,3.76-8.06,4.05q1.34.45-15.67.45-9,0-11.63-7.2-14.79-41.85-45.66-126-1.35-2.25-3.13-.9l-.9,6.72v153.7q1.35,9,7.2,12.1.9,0,9.9,2.23,5.4,1.35,7.65,5.38,3.15,17.49-.9,27.78-2.25,4-12.6,4l-68-.45c-2.1-.3-4.2-1.93-6.3-4.93q-2.7-20.16,1.35-27.78,1.8-1.79,9.9-4.49,6.3-2.24,8.1-7.16l2.25-12.1V712.75q0-7.62-7-10.31-4.21-1.34-8.44-2.46a9.16,9.16,0,0,1-6.09-4.71q-2.75-7.62-.94-24.2c.9-4.47,3-7.17,6.3-8.07q12.12-1.34,35.49-.89Z"/><path class="cls-2" d="M1135.22,680.6q38.23,30.67,38.25,85.24a126.38,126.38,0,0,1-5.86,38.34q-6.75,20.28-23.39,37t-36.9,21.65q-13.5,3.62-34.2,4.06h-34.65q-3.62,1.35-4.5,5.85v63.9q.88,6.75,11,8.33t12.38,5.62q1.79,6.75,0,26.55-.46,4.5-6.75,5.85l-111.6.45c-4.5,0-7.36-2.4-8.55-7.21,0-1.8-.31-5.26-.9-10.36a56.59,56.59,0,0,1,0-10.37,13.57,13.57,0,0,1,4.5-8.11q.88-.9,10.8-2.71c4.5-.9,7.49-2.84,9-5.85q.43-41.91,0-107.25-.47-91-.45-106.8c-.31-5.1-.45-10.22-.45-15.32q-.47-9.46-8.1-10.81a57.92,57.92,0,0,1-9.9-1.81,8.34,8.34,0,0,1-6.3-5.86c-.31-5.4-.45-10.81-.45-16.22q0-9.91,6.3-12.62l30.15-.45,90-.9Q1109.55,660.31,1135.22,680.6ZM1034,708.49V812.81q0,9.93,4.43,12.19a37.16,37.16,0,0,0,12.85,2.26q16.38,0,25.25-10.39Q1092,798.36,1092,767.65q0-24.84-9.76-43.81-11.07-22.58-35-22.58Q1034,701.26,1034,708.49Z"/><path class="cls-2" d="M1403.86,676.06q4,9.9,6.75,26.1,4,24.3,4.5,27.45.9,15.75-4.93,19.35-18.84,5.4-26,.9-1.8-2.67-12.11-25.42-7.17-16-17.93-22.29-5.84-.89-48.42-.89-6.73,1.35-9,5.82l-1.34,9V787.7q.9,5.82,6.3,7.16,19.8,2.25,26.55-4.5,5-5,6.75-16.42t4-16q7.2-5.84,24.3-3.15,4,.9,6.75,8.55a922.12,922.12,0,0,1,1.35,94.5q-.45,7.65-8,9.9-16.12,3.6-23.71-2.25-1.35-2.25-4.48-18-2.68-10.8-9.84-14.4-22.37-2.7-28.63,2.7l-1.34,6.3v88.65a17.07,17.07,0,0,0,6.28,13.5,41.14,41.14,0,0,0,11.66,3.15h25.55q22.88.45,34.53-25.35,4.93-14.5,14.35-42.57,3.59-5.43,11.21-5.43a47.69,47.69,0,0,1,8.74,1.13,48.34,48.34,0,0,0,7.4,1.12q7.17,2.7,6.28,21.6a513.43,513.43,0,0,1-6.3,66.6q-3.15,11.72-9.45,15.52t-30.15,3.83h-38.25l-140-.9q-7.2-2.7-7.65-12.15.45-8.1.46-16.65,1.37-6.75,11.91-9.22t12.83-7q.44-15.3.45-32V711.61c0-3.6-1.06-6.3-3.15-8.1-4.5-.9-9.16-2-14-3.37s-7.2-4.57-7.2-9.68V675.61q0-8.1,7.2-9.9l164.25-.9q11.7.45,23.4.45Q1399.8,666.16,1403.86,676.06Z"/><path class="cls-2" d="M1606.81,662.11q24.74,0,46.57,13.93t30.83,36.85a96.14,96.14,0,0,1,5.85,33.7q0,28.75-14.63,47t-45.67,26.28l2.25.91q17.55,1.35,34,13.71t21.38,29.43q4.48,13.47,5,36.84.43,31.47,1.35,38.65c.59,3.6,3.6,6.15,9,7.65s8.69,3.74,9.9,6.73q3.14,14.84-1.35,26.07a8.16,8.16,0,0,1-6.53,3.37c-2.85.14-5.62.37-8.32.67l-76.95-.9q-7.22-1.8-7.65-10.8l-.9-74.7q-.46-22.5-1.8-29.7-3.16-16.2-14.85-23.4-15.32-7.65-35.1-1.8L1556,848v88.49q0,7.68,10.57,9t12.83,5.41q1.79,9,0,26.64-1.81,5.88-7.65,6.32l-113.4-.9q-6.32-3.15-6.75-12.6.43-8.1.9-15.75t11-9.22q10.57-1.57,12.38-7.43.44-45,0-115.65-.46-98.1-.45-115.65-.92-7.2-12.15-9t-12.6-8.55v-16.2q0-9.88,7.65-11.7l9-.45Zm-22,42.3q-18.46-.9-16.2-.9-9.45.45-12.6,6.75v81.9q.88,8.1,8,8.1a62.17,62.17,0,0,0,10.28.9q23.65,0,32.14-15.3,7.6-13.93,7.6-33.75,0-17.55-6.53-31.28T1584.76,704.41Z"/><path class="cls-2" d="M1875,669.31q4.93.9,9.9-3c4.5-3.42,7.34-5.27,8.55-5.56q14.85-1.35,21.15,1.79l4.05,5.37q3.58,15.24,11.7,74.35,1.35,8.07-5.4,10.75-18.46,4.49-25.65,1.79-4.05-4-6.3-12.6-2.7-10.35-4-13.05a51.8,51.8,0,0,0-14-20.7q-10.8-9.9-23-9.9t-20.7,9.45q-9.91,10.35-5.4,28.35,4.05,16.2,29.7,33.3,43.63,29.25,54.45,38.25,29.7,26.1,35.55,54a111.71,111.71,0,0,1,2.7,24.3q0,45.9-36,78.75-25.65,23.4-64.35,23.4a100.82,100.82,0,0,1-36-6.3c-1.51-.6-5-2.25-10.35-4.95-4.21-2.4-7.65-3.6-10.35-3.6a11.57,11.57,0,0,0-4.73.9q-2,.9-8.77,7.65c-3,3-6.3,4.34-9.9,4.05l-11.93-.9q-6.07-.45-8.77-4.5l-1.8-8.1-3.6-99a55,55,0,0,1,.9-7.65,11.28,11.28,0,0,1,3.6-6.75q12.15-5.4,27.9-1.35a13.81,13.81,0,0,1,5.62,9.22q1.13,6.09,2,11.48,11.69,69.3,59.85,69.3,17.08,0,28.35-11.25t11.25-26.1a35.92,35.92,0,0,0-1.35-9.45q-3.62-11.23-15.3-22-4-3.6-22.05-16.65-54-38.7-63.9-48.15Q1745,781.81,1745,744.46q0-50.4,45.45-76.05,18.43-10.35,41.85-10.35a74.69,74.69,0,0,1,28.8,5.4Z"/></svg>